%TF.GenerationSoftware,KiCad,Pcbnew,(6.0.7)*%
%TF.CreationDate,2023-02-26T17:44:05-06:00*%
%TF.ProjectId,Vsense,5673656e-7365-42e6-9b69-6361645f7063,rev?*%
%TF.SameCoordinates,Original*%
%TF.FileFunction,Copper,L2,Bot*%
%TF.FilePolarity,Positive*%
%FSLAX46Y46*%
G04 Gerber Fmt 4.6, Leading zero omitted, Abs format (unit mm)*
G04 Created by KiCad (PCBNEW (6.0.7)) date 2023-02-26 17:44:05*
%MOMM*%
%LPD*%
G01*
G04 APERTURE LIST*
G04 Aperture macros list*
%AMRoundRect*
0 Rectangle with rounded corners*
0 $1 Rounding radius*
0 $2 $3 $4 $5 $6 $7 $8 $9 X,Y pos of 4 corners*
0 Add a 4 corners polygon primitive as box body*
4,1,4,$2,$3,$4,$5,$6,$7,$8,$9,$2,$3,0*
0 Add four circle primitives for the rounded corners*
1,1,$1+$1,$2,$3*
1,1,$1+$1,$4,$5*
1,1,$1+$1,$6,$7*
1,1,$1+$1,$8,$9*
0 Add four rect primitives between the rounded corners*
20,1,$1+$1,$2,$3,$4,$5,0*
20,1,$1+$1,$4,$5,$6,$7,0*
20,1,$1+$1,$6,$7,$8,$9,0*
20,1,$1+$1,$8,$9,$2,$3,0*%
G04 Aperture macros list end*
%TA.AperFunction,ComponentPad*%
%ADD10RoundRect,0.250001X0.499999X-0.499999X0.499999X0.499999X-0.499999X0.499999X-0.499999X-0.499999X0*%
%TD*%
%TA.AperFunction,ComponentPad*%
%ADD11C,1.500000*%
%TD*%
%TA.AperFunction,ComponentPad*%
%ADD12R,2.000000X2.000000*%
%TD*%
%TA.AperFunction,ComponentPad*%
%ADD13RoundRect,0.250001X-0.499999X-0.499999X0.499999X-0.499999X0.499999X0.499999X-0.499999X0.499999X0*%
%TD*%
%TA.AperFunction,ComponentPad*%
%ADD14C,3.410000*%
%TD*%
%TA.AperFunction,ViaPad*%
%ADD15C,0.800000*%
%TD*%
%TA.AperFunction,Conductor*%
%ADD16C,0.150000*%
%TD*%
%TA.AperFunction,Conductor*%
%ADD17C,0.250000*%
%TD*%
G04 APERTURE END LIST*
D10*
%TO.P,VSense1,1,Pin_1*%
%TO.N,Cell0*%
X117835000Y-148250000D03*
D11*
%TO.P,VSense1,2,Pin_2*%
%TO.N,Cell1+*%
X117835000Y-145250000D03*
%TO.P,VSense1,3,Pin_3*%
%TO.N,Cell2+*%
X117835000Y-142250000D03*
%TO.P,VSense1,4,Pin_4*%
%TO.N,Cell3+*%
X117835000Y-139250000D03*
%TO.P,VSense1,5,Pin_5*%
%TO.N,Cell4+*%
X117835000Y-136250000D03*
%TO.P,VSense1,6,Pin_6*%
%TO.N,Cell5+*%
X117835000Y-133250000D03*
%TO.P,VSense1,7,Pin_7*%
%TO.N,Cell6+*%
X117835000Y-130250000D03*
%TO.P,VSense1,8,Pin_8*%
%TO.N,Cell7+*%
X117835000Y-127250000D03*
%TO.P,VSense1,9,Pin_9*%
%TO.N,Cell8+*%
X117835000Y-124250000D03*
%TO.P,VSense1,10,Pin_10*%
%TO.N,Cell9+*%
X117835000Y-121250000D03*
%TO.P,VSense1,11,Pin_11*%
%TO.N,Cell10+*%
X120835000Y-148250000D03*
%TO.P,VSense1,12,Pin_12*%
%TO.N,Cell11+*%
X120835000Y-145250000D03*
%TO.P,VSense1,13,Pin_13*%
%TO.N,Cell12+*%
X120835000Y-142250000D03*
%TO.P,VSense1,14,Pin_14*%
%TO.N,Cell13+*%
X120835000Y-139250000D03*
%TO.P,VSense1,15,Pin_15*%
%TO.N,Cell14+*%
X120835000Y-136250000D03*
%TO.P,VSense1,16,Pin_16*%
%TO.N,Cell15+*%
X120835000Y-133250000D03*
%TO.P,VSense1,17,Pin_17*%
%TO.N,Cell16+*%
X120835000Y-130250000D03*
%TO.P,VSense1,18,Pin_18*%
%TO.N,Cell17+*%
X120835000Y-127250000D03*
%TO.P,VSense1,19,Pin_19*%
%TO.N,Cell18+*%
X120835000Y-124250000D03*
%TO.P,VSense1,20,Pin_20*%
%TO.N,unconnected-(VSense1-Pad20)*%
X120835000Y-121250000D03*
%TD*%
D12*
%TO.P,Cell(8+)1,1,1*%
%TO.N,Cell8+*%
X194600000Y-106625000D03*
%TD*%
%TO.P,Cell(3+)1,1,1*%
%TO.N,Cell3+*%
X107050000Y-162875000D03*
%TD*%
%TO.P,Cell(9+)1,1,1*%
%TO.N,Cell9+*%
X221375000Y-162875000D03*
%TD*%
%TO.P,Cell(16+)1,1,1*%
%TO.N,Cell16+*%
X339500000Y-110375000D03*
%TD*%
%TO.P,Cell(5+)1,1,1*%
%TO.N,Cell5+*%
X145175000Y-162875000D03*
%TD*%
%TO.P,Cell(2+)1,1,1*%
%TO.N,Cell2+*%
X86550000Y-106625000D03*
%TD*%
%TO.P,Cell(12+)1,1,1*%
%TO.N,Cell12+*%
X270825000Y-106625000D03*
%TD*%
D13*
%TO.P,VSenseAUX1,1,Pin_1*%
%TO.N,Cell0*%
X280450000Y-90585000D03*
D11*
%TO.P,VSenseAUX1,2,Pin_2*%
%TO.N,Cell1+*%
X283450000Y-90585000D03*
%TO.P,VSenseAUX1,3,Pin_3*%
%TO.N,Cell2+*%
X286450000Y-90585000D03*
%TO.P,VSenseAUX1,4,Pin_4*%
%TO.N,Cell3+*%
X289450000Y-90585000D03*
%TO.P,VSenseAUX1,5,Pin_5*%
%TO.N,Cell4+*%
X292450000Y-90585000D03*
%TO.P,VSenseAUX1,6,Pin_6*%
%TO.N,Cell5+*%
X295450000Y-90585000D03*
%TO.P,VSenseAUX1,7,Pin_7*%
%TO.N,Cell6+*%
X298450000Y-90585000D03*
%TO.P,VSenseAUX1,8,Pin_8*%
%TO.N,Cell7+*%
X301450000Y-90585000D03*
%TO.P,VSenseAUX1,9,Pin_9*%
%TO.N,Cell8+*%
X304450000Y-90585000D03*
%TO.P,VSenseAUX1,10,Pin_10*%
%TO.N,Cell9+*%
X307450000Y-90585000D03*
%TO.P,VSenseAUX1,11,Pin_11*%
%TO.N,Cell10+*%
X280450000Y-93585000D03*
%TO.P,VSenseAUX1,12,Pin_12*%
%TO.N,Cell11+*%
X283450000Y-93585000D03*
%TO.P,VSenseAUX1,13,Pin_13*%
%TO.N,Cell12+*%
X286450000Y-93585000D03*
%TO.P,VSenseAUX1,14,Pin_14*%
%TO.N,Cell13+*%
X289450000Y-93585000D03*
%TO.P,VSenseAUX1,15,Pin_15*%
%TO.N,Cell14+*%
X292450000Y-93585000D03*
%TO.P,VSenseAUX1,16,Pin_16*%
%TO.N,Cell15+*%
X295450000Y-93585000D03*
%TO.P,VSenseAUX1,17,Pin_17*%
%TO.N,Cell16+*%
X298450000Y-93585000D03*
%TO.P,VSenseAUX1,18,Pin_18*%
%TO.N,Cell17+*%
X301450000Y-93585000D03*
%TO.P,VSenseAUX1,19,Pin_19*%
%TO.N,Cell18+*%
X304450000Y-93585000D03*
%TO.P,VSenseAUX1,20,Pin_20*%
X307450000Y-93585000D03*
D14*
%TO.P,VSenseAUX1,MP*%
%TO.N,N/C*%
X278300000Y-86265000D03*
X309600000Y-86265000D03*
%TD*%
D10*
%TO.P,Cell_Diff1,1,Pin_1*%
%TO.N,Cell0*%
X74625000Y-115850000D03*
D11*
%TO.P,Cell_Diff1,2,Pin_2*%
%TO.N,Cell18+*%
X77625000Y-115850000D03*
%TD*%
D12*
%TO.P,Cell(11+)1,1,1*%
%TO.N,Cell11+*%
X259475000Y-162850000D03*
%TD*%
%TO.P,Cell(13+)1,1,1*%
%TO.N,Cell13+*%
X297575000Y-162900000D03*
%TD*%
%TO.P,Cell(6+)1,1,1*%
%TO.N,Cell6+*%
X156525000Y-106625000D03*
%TD*%
%TO.P,Cell(18+)1,1,1*%
%TO.N,Cell18+*%
X345450000Y-110375000D03*
%TD*%
%TO.P,Cell(10+)1,1,1*%
%TO.N,Cell10+*%
X232725000Y-106625000D03*
%TD*%
%TO.P,Cell(1-)1,1,1*%
%TO.N,Cell0*%
X72925000Y-110325000D03*
%TD*%
%TO.P,Cell(7+)1,1,1*%
%TO.N,Cell7+*%
X183300000Y-162850000D03*
%TD*%
%TO.P,Cell(17+)1,1,1*%
%TO.N,Cell17+*%
X345395000Y-159120000D03*
%TD*%
%TO.P,Cell(15+)1,1,1*%
%TO.N,Cell15+*%
X339450000Y-159175000D03*
%TD*%
%TO.P,Cell(4+)1,1,1*%
%TO.N,Cell4+*%
X118375000Y-106625000D03*
%TD*%
%TO.P,Cell(1+)1,1,1*%
%TO.N,Cell1+*%
X74550000Y-159175000D03*
%TD*%
%TO.P,Cell(14+)1,1,1*%
%TO.N,Cell14+*%
X303275000Y-110275000D03*
%TD*%
D15*
%TO.N,Cell1+*%
X123225000Y-151225000D03*
%TO.N,Cell0*%
X87000000Y-111250000D03*
X274650000Y-111250000D03*
%TO.N,Cell2+*%
X108250000Y-112000000D03*
X272825000Y-112000000D03*
%TO.N,Cell3+*%
X124366649Y-151125750D03*
%TO.N,Cell4+*%
X136000000Y-112750000D03*
X270850000Y-112750000D03*
%TO.N,Cell5+*%
X124675000Y-150175000D03*
%TO.N,Cell6+*%
X164250000Y-113500000D03*
X268900000Y-113500000D03*
%TO.N,Cell7+*%
X125900000Y-150150000D03*
%TO.N,Cell8+*%
X192750000Y-114250000D03*
X266850000Y-114250000D03*
%TO.N,Cell9+*%
X126150000Y-149150000D03*
%TO.N,Cell10+*%
X112500000Y-115000000D03*
X220762500Y-114987500D03*
%TO.N,Cell11+*%
X240925000Y-159175000D03*
X312250000Y-115775000D03*
%TO.N,Cell12+*%
X248512500Y-115737500D03*
X113250000Y-115750000D03*
%TO.N,Cell13+*%
X313100000Y-114600000D03*
X270125000Y-158375000D03*
%TO.N,Cell14+*%
X114000000Y-116500000D03*
X276500000Y-116500000D03*
%TO.N,Cell15+*%
X299100000Y-157600000D03*
X313875000Y-113400000D03*
%TO.N,Cell16+*%
X280925000Y-117275000D03*
X114831637Y-117224500D03*
%TO.N,Cell17+*%
X314750000Y-112225000D03*
X328100000Y-156850000D03*
%TO.N,Cell18+*%
X123250000Y-118000000D03*
X285800000Y-117949000D03*
X91025000Y-119250000D03*
%TD*%
D16*
%TO.N,Cell1+*%
X125200000Y-153200000D02*
X304875000Y-153200000D01*
X310675000Y-84100000D02*
X308425000Y-84100000D01*
X123225000Y-151225000D02*
X125200000Y-153200000D01*
X308425000Y-84100000D02*
X304725000Y-87800000D01*
D17*
X122750000Y-148000000D02*
X121500000Y-146750000D01*
X123225000Y-151225000D02*
X122750000Y-150750000D01*
D16*
X312200000Y-99425000D02*
X312200000Y-85625000D01*
D17*
X122750000Y-150750000D02*
X122750000Y-148000000D01*
D16*
X312200000Y-85625000D02*
X310675000Y-84100000D01*
D17*
X119335000Y-146750000D02*
X117835000Y-145250000D01*
D16*
X286235000Y-87800000D02*
X283450000Y-90585000D01*
X304725000Y-87800000D02*
X286235000Y-87800000D01*
D17*
X121500000Y-146750000D02*
X119335000Y-146750000D01*
D16*
X304875000Y-153200000D02*
X310250000Y-147825000D01*
X310250000Y-147825000D02*
X310250000Y-101375000D01*
X310250000Y-101375000D02*
X312200000Y-99425000D01*
D17*
%TO.N,Cell0*%
X274650000Y-111250000D02*
X87000000Y-111250000D01*
%TO.N,Cell2+*%
X272825000Y-112000000D02*
X108250000Y-112000000D01*
D16*
%TO.N,Cell3+*%
X304575000Y-152750000D02*
X309725000Y-147600000D01*
D17*
X124366649Y-151125750D02*
X123449520Y-150208621D01*
D16*
X309725000Y-101275000D02*
X310700000Y-100300000D01*
X309725000Y-147600000D02*
X309725000Y-101275000D01*
D17*
X122750000Y-140750000D02*
X119335000Y-140750000D01*
D16*
X125990899Y-152750000D02*
X304575000Y-152750000D01*
D17*
X119335000Y-140750000D02*
X117835000Y-139250000D01*
D16*
X310700000Y-100300000D02*
X310700000Y-90500000D01*
X310700000Y-90500000D02*
X308575000Y-88375000D01*
D17*
X123449520Y-150208621D02*
X123449520Y-141449520D01*
D16*
X124366649Y-151125750D02*
X125990899Y-152750000D01*
X308575000Y-88375000D02*
X291660000Y-88375000D01*
X291660000Y-88375000D02*
X289450000Y-90585000D01*
D17*
X123449520Y-141449520D02*
X122750000Y-140750000D01*
%TO.N,Cell4+*%
X270850000Y-112750000D02*
X136000000Y-112750000D01*
%TO.N,Cell5+*%
X124250000Y-136500000D02*
X122500000Y-134750000D01*
D16*
X309200000Y-147400000D02*
X309200000Y-95500000D01*
D17*
X122500000Y-134750000D02*
X119335000Y-134750000D01*
D16*
X309200000Y-95500000D02*
X309550000Y-95150000D01*
X308325000Y-88825000D02*
X297210000Y-88825000D01*
X124675000Y-150175000D02*
X126800000Y-152300000D01*
X309550000Y-95150000D02*
X309550000Y-90050000D01*
X309550000Y-90050000D02*
X308325000Y-88825000D01*
D17*
X119335000Y-134750000D02*
X117835000Y-133250000D01*
X124250000Y-149750000D02*
X124250000Y-136500000D01*
X124675000Y-150175000D02*
X124250000Y-149750000D01*
D16*
X297210000Y-88825000D02*
X295450000Y-90585000D01*
X126800000Y-152300000D02*
X304300000Y-152300000D01*
X304300000Y-152300000D02*
X309200000Y-147400000D01*
D17*
%TO.N,Cell6+*%
X268900000Y-113500000D02*
X164250000Y-113500000D01*
%TO.N,Cell7+*%
X125000000Y-131000000D02*
X122750000Y-128750000D01*
D16*
X304050000Y-151850000D02*
X308675000Y-147225000D01*
X307700000Y-100275000D02*
X307700000Y-95975000D01*
D17*
X119250000Y-128750000D02*
X117835000Y-127335000D01*
D16*
X125900000Y-150150000D02*
X127600000Y-151850000D01*
D17*
X117835000Y-127335000D02*
X117835000Y-127250000D01*
D16*
X308675000Y-147225000D02*
X308675000Y-101250000D01*
X308775000Y-94900000D02*
X308775000Y-90000000D01*
X308775000Y-90000000D02*
X308050000Y-89275000D01*
D17*
X122750000Y-128750000D02*
X119250000Y-128750000D01*
X125000000Y-149250000D02*
X125000000Y-131000000D01*
D16*
X127600000Y-151850000D02*
X304050000Y-151850000D01*
X307700000Y-95975000D02*
X308775000Y-94900000D01*
X302760000Y-89275000D02*
X301450000Y-90585000D01*
X308050000Y-89275000D02*
X302760000Y-89275000D01*
D17*
X125900000Y-150150000D02*
X125000000Y-149250000D01*
D16*
X308675000Y-101250000D02*
X307700000Y-100275000D01*
D17*
%TO.N,Cell8+*%
X266850000Y-114250000D02*
X192750000Y-114250000D01*
D16*
%TO.N,Cell9+*%
X308175000Y-101450000D02*
X306200000Y-99475000D01*
X303775000Y-151400000D02*
X308175000Y-147000000D01*
X306200000Y-91835000D02*
X307450000Y-90585000D01*
D17*
X125750000Y-148750000D02*
X125750000Y-125750000D01*
X119335000Y-122750000D02*
X117835000Y-121250000D01*
X122750000Y-122750000D02*
X119335000Y-122750000D01*
D16*
X306200000Y-99475000D02*
X306200000Y-91835000D01*
X126150000Y-149150000D02*
X128400000Y-151400000D01*
X308175000Y-147000000D02*
X308175000Y-101450000D01*
D17*
X125750000Y-125750000D02*
X122750000Y-122750000D01*
D16*
X128400000Y-151400000D02*
X303775000Y-151400000D01*
D17*
X126150000Y-149150000D02*
X125750000Y-148750000D01*
%TO.N,Cell10+*%
X112500000Y-115000000D02*
X112500000Y-146750000D01*
X275750000Y-96725000D02*
X278890000Y-93585000D01*
X278890000Y-93585000D02*
X280450000Y-93585000D01*
X220775000Y-115000000D02*
X274025000Y-115000000D01*
X112500000Y-146750000D02*
X115750000Y-150000000D01*
X220762500Y-114987500D02*
X220775000Y-115000000D01*
X119085000Y-150000000D02*
X120835000Y-148250000D01*
X115750000Y-150000000D02*
X119085000Y-150000000D01*
X275750000Y-113275000D02*
X275750000Y-96725000D01*
X274025000Y-115000000D02*
X275750000Y-113275000D01*
%TO.N,Cell11+*%
X312250000Y-151775000D02*
X309500000Y-154525000D01*
X245575000Y-154525000D02*
X240925000Y-159175000D01*
X312250000Y-115775000D02*
X312250000Y-151775000D01*
X309500000Y-154525000D02*
X245575000Y-154525000D01*
%TO.N,Cell12+*%
X284710000Y-95325000D02*
X286450000Y-93585000D01*
X248512500Y-115737500D02*
X274962500Y-115737500D01*
X119335000Y-143750000D02*
X120835000Y-142250000D01*
X274962500Y-115737500D02*
X277250000Y-113450000D01*
X115750000Y-143750000D02*
X119335000Y-143750000D01*
X277250000Y-97425000D02*
X279350000Y-95325000D01*
X113250000Y-115750000D02*
X113250000Y-141250000D01*
X277250000Y-113450000D02*
X277250000Y-97425000D01*
X113250000Y-141250000D02*
X115750000Y-143750000D01*
X279350000Y-95325000D02*
X284710000Y-95325000D01*
%TO.N,Cell13+*%
X313100000Y-114600000D02*
X313100000Y-152150000D01*
X272625000Y-155875000D02*
X270125000Y-158375000D01*
X313100000Y-152150000D02*
X309375000Y-155875000D01*
X309375000Y-155875000D02*
X272625000Y-155875000D01*
%TO.N,Cell14+*%
X280500000Y-96100000D02*
X289935000Y-96100000D01*
X276500000Y-116500000D02*
X278725000Y-114275000D01*
X119335000Y-137750000D02*
X120835000Y-136250000D01*
X278725000Y-97875000D02*
X280500000Y-96100000D01*
X114000000Y-116500000D02*
X114000000Y-136000000D01*
X289935000Y-96100000D02*
X292450000Y-93585000D01*
X115750000Y-137750000D02*
X119335000Y-137750000D01*
X114000000Y-136000000D02*
X115750000Y-137750000D01*
X278725000Y-114275000D02*
X278725000Y-97875000D01*
%TO.N,Cell15+*%
X308900000Y-157600000D02*
X299100000Y-157600000D01*
X313875000Y-113400000D02*
X313875000Y-152625000D01*
X313875000Y-152625000D02*
X308900000Y-157600000D01*
%TO.N,Cell16+*%
X281725000Y-96825000D02*
X295210000Y-96825000D01*
X280200000Y-98350000D02*
X281725000Y-96825000D01*
X119335000Y-131750000D02*
X120835000Y-130250000D01*
X115750000Y-131750000D02*
X119335000Y-131750000D01*
X114750000Y-117306137D02*
X114750000Y-130750000D01*
X114750000Y-130750000D02*
X115750000Y-131750000D01*
X114831637Y-117224500D02*
X114750000Y-117306137D01*
X295210000Y-96825000D02*
X298450000Y-93585000D01*
X280925000Y-117275000D02*
X280200000Y-116550000D01*
X280200000Y-116550000D02*
X280200000Y-98350000D01*
%TO.N,Cell17+*%
X314750000Y-152575000D02*
X319025000Y-156850000D01*
X314750000Y-112225000D02*
X314750000Y-152575000D01*
X319025000Y-156850000D02*
X328100000Y-156850000D01*
%TO.N,Cell18+*%
X123250000Y-118011761D02*
X122137240Y-119124521D01*
X281675000Y-98250000D02*
X282400000Y-97525000D01*
X300334315Y-95100000D02*
X302935000Y-95100000D01*
X119335000Y-125750000D02*
X120835000Y-124250000D01*
X91025000Y-119250000D02*
X81025000Y-119250000D01*
X115500000Y-118250000D02*
X115500000Y-125500000D01*
X297909315Y-97525000D02*
X300334315Y-95100000D01*
X81025000Y-119250000D02*
X77625000Y-115850000D01*
X121412760Y-119124521D02*
X120038239Y-117750000D01*
X302935000Y-95100000D02*
X304450000Y-93585000D01*
X115500000Y-125500000D02*
X115750000Y-125750000D01*
X281675000Y-113824000D02*
X281675000Y-98250000D01*
X115750000Y-125750000D02*
X119335000Y-125750000D01*
X285800000Y-117949000D02*
X281675000Y-113824000D01*
X120038239Y-117750000D02*
X116000000Y-117750000D01*
X122137240Y-119124521D02*
X121412760Y-119124521D01*
X116000000Y-117750000D02*
X115500000Y-118250000D01*
X123250000Y-118000000D02*
X123250000Y-118011761D01*
X282400000Y-97525000D02*
X297909315Y-97525000D01*
%TD*%
M02*
