%TF.GenerationSoftware,KiCad,Pcbnew,(6.0.7)*%
%TF.CreationDate,2023-02-26T17:44:05-06:00*%
%TF.ProjectId,Vsense,5673656e-7365-42e6-9b69-6361645f7063,rev?*%
%TF.SameCoordinates,Original*%
%TF.FileFunction,Profile,NP*%
%FSLAX46Y46*%
G04 Gerber Fmt 4.6, Leading zero omitted, Abs format (unit mm)*
G04 Created by KiCad (PCBNEW (6.0.7)) date 2023-02-26 17:44:05*
%MOMM*%
%LPD*%
G01*
G04 APERTURE LIST*
%TA.AperFunction,Profile*%
%ADD10C,0.100000*%
%TD*%
G04 APERTURE END LIST*
D10*
X278200000Y-83500000D02*
G75*
G03*
X275450000Y-86250000I0J-2750000D01*
G01*
X70000000Y-170500000D02*
X350000000Y-170500000D01*
X315950000Y-99000000D02*
X350000000Y-99000000D01*
X275150000Y-99000000D02*
G75*
G03*
X275150000Y-99000000I-200000J0D01*
G01*
X273650000Y-99000000D02*
G75*
G03*
X273650000Y-99000000I-200000J0D01*
G01*
X350000000Y-99000000D02*
X350000000Y-170500000D01*
X276656155Y-99000000D02*
G75*
G03*
X276656155Y-99000000I-206155J0D01*
G01*
X275450000Y-86250000D02*
X275450000Y-93500000D01*
X315950000Y-98000000D02*
G75*
G03*
X315950000Y-99000000I0J-500000D01*
G01*
X307150000Y-99000000D02*
G75*
G03*
X307150000Y-99000000I-200000J0D01*
G01*
X70000000Y-170500000D02*
X70000000Y-99000000D01*
X278200000Y-83500000D02*
X309700000Y-83500000D01*
X312450000Y-93500000D02*
G75*
G03*
X315950000Y-97000000I3500000J0D01*
G01*
X312450000Y-86125000D02*
X312450000Y-93500000D01*
X279650000Y-99000000D02*
G75*
G03*
X279650000Y-99000000I-200000J0D01*
G01*
X283950000Y-99000000D02*
X303950000Y-99000000D01*
X303950000Y-99000000D02*
G75*
G03*
X303950000Y-98000000I0J500000D01*
G01*
X70000000Y-99000000D02*
X271950000Y-99000000D01*
X315950000Y-98000000D02*
G75*
G03*
X315950000Y-97000000I0J500000D01*
G01*
X313150000Y-99000000D02*
G75*
G03*
X313150000Y-99000000I-200000J0D01*
G01*
X305650000Y-99000000D02*
G75*
G03*
X305650000Y-99000000I-200000J0D01*
G01*
X271950000Y-99000000D02*
G75*
G03*
X271950000Y-98000000I0J500000D01*
G01*
X312450023Y-86124999D02*
G75*
G03*
X309700000Y-83500000I-2750023J-128001D01*
G01*
X271950000Y-97000000D02*
G75*
G03*
X271950000Y-98000000I0J-500000D01*
G01*
X278150000Y-99000000D02*
G75*
G03*
X278150000Y-99000000I-200000J0D01*
G01*
X271950000Y-97000000D02*
G75*
G03*
X275450000Y-93500000I0J3500000D01*
G01*
X311650000Y-99000000D02*
G75*
G03*
X311650000Y-99000000I-200000J0D01*
G01*
X308650000Y-99000000D02*
G75*
G03*
X308650000Y-99000000I-200000J0D01*
G01*
X281150000Y-99000000D02*
G75*
G03*
X281150000Y-99000000I-200000J0D01*
G01*
X282650000Y-99000000D02*
G75*
G03*
X282650000Y-99000000I-200000J0D01*
G01*
X283950000Y-98000000D02*
X303950000Y-98000000D01*
X314650000Y-99000000D02*
G75*
G03*
X314650000Y-99000000I-200000J0D01*
G01*
X283950000Y-98000000D02*
G75*
G03*
X283950000Y-99000000I0J-500000D01*
G01*
X310150000Y-99000000D02*
G75*
G03*
X310150000Y-99000000I-200000J0D01*
G01*
M02*
