%TF.GenerationSoftware,KiCad,Pcbnew,(6.0.7)*%
%TF.CreationDate,2023-02-26T17:44:05-06:00*%
%TF.ProjectId,Vsense,5673656e-7365-42e6-9b69-6361645f7063,rev?*%
%TF.SameCoordinates,Original*%
%TF.FileFunction,Copper,L1,Top*%
%TF.FilePolarity,Positive*%
%FSLAX46Y46*%
G04 Gerber Fmt 4.6, Leading zero omitted, Abs format (unit mm)*
G04 Created by KiCad (PCBNEW (6.0.7)) date 2023-02-26 17:44:05*
%MOMM*%
%LPD*%
G01*
G04 APERTURE LIST*
G04 Aperture macros list*
%AMRoundRect*
0 Rectangle with rounded corners*
0 $1 Rounding radius*
0 $2 $3 $4 $5 $6 $7 $8 $9 X,Y pos of 4 corners*
0 Add a 4 corners polygon primitive as box body*
4,1,4,$2,$3,$4,$5,$6,$7,$8,$9,$2,$3,0*
0 Add four circle primitives for the rounded corners*
1,1,$1+$1,$2,$3*
1,1,$1+$1,$4,$5*
1,1,$1+$1,$6,$7*
1,1,$1+$1,$8,$9*
0 Add four rect primitives between the rounded corners*
20,1,$1+$1,$2,$3,$4,$5,0*
20,1,$1+$1,$4,$5,$6,$7,0*
20,1,$1+$1,$6,$7,$8,$9,0*
20,1,$1+$1,$8,$9,$2,$3,0*%
G04 Aperture macros list end*
%TA.AperFunction,SMDPad,CuDef*%
%ADD10R,4.000000X4.000000*%
%TD*%
%TA.AperFunction,SMDPad,CuDef*%
%ADD11RoundRect,0.250001X0.462499X0.624999X-0.462499X0.624999X-0.462499X-0.624999X0.462499X-0.624999X0*%
%TD*%
%TA.AperFunction,SMDPad,CuDef*%
%ADD12RoundRect,0.250001X-0.462499X-0.624999X0.462499X-0.624999X0.462499X0.624999X-0.462499X0.624999X0*%
%TD*%
%TA.AperFunction,ComponentPad*%
%ADD13RoundRect,0.250001X0.499999X-0.499999X0.499999X0.499999X-0.499999X0.499999X-0.499999X-0.499999X0*%
%TD*%
%TA.AperFunction,ComponentPad*%
%ADD14C,1.500000*%
%TD*%
%TA.AperFunction,ComponentPad*%
%ADD15R,2.000000X2.000000*%
%TD*%
%TA.AperFunction,ComponentPad*%
%ADD16RoundRect,0.250001X-0.499999X-0.499999X0.499999X-0.499999X0.499999X0.499999X-0.499999X0.499999X0*%
%TD*%
%TA.AperFunction,ComponentPad*%
%ADD17C,3.410000*%
%TD*%
%TA.AperFunction,ViaPad*%
%ADD18C,0.800000*%
%TD*%
%TA.AperFunction,Conductor*%
%ADD19C,0.250000*%
%TD*%
%TA.AperFunction,Conductor*%
%ADD20C,0.150000*%
%TD*%
G04 APERTURE END LIST*
D10*
%TO.P,PAD(14+)1,1,1*%
%TO.N,/Unfused_Cell_14*%
X303250000Y-102800000D03*
%TD*%
D11*
%TO.P,F17,1*%
%TO.N,Cell17+*%
X346862500Y-162825000D03*
%TO.P,F17,2*%
%TO.N,/Unfused_Cell_17*%
X343887500Y-162825000D03*
%TD*%
D12*
%TO.P,F14,1*%
%TO.N,/Unfused_Cell_14*%
X301762500Y-106625000D03*
%TO.P,F14,2*%
%TO.N,Cell14+*%
X304737500Y-106625000D03*
%TD*%
%TO.P,F16,1*%
%TO.N,/Unfused_Cell_16*%
X338062500Y-106625000D03*
%TO.P,F16,2*%
%TO.N,Cell16+*%
X341037500Y-106625000D03*
%TD*%
%TO.P,F7,1*%
%TO.N,Cell7+*%
X187462500Y-162850000D03*
%TO.P,F7,2*%
%TO.N,/Unfused_Cell_7*%
X190437500Y-162850000D03*
%TD*%
D10*
%TO.P,PAD(1+)1,1,1*%
%TO.N,/Unfused_Cell_1*%
X74650000Y-166700000D03*
%TD*%
D13*
%TO.P,VSense1,1,Pin_1*%
%TO.N,Cell0*%
X117835000Y-148250000D03*
D14*
%TO.P,VSense1,2,Pin_2*%
%TO.N,Cell1+*%
X117835000Y-145250000D03*
%TO.P,VSense1,3,Pin_3*%
%TO.N,Cell2+*%
X117835000Y-142250000D03*
%TO.P,VSense1,4,Pin_4*%
%TO.N,Cell3+*%
X117835000Y-139250000D03*
%TO.P,VSense1,5,Pin_5*%
%TO.N,Cell4+*%
X117835000Y-136250000D03*
%TO.P,VSense1,6,Pin_6*%
%TO.N,Cell5+*%
X117835000Y-133250000D03*
%TO.P,VSense1,7,Pin_7*%
%TO.N,Cell6+*%
X117835000Y-130250000D03*
%TO.P,VSense1,8,Pin_8*%
%TO.N,Cell7+*%
X117835000Y-127250000D03*
%TO.P,VSense1,9,Pin_9*%
%TO.N,Cell8+*%
X117835000Y-124250000D03*
%TO.P,VSense1,10,Pin_10*%
%TO.N,Cell9+*%
X117835000Y-121250000D03*
%TO.P,VSense1,11,Pin_11*%
%TO.N,Cell10+*%
X120835000Y-148250000D03*
%TO.P,VSense1,12,Pin_12*%
%TO.N,Cell11+*%
X120835000Y-145250000D03*
%TO.P,VSense1,13,Pin_13*%
%TO.N,Cell12+*%
X120835000Y-142250000D03*
%TO.P,VSense1,14,Pin_14*%
%TO.N,Cell13+*%
X120835000Y-139250000D03*
%TO.P,VSense1,15,Pin_15*%
%TO.N,Cell14+*%
X120835000Y-136250000D03*
%TO.P,VSense1,16,Pin_16*%
%TO.N,Cell15+*%
X120835000Y-133250000D03*
%TO.P,VSense1,17,Pin_17*%
%TO.N,Cell16+*%
X120835000Y-130250000D03*
%TO.P,VSense1,18,Pin_18*%
%TO.N,Cell17+*%
X120835000Y-127250000D03*
%TO.P,VSense1,19,Pin_19*%
%TO.N,Cell18+*%
X120835000Y-124250000D03*
%TO.P,VSense1,20,Pin_20*%
%TO.N,unconnected-(VSense1-Pad20)*%
X120835000Y-121250000D03*
%TD*%
D15*
%TO.P,Cell(8+)1,1,1*%
%TO.N,Cell8+*%
X194600000Y-106625000D03*
%TD*%
D10*
%TO.P,PAD(12+)1,1,1*%
%TO.N,/Unfused_Cell_12*%
X265150000Y-102800000D03*
%TD*%
D15*
%TO.P,Cell(3+)1,1,1*%
%TO.N,Cell3+*%
X107050000Y-162875000D03*
%TD*%
D10*
%TO.P,PAD(8+)1,1,1*%
%TO.N,/Unfused_Cell_8*%
X188950000Y-102800000D03*
%TD*%
%TO.P,PAD(17+)1,1,1*%
%TO.N,/Unfused_Cell_17*%
X345425000Y-166700000D03*
%TD*%
D12*
%TO.P,F9,1*%
%TO.N,Cell9+*%
X225537500Y-162875000D03*
%TO.P,F9,2*%
%TO.N,/Unfused_Cell_9*%
X228512500Y-162875000D03*
%TD*%
%TO.P,F4,1*%
%TO.N,/Unfused_Cell_4*%
X111237500Y-106625000D03*
%TO.P,F4,2*%
%TO.N,Cell4+*%
X114212500Y-106625000D03*
%TD*%
D10*
%TO.P,PAD(10+)1,1,1*%
%TO.N,/Unfused_Cell_10*%
X227050000Y-102800000D03*
%TD*%
D15*
%TO.P,Cell(9+)1,1,1*%
%TO.N,Cell9+*%
X221375000Y-162875000D03*
%TD*%
%TO.P,Cell(16+)1,1,1*%
%TO.N,Cell16+*%
X339500000Y-110375000D03*
%TD*%
%TO.P,Cell(5+)1,1,1*%
%TO.N,Cell5+*%
X145175000Y-162875000D03*
%TD*%
%TO.P,Cell(2+)1,1,1*%
%TO.N,Cell2+*%
X86550000Y-106625000D03*
%TD*%
%TO.P,Cell(12+)1,1,1*%
%TO.N,Cell12+*%
X270825000Y-106625000D03*
%TD*%
D16*
%TO.P,VSenseAUX1,1,Pin_1*%
%TO.N,Cell0*%
X280450000Y-90585000D03*
D14*
%TO.P,VSenseAUX1,2,Pin_2*%
%TO.N,Cell1+*%
X283450000Y-90585000D03*
%TO.P,VSenseAUX1,3,Pin_3*%
%TO.N,Cell2+*%
X286450000Y-90585000D03*
%TO.P,VSenseAUX1,4,Pin_4*%
%TO.N,Cell3+*%
X289450000Y-90585000D03*
%TO.P,VSenseAUX1,5,Pin_5*%
%TO.N,Cell4+*%
X292450000Y-90585000D03*
%TO.P,VSenseAUX1,6,Pin_6*%
%TO.N,Cell5+*%
X295450000Y-90585000D03*
%TO.P,VSenseAUX1,7,Pin_7*%
%TO.N,Cell6+*%
X298450000Y-90585000D03*
%TO.P,VSenseAUX1,8,Pin_8*%
%TO.N,Cell7+*%
X301450000Y-90585000D03*
%TO.P,VSenseAUX1,9,Pin_9*%
%TO.N,Cell8+*%
X304450000Y-90585000D03*
%TO.P,VSenseAUX1,10,Pin_10*%
%TO.N,Cell9+*%
X307450000Y-90585000D03*
%TO.P,VSenseAUX1,11,Pin_11*%
%TO.N,Cell10+*%
X280450000Y-93585000D03*
%TO.P,VSenseAUX1,12,Pin_12*%
%TO.N,Cell11+*%
X283450000Y-93585000D03*
%TO.P,VSenseAUX1,13,Pin_13*%
%TO.N,Cell12+*%
X286450000Y-93585000D03*
%TO.P,VSenseAUX1,14,Pin_14*%
%TO.N,Cell13+*%
X289450000Y-93585000D03*
%TO.P,VSenseAUX1,15,Pin_15*%
%TO.N,Cell14+*%
X292450000Y-93585000D03*
%TO.P,VSenseAUX1,16,Pin_16*%
%TO.N,Cell15+*%
X295450000Y-93585000D03*
%TO.P,VSenseAUX1,17,Pin_17*%
%TO.N,Cell16+*%
X298450000Y-93585000D03*
%TO.P,VSenseAUX1,18,Pin_18*%
%TO.N,Cell17+*%
X301450000Y-93585000D03*
%TO.P,VSenseAUX1,19,Pin_19*%
%TO.N,Cell18+*%
X304450000Y-93585000D03*
%TO.P,VSenseAUX1,20,Pin_20*%
X307450000Y-93585000D03*
D17*
%TO.P,VSenseAUX1,MP*%
%TO.N,N/C*%
X278300000Y-86265000D03*
X309600000Y-86265000D03*
%TD*%
D13*
%TO.P,Cell_Diff1,1,Pin_1*%
%TO.N,Cell0*%
X74625000Y-115850000D03*
D14*
%TO.P,Cell_Diff1,2,Pin_2*%
%TO.N,Cell18+*%
X77625000Y-115850000D03*
%TD*%
D12*
%TO.P,F10,1*%
%TO.N,/Unfused_Cell_10*%
X225587500Y-106625000D03*
%TO.P,F10,2*%
%TO.N,Cell10+*%
X228562500Y-106625000D03*
%TD*%
D10*
%TO.P,PAD(3+)1,1,1*%
%TO.N,/Unfused_Cell_3*%
X112750000Y-166700000D03*
%TD*%
%TO.P,PAD(16+)1,1,1*%
%TO.N,/Unfused_Cell_16*%
X339550000Y-102800000D03*
%TD*%
D15*
%TO.P,Cell(11+)1,1,1*%
%TO.N,Cell11+*%
X259475000Y-162850000D03*
%TD*%
D12*
%TO.P,F12,1*%
%TO.N,/Unfused_Cell_12*%
X263687500Y-106625000D03*
%TO.P,F12,2*%
%TO.N,Cell12+*%
X266662500Y-106625000D03*
%TD*%
%TO.P,F0,1*%
%TO.N,/Unfused_Cell_0*%
X71437500Y-106625000D03*
%TO.P,F0,2*%
%TO.N,Cell0*%
X74412500Y-106625000D03*
%TD*%
D10*
%TO.P,PAD(2+)1,1,1*%
%TO.N,/Unfused_Cell_2*%
X80900000Y-102800000D03*
%TD*%
D15*
%TO.P,Cell(13+)1,1,1*%
%TO.N,Cell13+*%
X297575000Y-162900000D03*
%TD*%
D12*
%TO.P,F3,1*%
%TO.N,Cell3+*%
X111212500Y-162875000D03*
%TO.P,F3,2*%
%TO.N,/Unfused_Cell_3*%
X114187500Y-162875000D03*
%TD*%
%TO.P,F8,1*%
%TO.N,/Unfused_Cell_8*%
X187462500Y-106625000D03*
%TO.P,F8,2*%
%TO.N,Cell8+*%
X190437500Y-106625000D03*
%TD*%
D11*
%TO.P,F1,1*%
%TO.N,Cell1+*%
X76137500Y-162875000D03*
%TO.P,F1,2*%
%TO.N,/Unfused_Cell_1*%
X73162500Y-162875000D03*
%TD*%
D10*
%TO.P,PAD(18+)1,1,1*%
%TO.N,/Unfused_Cell_18*%
X345425000Y-102800000D03*
%TD*%
D15*
%TO.P,Cell(6+)1,1,1*%
%TO.N,Cell6+*%
X156525000Y-106625000D03*
%TD*%
D12*
%TO.P,F11,1*%
%TO.N,Cell11+*%
X263637500Y-162850000D03*
%TO.P,F11,2*%
%TO.N,/Unfused_Cell_11*%
X266612500Y-162850000D03*
%TD*%
D10*
%TO.P,PAD(5+)1,1,1*%
%TO.N,/Unfused_Cell_5*%
X150850000Y-166700000D03*
%TD*%
D15*
%TO.P,Cell(18+)1,1,1*%
%TO.N,Cell18+*%
X345450000Y-110375000D03*
%TD*%
D12*
%TO.P,F18,1*%
%TO.N,/Unfused_Cell_18*%
X343962500Y-106625000D03*
%TO.P,F18,2*%
%TO.N,Cell18+*%
X346937500Y-106625000D03*
%TD*%
D11*
%TO.P,F15,1*%
%TO.N,Cell15+*%
X340987500Y-162850000D03*
%TO.P,F15,2*%
%TO.N,/Unfused_Cell_15*%
X338012500Y-162850000D03*
%TD*%
D15*
%TO.P,Cell(10+)1,1,1*%
%TO.N,Cell10+*%
X232725000Y-106625000D03*
%TD*%
D10*
%TO.P,PAD(6+)1,1,1*%
%TO.N,/Unfused_Cell_6*%
X150850000Y-102800000D03*
%TD*%
D15*
%TO.P,Cell(1-)1,1,1*%
%TO.N,Cell0*%
X72925000Y-110325000D03*
%TD*%
D10*
%TO.P,PAD(9+)1,1,1*%
%TO.N,/Unfused_Cell_9*%
X227050000Y-166700000D03*
%TD*%
%TO.P,PAD(15+)1,1,1*%
%TO.N,/Unfused_Cell_15*%
X339550000Y-166700000D03*
%TD*%
D12*
%TO.P,F13,1*%
%TO.N,Cell13+*%
X301737500Y-162875000D03*
%TO.P,F13,2*%
%TO.N,/Unfused_Cell_13*%
X304712500Y-162875000D03*
%TD*%
D15*
%TO.P,Cell(7+)1,1,1*%
%TO.N,Cell7+*%
X183300000Y-162850000D03*
%TD*%
D12*
%TO.P,F5,1*%
%TO.N,Cell5+*%
X149337500Y-162875000D03*
%TO.P,F5,2*%
%TO.N,/Unfused_Cell_5*%
X152312500Y-162875000D03*
%TD*%
D15*
%TO.P,Cell(17+)1,1,1*%
%TO.N,Cell17+*%
X345395000Y-159120000D03*
%TD*%
D10*
%TO.P,PAD(7+)1,1,1*%
%TO.N,/Unfused_Cell_7*%
X188950000Y-166700000D03*
%TD*%
%TO.P,PAD(1-)1,1,1*%
%TO.N,/Unfused_Cell_0*%
X72950000Y-102800000D03*
%TD*%
D15*
%TO.P,Cell(15+)1,1,1*%
%TO.N,Cell15+*%
X339450000Y-159175000D03*
%TD*%
D10*
%TO.P,PAD(11+)1,1,1*%
%TO.N,/Unfused_Cell_11*%
X265150000Y-166700000D03*
%TD*%
D15*
%TO.P,Cell(4+)1,1,1*%
%TO.N,Cell4+*%
X118375000Y-106625000D03*
%TD*%
D10*
%TO.P,PAD(13+)1,1,1*%
%TO.N,/Unfused_Cell_13*%
X303250000Y-166700000D03*
%TD*%
D15*
%TO.P,Cell(1+)1,1,1*%
%TO.N,Cell1+*%
X74550000Y-159175000D03*
%TD*%
D12*
%TO.P,F6,1*%
%TO.N,/Unfused_Cell_6*%
X149387500Y-106625000D03*
%TO.P,F6,2*%
%TO.N,Cell6+*%
X152362500Y-106625000D03*
%TD*%
D15*
%TO.P,Cell(14+)1,1,1*%
%TO.N,Cell14+*%
X303275000Y-110275000D03*
%TD*%
D12*
%TO.P,F2,1*%
%TO.N,/Unfused_Cell_2*%
X79400000Y-106625000D03*
%TO.P,F2,2*%
%TO.N,Cell2+*%
X82375000Y-106625000D03*
%TD*%
D10*
%TO.P,PAD(4+)1,1,1*%
%TO.N,/Unfused_Cell_4*%
X112750000Y-102800000D03*
%TD*%
D18*
%TO.N,Cell1+*%
X123225000Y-151225000D03*
%TO.N,Cell0*%
X87000000Y-111250000D03*
X274650000Y-111250000D03*
%TO.N,Cell2+*%
X108250000Y-112000000D03*
X272825000Y-112000000D03*
%TO.N,Cell3+*%
X124366649Y-151125750D03*
%TO.N,Cell4+*%
X136000000Y-112750000D03*
X270850000Y-112750000D03*
%TO.N,Cell5+*%
X124675000Y-150175000D03*
%TO.N,Cell6+*%
X164250000Y-113500000D03*
X268900000Y-113500000D03*
%TO.N,Cell7+*%
X125900000Y-150150000D03*
%TO.N,Cell8+*%
X192750000Y-114250000D03*
X266850000Y-114250000D03*
%TO.N,Cell9+*%
X126150000Y-149150000D03*
%TO.N,Cell10+*%
X112500000Y-115000000D03*
X220762500Y-114987500D03*
%TO.N,Cell11+*%
X240925000Y-159175000D03*
X312250000Y-115775000D03*
%TO.N,Cell12+*%
X248512500Y-115737500D03*
X113250000Y-115750000D03*
%TO.N,Cell13+*%
X313100000Y-114600000D03*
X270125000Y-158375000D03*
%TO.N,Cell14+*%
X114000000Y-116500000D03*
X276500000Y-116500000D03*
%TO.N,Cell15+*%
X299100000Y-157600000D03*
X313875000Y-113400000D03*
%TO.N,Cell16+*%
X280925000Y-117275000D03*
X114831637Y-117224500D03*
%TO.N,Cell17+*%
X314750000Y-112225000D03*
X328100000Y-156850000D03*
%TO.N,Cell18+*%
X123250000Y-118000000D03*
X285800000Y-117949000D03*
X91025000Y-119250000D03*
%TD*%
D19*
%TO.N,Cell1+*%
X123225000Y-151225000D02*
X125175000Y-153175000D01*
X125175000Y-155250000D02*
X123425000Y-157000000D01*
X125175000Y-153175000D02*
X125175000Y-155250000D01*
X74550000Y-161287500D02*
X76137500Y-162875000D01*
X74550000Y-159175000D02*
X74550000Y-161287500D01*
X76725000Y-157000000D02*
X74550000Y-159175000D01*
X123425000Y-157000000D02*
X76725000Y-157000000D01*
%TO.N,/Unfused_Cell_1*%
X74650000Y-164362500D02*
X74650000Y-166700000D01*
X73162500Y-162875000D02*
X74650000Y-164362500D01*
%TO.N,/Unfused_Cell_0*%
X72950000Y-105112500D02*
X71437500Y-106625000D01*
X72950000Y-102800000D02*
X72950000Y-105112500D01*
%TO.N,Cell0*%
X87000000Y-111250000D02*
X87000000Y-134250000D01*
D20*
X280200000Y-105700000D02*
X280200000Y-98425000D01*
D19*
X87000000Y-134250000D02*
X101000000Y-148250000D01*
D20*
X274650000Y-111250000D02*
X280200000Y-105700000D01*
X279175000Y-91860000D02*
X280450000Y-90585000D01*
D19*
X72925000Y-108112500D02*
X72925000Y-110325000D01*
X72925000Y-110325000D02*
X72925000Y-114150000D01*
D20*
X280200000Y-98425000D02*
X279175000Y-97400000D01*
D19*
X74412500Y-106625000D02*
X72925000Y-108112500D01*
X101000000Y-148250000D02*
X117835000Y-148250000D01*
X72925000Y-110325000D02*
X86075000Y-110325000D01*
X72925000Y-114150000D02*
X74625000Y-115850000D01*
D20*
X279175000Y-97400000D02*
X279175000Y-91860000D01*
D19*
X86075000Y-110325000D02*
X87000000Y-111250000D01*
%TO.N,/Unfused_Cell_2*%
X80900000Y-102800000D02*
X80900000Y-105125000D01*
X80900000Y-105125000D02*
X79400000Y-106625000D01*
D20*
%TO.N,Cell2+*%
X278725000Y-106025000D02*
X278725000Y-90125000D01*
D19*
X82375000Y-106625000D02*
X86550000Y-106625000D01*
D20*
X285165000Y-89300000D02*
X286450000Y-90585000D01*
D19*
X115750000Y-146250000D02*
X115750000Y-144335000D01*
X86550000Y-106625000D02*
X102875000Y-106625000D01*
X87750000Y-134000000D02*
X101250000Y-147500000D01*
X101250000Y-147500000D02*
X114500000Y-147500000D01*
D20*
X272825000Y-111925000D02*
X278725000Y-106025000D01*
D19*
X88750000Y-112000000D02*
X87750000Y-113000000D01*
X114500000Y-147500000D02*
X115750000Y-146250000D01*
D20*
X272825000Y-112000000D02*
X272825000Y-111925000D01*
X279550000Y-89300000D02*
X285165000Y-89300000D01*
X278725000Y-90125000D02*
X279550000Y-89300000D01*
D19*
X87750000Y-113000000D02*
X87750000Y-134000000D01*
X115750000Y-144335000D02*
X117835000Y-142250000D01*
X102875000Y-106625000D02*
X108250000Y-112000000D01*
X108150000Y-112000000D02*
X88750000Y-112000000D01*
%TO.N,Cell3+*%
X109475000Y-160450000D02*
X107050000Y-162875000D01*
X125875000Y-155650000D02*
X121075000Y-160450000D01*
X121075000Y-160450000D02*
X109475000Y-160450000D01*
X107050000Y-162875000D02*
X111212500Y-162875000D01*
X124375750Y-151125750D02*
X125875000Y-152625000D01*
X125875000Y-152625000D02*
X125875000Y-155650000D01*
X124366649Y-151125750D02*
X124375750Y-151125750D01*
%TO.N,/Unfused_Cell_3*%
X112750000Y-164312500D02*
X112750000Y-166700000D01*
X114187500Y-162875000D02*
X112750000Y-164312500D01*
%TO.N,/Unfused_Cell_4*%
X112750000Y-102800000D02*
X112750000Y-105112500D01*
X112750000Y-105112500D02*
X111237500Y-106625000D01*
%TO.N,Cell4+*%
X88500000Y-113250000D02*
X88500000Y-133625000D01*
X88500000Y-133625000D02*
X101625000Y-146750000D01*
D20*
X290665000Y-88800000D02*
X292450000Y-90585000D01*
D19*
X101625000Y-146750000D02*
X114000000Y-146750000D01*
X114000000Y-146750000D02*
X115000000Y-145750000D01*
X114212500Y-106625000D02*
X118375000Y-106625000D01*
D20*
X277250000Y-106350000D02*
X277250000Y-90950000D01*
D19*
X89000000Y-112750000D02*
X88500000Y-113250000D01*
D20*
X277250000Y-90950000D02*
X279400000Y-88800000D01*
D19*
X115000000Y-139085000D02*
X117835000Y-136250000D01*
D20*
X279400000Y-88800000D02*
X290665000Y-88800000D01*
D19*
X118375000Y-106625000D02*
X129875000Y-106625000D01*
X129875000Y-106625000D02*
X136000000Y-112750000D01*
X136000000Y-112750000D02*
X89000000Y-112750000D01*
X115000000Y-145750000D02*
X115000000Y-139085000D01*
D20*
X270850000Y-112750000D02*
X277250000Y-106350000D01*
D19*
%TO.N,Cell5+*%
X143800000Y-161500000D02*
X145175000Y-162875000D01*
X145175000Y-162875000D02*
X149337500Y-162875000D01*
X136000000Y-161500000D02*
X143800000Y-161500000D01*
X124675000Y-150175000D02*
X136000000Y-161500000D01*
%TO.N,/Unfused_Cell_5*%
X150850000Y-164337500D02*
X150850000Y-166700000D01*
X152312500Y-162875000D02*
X150850000Y-164337500D01*
%TO.N,/Unfused_Cell_6*%
X150850000Y-102800000D02*
X150850000Y-105162500D01*
X150850000Y-105162500D02*
X149387500Y-106625000D01*
%TO.N,Cell6+*%
X113500000Y-146000000D02*
X114250000Y-145250000D01*
X114250000Y-133835000D02*
X117835000Y-130250000D01*
X89250000Y-114000000D02*
X89250000Y-133250000D01*
D20*
X276600000Y-97500000D02*
X276600000Y-90900000D01*
D19*
X157375000Y-106625000D02*
X164250000Y-113500000D01*
D20*
X275750000Y-106625000D02*
X275750000Y-98350000D01*
D19*
X102000000Y-146000000D02*
X113500000Y-146000000D01*
X89250000Y-133250000D02*
X102000000Y-146000000D01*
D20*
X268900000Y-113500000D02*
X268900000Y-113475000D01*
X275750000Y-98350000D02*
X276600000Y-97500000D01*
D19*
X94000000Y-113500000D02*
X89750000Y-113500000D01*
D20*
X268900000Y-113475000D02*
X275750000Y-106625000D01*
D19*
X89750000Y-113500000D02*
X89250000Y-114000000D01*
D20*
X276600000Y-90900000D02*
X279125000Y-88375000D01*
D19*
X114250000Y-145250000D02*
X114250000Y-133835000D01*
X152362500Y-106625000D02*
X156525000Y-106625000D01*
X156525000Y-106625000D02*
X157375000Y-106625000D01*
X164250000Y-113500000D02*
X94000000Y-113500000D01*
D20*
X296240000Y-88375000D02*
X298450000Y-90585000D01*
X279125000Y-88375000D02*
X296240000Y-88375000D01*
D19*
%TO.N,Cell7+*%
X183300000Y-162850000D02*
X187462500Y-162850000D01*
X136475000Y-160725000D02*
X181175000Y-160725000D01*
X181175000Y-160725000D02*
X183300000Y-162850000D01*
X125900000Y-150150000D02*
X136475000Y-160725000D01*
%TO.N,/Unfused_Cell_7*%
X190437500Y-162850000D02*
X188950000Y-164337500D01*
X188950000Y-164337500D02*
X188950000Y-166700000D01*
%TO.N,/Unfused_Cell_8*%
X188950000Y-102800000D02*
X188950000Y-105137500D01*
X188950000Y-105137500D02*
X187462500Y-106625000D01*
D20*
%TO.N,Cell8+*%
X276050000Y-96475000D02*
X276050000Y-85525000D01*
X276050000Y-85525000D02*
X277525000Y-84050000D01*
X301665000Y-87800000D02*
X304450000Y-90585000D01*
D19*
X113250000Y-145250000D02*
X113500000Y-145000000D01*
X113500000Y-128585000D02*
X117835000Y-124250000D01*
X90250000Y-114250000D02*
X90000000Y-114500000D01*
D20*
X274250000Y-106850000D02*
X274250000Y-98275000D01*
X279350000Y-84050000D02*
X283100000Y-87800000D01*
X283100000Y-87800000D02*
X301665000Y-87800000D01*
D19*
X90000000Y-114500000D02*
X90000000Y-132750000D01*
X194600000Y-112400000D02*
X192750000Y-114250000D01*
X90000000Y-132750000D02*
X102500000Y-145250000D01*
D20*
X266850000Y-114250000D02*
X274250000Y-106850000D01*
X277525000Y-84050000D02*
X279350000Y-84050000D01*
D19*
X192500000Y-114250000D02*
X90250000Y-114250000D01*
X102500000Y-145250000D02*
X113250000Y-145250000D01*
X194600000Y-106625000D02*
X194600000Y-112400000D01*
X190437500Y-106625000D02*
X194600000Y-106625000D01*
D20*
X274250000Y-98275000D02*
X276050000Y-96475000D01*
D19*
X113500000Y-145000000D02*
X113500000Y-128585000D01*
%TO.N,Cell9+*%
X221375000Y-162875000D02*
X225537500Y-162875000D01*
X218425000Y-159925000D02*
X221375000Y-162875000D01*
X126150000Y-149150000D02*
X136925000Y-159925000D01*
X136925000Y-159925000D02*
X218425000Y-159925000D01*
%TO.N,/Unfused_Cell_9*%
X228512500Y-162875000D02*
X227050000Y-164337500D01*
X227050000Y-164337500D02*
X227050000Y-166700000D01*
%TO.N,/Unfused_Cell_10*%
X227050000Y-105162500D02*
X225587500Y-106625000D01*
X227050000Y-102800000D02*
X227050000Y-105162500D01*
%TO.N,Cell10+*%
X220750000Y-115000000D02*
X220762500Y-114987500D01*
X228562500Y-106625000D02*
X232725000Y-106625000D01*
X232725000Y-106625000D02*
X224375000Y-114975000D01*
X112500000Y-115000000D02*
X220750000Y-115000000D01*
X224375000Y-114975000D02*
X220775000Y-114975000D01*
X220775000Y-114975000D02*
X220762500Y-114987500D01*
%TO.N,Cell11+*%
X123500000Y-145250000D02*
X120835000Y-145250000D01*
X287340000Y-97475000D02*
X283450000Y-93585000D01*
X259475000Y-162850000D02*
X263637500Y-162850000D01*
X312225000Y-115775000D02*
X309200000Y-112750000D01*
X308400000Y-97475000D02*
X287340000Y-97475000D01*
X240925000Y-159175000D02*
X137425000Y-159175000D01*
X255800000Y-159175000D02*
X259475000Y-162850000D01*
X309200000Y-98275000D02*
X308400000Y-97475000D01*
X240925000Y-159175000D02*
X255800000Y-159175000D01*
X137425000Y-159175000D02*
X123500000Y-145250000D01*
X309200000Y-112750000D02*
X309200000Y-98275000D01*
X312250000Y-115775000D02*
X312225000Y-115775000D01*
%TO.N,/Unfused_Cell_11*%
X265150000Y-164312500D02*
X265150000Y-166700000D01*
X266612500Y-162850000D02*
X265150000Y-164312500D01*
%TO.N,/Unfused_Cell_12*%
X265150000Y-105162500D02*
X263687500Y-106625000D01*
X265150000Y-102800000D02*
X265150000Y-105162500D01*
%TO.N,Cell12+*%
X261712500Y-115737500D02*
X248512500Y-115737500D01*
X266662500Y-106625000D02*
X270825000Y-106625000D01*
X270825000Y-106625000D02*
X261712500Y-115737500D01*
X113250000Y-115750000D02*
X248500000Y-115750000D01*
X248500000Y-115750000D02*
X248512500Y-115737500D01*
%TO.N,Cell13+*%
X309825000Y-96825000D02*
X292690000Y-96825000D01*
X292690000Y-96825000D02*
X289450000Y-93585000D01*
X270125000Y-158375000D02*
X293050000Y-158375000D01*
X310700000Y-97700000D02*
X309825000Y-96825000D01*
X124250000Y-144750000D02*
X124250000Y-142665000D01*
X137875000Y-158375000D02*
X124250000Y-144750000D01*
X301712500Y-162900000D02*
X301737500Y-162875000D01*
X124250000Y-142665000D02*
X120835000Y-139250000D01*
X310700000Y-112200000D02*
X310700000Y-97700000D01*
X313100000Y-114600000D02*
X310700000Y-112200000D01*
X297575000Y-162900000D02*
X301712500Y-162900000D01*
X293050000Y-158375000D02*
X297575000Y-162900000D01*
X270125000Y-158375000D02*
X137875000Y-158375000D01*
%TO.N,/Unfused_Cell_13*%
X304712500Y-162875000D02*
X303250000Y-164337500D01*
X303250000Y-164337500D02*
X303250000Y-166700000D01*
%TO.N,/Unfused_Cell_14*%
X303250000Y-102800000D02*
X303250000Y-105137500D01*
X303250000Y-105137500D02*
X301762500Y-106625000D01*
%TO.N,Cell14+*%
X303275000Y-108087500D02*
X303275000Y-110275000D01*
X297050000Y-116500000D02*
X276500000Y-116500000D01*
X303275000Y-110275000D02*
X297050000Y-116500000D01*
X114000000Y-116500000D02*
X276500000Y-116500000D01*
X304737500Y-106625000D02*
X303275000Y-108087500D01*
%TO.N,Cell15+*%
X312200000Y-98225000D02*
X310125000Y-96150000D01*
X125000000Y-137415000D02*
X120835000Y-133250000D01*
X125000000Y-144250000D02*
X125000000Y-137415000D01*
X299100000Y-157600000D02*
X138350000Y-157600000D01*
X298015000Y-96150000D02*
X295450000Y-93585000D01*
X312200000Y-111725000D02*
X312200000Y-98225000D01*
X310125000Y-96150000D02*
X298015000Y-96150000D01*
X339450000Y-161312500D02*
X340987500Y-162850000D01*
X138350000Y-157600000D02*
X125000000Y-144250000D01*
X337875000Y-157600000D02*
X299100000Y-157600000D01*
X313875000Y-113400000D02*
X312200000Y-111725000D01*
X339450000Y-159175000D02*
X337875000Y-157600000D01*
X339450000Y-159175000D02*
X339450000Y-161312500D01*
%TO.N,/Unfused_Cell_15*%
X339550000Y-164387500D02*
X339550000Y-166700000D01*
X338012500Y-162850000D02*
X339550000Y-164387500D01*
%TO.N,/Unfused_Cell_16*%
X339550000Y-105137500D02*
X338062500Y-106625000D01*
X339550000Y-102800000D02*
X339550000Y-105137500D01*
%TO.N,Cell16+*%
X280900000Y-117250000D02*
X114857137Y-117250000D01*
X280925000Y-117275000D02*
X280975500Y-117224500D01*
X280975500Y-117224500D02*
X332650500Y-117224500D01*
X339500000Y-108162500D02*
X339500000Y-110375000D01*
X341037500Y-106625000D02*
X339500000Y-108162500D01*
X280925000Y-117275000D02*
X280900000Y-117250000D01*
X332650500Y-117224500D02*
X339500000Y-110375000D01*
X114857137Y-117250000D02*
X114831637Y-117224500D01*
%TO.N,Cell17+*%
X303340000Y-95475000D02*
X301450000Y-93585000D01*
X310383225Y-95475000D02*
X303340000Y-95475000D01*
X138900000Y-156850000D02*
X125750000Y-143700000D01*
X313725000Y-111200000D02*
X313725000Y-98816775D01*
X313725000Y-98816775D02*
X310383225Y-95475000D01*
X345395000Y-161357500D02*
X346862500Y-162825000D01*
X328100000Y-156850000D02*
X343125000Y-156850000D01*
X343125000Y-156850000D02*
X345395000Y-159120000D01*
X328100000Y-156850000D02*
X138900000Y-156850000D01*
X125750000Y-132165000D02*
X120835000Y-127250000D01*
X125750000Y-143700000D02*
X125750000Y-132165000D01*
X314750000Y-112225000D02*
X313725000Y-111200000D01*
X345395000Y-159120000D02*
X345395000Y-161357500D01*
%TO.N,/Unfused_Cell_17*%
X345425000Y-164362500D02*
X345425000Y-166700000D01*
X343887500Y-162825000D02*
X345425000Y-164362500D01*
%TO.N,/Unfused_Cell_18*%
X343962500Y-106625000D02*
X345425000Y-105162500D01*
X345425000Y-105162500D02*
X345425000Y-102800000D01*
%TO.N,Cell18+*%
X123250000Y-118125000D02*
X122150000Y-119225000D01*
X285851000Y-118000000D02*
X337825000Y-118000000D01*
X345450000Y-108112500D02*
X346937500Y-106625000D01*
X345450000Y-110375000D02*
X345450000Y-108112500D01*
X299850000Y-118000000D02*
X123250000Y-118000000D01*
X337825000Y-118000000D02*
X345450000Y-110375000D01*
X122150000Y-119225000D02*
X91050000Y-119225000D01*
X91050000Y-119225000D02*
X91025000Y-119250000D01*
X123250000Y-118000000D02*
X123250000Y-118125000D01*
X285800000Y-117949000D02*
X285851000Y-118000000D01*
X304450000Y-93585000D02*
X307450000Y-93585000D01*
%TD*%
M02*
