%TF.GenerationSoftware,KiCad,Pcbnew,(6.0.7)*%
%TF.CreationDate,2023-02-26T17:44:05-06:00*%
%TF.ProjectId,Vsense,5673656e-7365-42e6-9b69-6361645f7063,rev?*%
%TF.SameCoordinates,Original*%
%TF.FileFunction,Legend,Top*%
%TF.FilePolarity,Positive*%
%FSLAX46Y46*%
G04 Gerber Fmt 4.6, Leading zero omitted, Abs format (unit mm)*
G04 Created by KiCad (PCBNEW (6.0.7)) date 2023-02-26 17:44:05*
%MOMM*%
%LPD*%
G01*
G04 APERTURE LIST*
%ADD10C,0.150000*%
%ADD11C,0.120000*%
G04 APERTURE END LIST*
D10*
%TO.C,F17*%
X344560476Y-161073571D02*
X344227142Y-161073571D01*
X344227142Y-161597380D02*
X344227142Y-160597380D01*
X344703333Y-160597380D01*
X345608095Y-161597380D02*
X345036666Y-161597380D01*
X345322380Y-161597380D02*
X345322380Y-160597380D01*
X345227142Y-160740238D01*
X345131904Y-160835476D01*
X345036666Y-160883095D01*
X345941428Y-160597380D02*
X346608095Y-160597380D01*
X346179523Y-161597380D01*
%TO.C,F14*%
X302440476Y-108228571D02*
X302107142Y-108228571D01*
X302107142Y-108752380D02*
X302107142Y-107752380D01*
X302583333Y-107752380D01*
X303488095Y-108752380D02*
X302916666Y-108752380D01*
X303202380Y-108752380D02*
X303202380Y-107752380D01*
X303107142Y-107895238D01*
X303011904Y-107990476D01*
X302916666Y-108038095D01*
X304345238Y-108085714D02*
X304345238Y-108752380D01*
X304107142Y-107704761D02*
X303869047Y-108419047D01*
X304488095Y-108419047D01*
%TO.C,F16*%
X338740476Y-108303571D02*
X338407142Y-108303571D01*
X338407142Y-108827380D02*
X338407142Y-107827380D01*
X338883333Y-107827380D01*
X339788095Y-108827380D02*
X339216666Y-108827380D01*
X339502380Y-108827380D02*
X339502380Y-107827380D01*
X339407142Y-107970238D01*
X339311904Y-108065476D01*
X339216666Y-108113095D01*
X340645238Y-107827380D02*
X340454761Y-107827380D01*
X340359523Y-107875000D01*
X340311904Y-107922619D01*
X340216666Y-108065476D01*
X340169047Y-108255952D01*
X340169047Y-108636904D01*
X340216666Y-108732142D01*
X340264285Y-108779761D01*
X340359523Y-108827380D01*
X340550000Y-108827380D01*
X340645238Y-108779761D01*
X340692857Y-108732142D01*
X340740476Y-108636904D01*
X340740476Y-108398809D01*
X340692857Y-108303571D01*
X340645238Y-108255952D01*
X340550000Y-108208333D01*
X340359523Y-108208333D01*
X340264285Y-108255952D01*
X340216666Y-108303571D01*
X340169047Y-108398809D01*
%TO.C,F7*%
X188616666Y-161153571D02*
X188283333Y-161153571D01*
X188283333Y-161677380D02*
X188283333Y-160677380D01*
X188759523Y-160677380D01*
X189045238Y-160677380D02*
X189711904Y-160677380D01*
X189283333Y-161677380D01*
%TO.C,VSense1*%
X113952380Y-149500000D02*
X114952380Y-149166666D01*
X113952380Y-148833333D01*
X114904761Y-148547619D02*
X114952380Y-148404761D01*
X114952380Y-148166666D01*
X114904761Y-148071428D01*
X114857142Y-148023809D01*
X114761904Y-147976190D01*
X114666666Y-147976190D01*
X114571428Y-148023809D01*
X114523809Y-148071428D01*
X114476190Y-148166666D01*
X114428571Y-148357142D01*
X114380952Y-148452380D01*
X114333333Y-148500000D01*
X114238095Y-148547619D01*
X114142857Y-148547619D01*
X114047619Y-148500000D01*
X114000000Y-148452380D01*
X113952380Y-148357142D01*
X113952380Y-148119047D01*
X114000000Y-147976190D01*
X114904761Y-147166666D02*
X114952380Y-147261904D01*
X114952380Y-147452380D01*
X114904761Y-147547619D01*
X114809523Y-147595238D01*
X114428571Y-147595238D01*
X114333333Y-147547619D01*
X114285714Y-147452380D01*
X114285714Y-147261904D01*
X114333333Y-147166666D01*
X114428571Y-147119047D01*
X114523809Y-147119047D01*
X114619047Y-147595238D01*
X114285714Y-146690476D02*
X114952380Y-146690476D01*
X114380952Y-146690476D02*
X114333333Y-146642857D01*
X114285714Y-146547619D01*
X114285714Y-146404761D01*
X114333333Y-146309523D01*
X114428571Y-146261904D01*
X114952380Y-146261904D01*
X114904761Y-145833333D02*
X114952380Y-145738095D01*
X114952380Y-145547619D01*
X114904761Y-145452380D01*
X114809523Y-145404761D01*
X114761904Y-145404761D01*
X114666666Y-145452380D01*
X114619047Y-145547619D01*
X114619047Y-145690476D01*
X114571428Y-145785714D01*
X114476190Y-145833333D01*
X114428571Y-145833333D01*
X114333333Y-145785714D01*
X114285714Y-145690476D01*
X114285714Y-145547619D01*
X114333333Y-145452380D01*
X114904761Y-144595238D02*
X114952380Y-144690476D01*
X114952380Y-144880952D01*
X114904761Y-144976190D01*
X114809523Y-145023809D01*
X114428571Y-145023809D01*
X114333333Y-144976190D01*
X114285714Y-144880952D01*
X114285714Y-144690476D01*
X114333333Y-144595238D01*
X114428571Y-144547619D01*
X114523809Y-144547619D01*
X114619047Y-145023809D01*
X114952380Y-143595238D02*
X114952380Y-144166666D01*
X114952380Y-143880952D02*
X113952380Y-143880952D01*
X114095238Y-143976190D01*
X114190476Y-144071428D01*
X114238095Y-144166666D01*
%TO.C,Cell(8+)1*%
X192482142Y-105655952D02*
X192529761Y-105703571D01*
X192577380Y-105846428D01*
X192577380Y-105941666D01*
X192529761Y-106084523D01*
X192434523Y-106179761D01*
X192339285Y-106227380D01*
X192148809Y-106275000D01*
X192005952Y-106275000D01*
X191815476Y-106227380D01*
X191720238Y-106179761D01*
X191625000Y-106084523D01*
X191577380Y-105941666D01*
X191577380Y-105846428D01*
X191625000Y-105703571D01*
X191672619Y-105655952D01*
X192529761Y-104846428D02*
X192577380Y-104941666D01*
X192577380Y-105132142D01*
X192529761Y-105227380D01*
X192434523Y-105275000D01*
X192053571Y-105275000D01*
X191958333Y-105227380D01*
X191910714Y-105132142D01*
X191910714Y-104941666D01*
X191958333Y-104846428D01*
X192053571Y-104798809D01*
X192148809Y-104798809D01*
X192244047Y-105275000D01*
X192577380Y-104227380D02*
X192529761Y-104322619D01*
X192434523Y-104370238D01*
X191577380Y-104370238D01*
X192577380Y-103703571D02*
X192529761Y-103798809D01*
X192434523Y-103846428D01*
X191577380Y-103846428D01*
X192958333Y-103036904D02*
X192910714Y-103084523D01*
X192767857Y-103179761D01*
X192672619Y-103227380D01*
X192529761Y-103275000D01*
X192291666Y-103322619D01*
X192101190Y-103322619D01*
X191863095Y-103275000D01*
X191720238Y-103227380D01*
X191625000Y-103179761D01*
X191482142Y-103084523D01*
X191434523Y-103036904D01*
X192005952Y-102513095D02*
X191958333Y-102608333D01*
X191910714Y-102655952D01*
X191815476Y-102703571D01*
X191767857Y-102703571D01*
X191672619Y-102655952D01*
X191625000Y-102608333D01*
X191577380Y-102513095D01*
X191577380Y-102322619D01*
X191625000Y-102227380D01*
X191672619Y-102179761D01*
X191767857Y-102132142D01*
X191815476Y-102132142D01*
X191910714Y-102179761D01*
X191958333Y-102227380D01*
X192005952Y-102322619D01*
X192005952Y-102513095D01*
X192053571Y-102608333D01*
X192101190Y-102655952D01*
X192196428Y-102703571D01*
X192386904Y-102703571D01*
X192482142Y-102655952D01*
X192529761Y-102608333D01*
X192577380Y-102513095D01*
X192577380Y-102322619D01*
X192529761Y-102227380D01*
X192482142Y-102179761D01*
X192386904Y-102132142D01*
X192196428Y-102132142D01*
X192101190Y-102179761D01*
X192053571Y-102227380D01*
X192005952Y-102322619D01*
X192196428Y-101703571D02*
X192196428Y-100941666D01*
X192577380Y-101322619D02*
X191815476Y-101322619D01*
X192958333Y-100560714D02*
X192910714Y-100513095D01*
X192767857Y-100417857D01*
X192672619Y-100370238D01*
X192529761Y-100322619D01*
X192291666Y-100275000D01*
X192101190Y-100275000D01*
X191863095Y-100322619D01*
X191720238Y-100370238D01*
X191625000Y-100417857D01*
X191482142Y-100513095D01*
X191434523Y-100560714D01*
X192577380Y-99275000D02*
X192577380Y-99846428D01*
X192577380Y-99560714D02*
X191577380Y-99560714D01*
X191720238Y-99655952D01*
X191815476Y-99751190D01*
X191863095Y-99846428D01*
%TO.C,Cell(3+)1*%
X109607142Y-169455952D02*
X109654761Y-169503571D01*
X109702380Y-169646428D01*
X109702380Y-169741666D01*
X109654761Y-169884523D01*
X109559523Y-169979761D01*
X109464285Y-170027380D01*
X109273809Y-170075000D01*
X109130952Y-170075000D01*
X108940476Y-170027380D01*
X108845238Y-169979761D01*
X108750000Y-169884523D01*
X108702380Y-169741666D01*
X108702380Y-169646428D01*
X108750000Y-169503571D01*
X108797619Y-169455952D01*
X109654761Y-168646428D02*
X109702380Y-168741666D01*
X109702380Y-168932142D01*
X109654761Y-169027380D01*
X109559523Y-169075000D01*
X109178571Y-169075000D01*
X109083333Y-169027380D01*
X109035714Y-168932142D01*
X109035714Y-168741666D01*
X109083333Y-168646428D01*
X109178571Y-168598809D01*
X109273809Y-168598809D01*
X109369047Y-169075000D01*
X109702380Y-168027380D02*
X109654761Y-168122619D01*
X109559523Y-168170238D01*
X108702380Y-168170238D01*
X109702380Y-167503571D02*
X109654761Y-167598809D01*
X109559523Y-167646428D01*
X108702380Y-167646428D01*
X110083333Y-166836904D02*
X110035714Y-166884523D01*
X109892857Y-166979761D01*
X109797619Y-167027380D01*
X109654761Y-167075000D01*
X109416666Y-167122619D01*
X109226190Y-167122619D01*
X108988095Y-167075000D01*
X108845238Y-167027380D01*
X108750000Y-166979761D01*
X108607142Y-166884523D01*
X108559523Y-166836904D01*
X108702380Y-166551190D02*
X108702380Y-165932142D01*
X109083333Y-166265476D01*
X109083333Y-166122619D01*
X109130952Y-166027380D01*
X109178571Y-165979761D01*
X109273809Y-165932142D01*
X109511904Y-165932142D01*
X109607142Y-165979761D01*
X109654761Y-166027380D01*
X109702380Y-166122619D01*
X109702380Y-166408333D01*
X109654761Y-166503571D01*
X109607142Y-166551190D01*
X109321428Y-165503571D02*
X109321428Y-164741666D01*
X109702380Y-165122619D02*
X108940476Y-165122619D01*
X110083333Y-164360714D02*
X110035714Y-164313095D01*
X109892857Y-164217857D01*
X109797619Y-164170238D01*
X109654761Y-164122619D01*
X109416666Y-164075000D01*
X109226190Y-164075000D01*
X108988095Y-164122619D01*
X108845238Y-164170238D01*
X108750000Y-164217857D01*
X108607142Y-164313095D01*
X108559523Y-164360714D01*
X109702380Y-163075000D02*
X109702380Y-163646428D01*
X109702380Y-163360714D02*
X108702380Y-163360714D01*
X108845238Y-163455952D01*
X108940476Y-163551190D01*
X108988095Y-163646428D01*
%TO.C,F9*%
X226691666Y-164453571D02*
X226358333Y-164453571D01*
X226358333Y-164977380D02*
X226358333Y-163977380D01*
X226834523Y-163977380D01*
X227263095Y-164977380D02*
X227453571Y-164977380D01*
X227548809Y-164929761D01*
X227596428Y-164882142D01*
X227691666Y-164739285D01*
X227739285Y-164548809D01*
X227739285Y-164167857D01*
X227691666Y-164072619D01*
X227644047Y-164025000D01*
X227548809Y-163977380D01*
X227358333Y-163977380D01*
X227263095Y-164025000D01*
X227215476Y-164072619D01*
X227167857Y-164167857D01*
X227167857Y-164405952D01*
X227215476Y-164501190D01*
X227263095Y-164548809D01*
X227358333Y-164596428D01*
X227548809Y-164596428D01*
X227644047Y-164548809D01*
X227691666Y-164501190D01*
X227739285Y-164405952D01*
%TO.C,F4*%
X112391666Y-108253571D02*
X112058333Y-108253571D01*
X112058333Y-108777380D02*
X112058333Y-107777380D01*
X112534523Y-107777380D01*
X113344047Y-108110714D02*
X113344047Y-108777380D01*
X113105952Y-107729761D02*
X112867857Y-108444047D01*
X113486904Y-108444047D01*
%TO.C,Cell(9+)1*%
X223932142Y-169555952D02*
X223979761Y-169603571D01*
X224027380Y-169746428D01*
X224027380Y-169841666D01*
X223979761Y-169984523D01*
X223884523Y-170079761D01*
X223789285Y-170127380D01*
X223598809Y-170175000D01*
X223455952Y-170175000D01*
X223265476Y-170127380D01*
X223170238Y-170079761D01*
X223075000Y-169984523D01*
X223027380Y-169841666D01*
X223027380Y-169746428D01*
X223075000Y-169603571D01*
X223122619Y-169555952D01*
X223979761Y-168746428D02*
X224027380Y-168841666D01*
X224027380Y-169032142D01*
X223979761Y-169127380D01*
X223884523Y-169175000D01*
X223503571Y-169175000D01*
X223408333Y-169127380D01*
X223360714Y-169032142D01*
X223360714Y-168841666D01*
X223408333Y-168746428D01*
X223503571Y-168698809D01*
X223598809Y-168698809D01*
X223694047Y-169175000D01*
X224027380Y-168127380D02*
X223979761Y-168222619D01*
X223884523Y-168270238D01*
X223027380Y-168270238D01*
X224027380Y-167603571D02*
X223979761Y-167698809D01*
X223884523Y-167746428D01*
X223027380Y-167746428D01*
X224408333Y-166936904D02*
X224360714Y-166984523D01*
X224217857Y-167079761D01*
X224122619Y-167127380D01*
X223979761Y-167175000D01*
X223741666Y-167222619D01*
X223551190Y-167222619D01*
X223313095Y-167175000D01*
X223170238Y-167127380D01*
X223075000Y-167079761D01*
X222932142Y-166984523D01*
X222884523Y-166936904D01*
X224027380Y-166508333D02*
X224027380Y-166317857D01*
X223979761Y-166222619D01*
X223932142Y-166175000D01*
X223789285Y-166079761D01*
X223598809Y-166032142D01*
X223217857Y-166032142D01*
X223122619Y-166079761D01*
X223075000Y-166127380D01*
X223027380Y-166222619D01*
X223027380Y-166413095D01*
X223075000Y-166508333D01*
X223122619Y-166555952D01*
X223217857Y-166603571D01*
X223455952Y-166603571D01*
X223551190Y-166555952D01*
X223598809Y-166508333D01*
X223646428Y-166413095D01*
X223646428Y-166222619D01*
X223598809Y-166127380D01*
X223551190Y-166079761D01*
X223455952Y-166032142D01*
X223646428Y-165603571D02*
X223646428Y-164841666D01*
X224027380Y-165222619D02*
X223265476Y-165222619D01*
X224408333Y-164460714D02*
X224360714Y-164413095D01*
X224217857Y-164317857D01*
X224122619Y-164270238D01*
X223979761Y-164222619D01*
X223741666Y-164175000D01*
X223551190Y-164175000D01*
X223313095Y-164222619D01*
X223170238Y-164270238D01*
X223075000Y-164317857D01*
X222932142Y-164413095D01*
X222884523Y-164460714D01*
X224027380Y-163175000D02*
X224027380Y-163746428D01*
X224027380Y-163460714D02*
X223027380Y-163460714D01*
X223170238Y-163555952D01*
X223265476Y-163651190D01*
X223313095Y-163746428D01*
%TO.C,Cell(16+)1*%
X336582142Y-106732142D02*
X336629761Y-106779761D01*
X336677380Y-106922619D01*
X336677380Y-107017857D01*
X336629761Y-107160714D01*
X336534523Y-107255952D01*
X336439285Y-107303571D01*
X336248809Y-107351190D01*
X336105952Y-107351190D01*
X335915476Y-107303571D01*
X335820238Y-107255952D01*
X335725000Y-107160714D01*
X335677380Y-107017857D01*
X335677380Y-106922619D01*
X335725000Y-106779761D01*
X335772619Y-106732142D01*
X336629761Y-105922619D02*
X336677380Y-106017857D01*
X336677380Y-106208333D01*
X336629761Y-106303571D01*
X336534523Y-106351190D01*
X336153571Y-106351190D01*
X336058333Y-106303571D01*
X336010714Y-106208333D01*
X336010714Y-106017857D01*
X336058333Y-105922619D01*
X336153571Y-105875000D01*
X336248809Y-105875000D01*
X336344047Y-106351190D01*
X336677380Y-105303571D02*
X336629761Y-105398809D01*
X336534523Y-105446428D01*
X335677380Y-105446428D01*
X336677380Y-104779761D02*
X336629761Y-104875000D01*
X336534523Y-104922619D01*
X335677380Y-104922619D01*
X337058333Y-104113095D02*
X337010714Y-104160714D01*
X336867857Y-104255952D01*
X336772619Y-104303571D01*
X336629761Y-104351190D01*
X336391666Y-104398809D01*
X336201190Y-104398809D01*
X335963095Y-104351190D01*
X335820238Y-104303571D01*
X335725000Y-104255952D01*
X335582142Y-104160714D01*
X335534523Y-104113095D01*
X336677380Y-103208333D02*
X336677380Y-103779761D01*
X336677380Y-103494047D02*
X335677380Y-103494047D01*
X335820238Y-103589285D01*
X335915476Y-103684523D01*
X335963095Y-103779761D01*
X335677380Y-102351190D02*
X335677380Y-102541666D01*
X335725000Y-102636904D01*
X335772619Y-102684523D01*
X335915476Y-102779761D01*
X336105952Y-102827380D01*
X336486904Y-102827380D01*
X336582142Y-102779761D01*
X336629761Y-102732142D01*
X336677380Y-102636904D01*
X336677380Y-102446428D01*
X336629761Y-102351190D01*
X336582142Y-102303571D01*
X336486904Y-102255952D01*
X336248809Y-102255952D01*
X336153571Y-102303571D01*
X336105952Y-102351190D01*
X336058333Y-102446428D01*
X336058333Y-102636904D01*
X336105952Y-102732142D01*
X336153571Y-102779761D01*
X336248809Y-102827380D01*
X336296428Y-101827380D02*
X336296428Y-101065476D01*
X336677380Y-101446428D02*
X335915476Y-101446428D01*
X337058333Y-100684523D02*
X337010714Y-100636904D01*
X336867857Y-100541666D01*
X336772619Y-100494047D01*
X336629761Y-100446428D01*
X336391666Y-100398809D01*
X336201190Y-100398809D01*
X335963095Y-100446428D01*
X335820238Y-100494047D01*
X335725000Y-100541666D01*
X335582142Y-100636904D01*
X335534523Y-100684523D01*
X336677380Y-99398809D02*
X336677380Y-99970238D01*
X336677380Y-99684523D02*
X335677380Y-99684523D01*
X335820238Y-99779761D01*
X335915476Y-99875000D01*
X335963095Y-99970238D01*
%TO.C,Cell(5+)1*%
X147732142Y-169605952D02*
X147779761Y-169653571D01*
X147827380Y-169796428D01*
X147827380Y-169891666D01*
X147779761Y-170034523D01*
X147684523Y-170129761D01*
X147589285Y-170177380D01*
X147398809Y-170225000D01*
X147255952Y-170225000D01*
X147065476Y-170177380D01*
X146970238Y-170129761D01*
X146875000Y-170034523D01*
X146827380Y-169891666D01*
X146827380Y-169796428D01*
X146875000Y-169653571D01*
X146922619Y-169605952D01*
X147779761Y-168796428D02*
X147827380Y-168891666D01*
X147827380Y-169082142D01*
X147779761Y-169177380D01*
X147684523Y-169225000D01*
X147303571Y-169225000D01*
X147208333Y-169177380D01*
X147160714Y-169082142D01*
X147160714Y-168891666D01*
X147208333Y-168796428D01*
X147303571Y-168748809D01*
X147398809Y-168748809D01*
X147494047Y-169225000D01*
X147827380Y-168177380D02*
X147779761Y-168272619D01*
X147684523Y-168320238D01*
X146827380Y-168320238D01*
X147827380Y-167653571D02*
X147779761Y-167748809D01*
X147684523Y-167796428D01*
X146827380Y-167796428D01*
X148208333Y-166986904D02*
X148160714Y-167034523D01*
X148017857Y-167129761D01*
X147922619Y-167177380D01*
X147779761Y-167225000D01*
X147541666Y-167272619D01*
X147351190Y-167272619D01*
X147113095Y-167225000D01*
X146970238Y-167177380D01*
X146875000Y-167129761D01*
X146732142Y-167034523D01*
X146684523Y-166986904D01*
X146827380Y-166129761D02*
X146827380Y-166605952D01*
X147303571Y-166653571D01*
X147255952Y-166605952D01*
X147208333Y-166510714D01*
X147208333Y-166272619D01*
X147255952Y-166177380D01*
X147303571Y-166129761D01*
X147398809Y-166082142D01*
X147636904Y-166082142D01*
X147732142Y-166129761D01*
X147779761Y-166177380D01*
X147827380Y-166272619D01*
X147827380Y-166510714D01*
X147779761Y-166605952D01*
X147732142Y-166653571D01*
X147446428Y-165653571D02*
X147446428Y-164891666D01*
X147827380Y-165272619D02*
X147065476Y-165272619D01*
X148208333Y-164510714D02*
X148160714Y-164463095D01*
X148017857Y-164367857D01*
X147922619Y-164320238D01*
X147779761Y-164272619D01*
X147541666Y-164225000D01*
X147351190Y-164225000D01*
X147113095Y-164272619D01*
X146970238Y-164320238D01*
X146875000Y-164367857D01*
X146732142Y-164463095D01*
X146684523Y-164510714D01*
X147827380Y-163225000D02*
X147827380Y-163796428D01*
X147827380Y-163510714D02*
X146827380Y-163510714D01*
X146970238Y-163605952D01*
X147065476Y-163701190D01*
X147113095Y-163796428D01*
%TO.C,Cell(2+)1*%
X84432142Y-105605952D02*
X84479761Y-105653571D01*
X84527380Y-105796428D01*
X84527380Y-105891666D01*
X84479761Y-106034523D01*
X84384523Y-106129761D01*
X84289285Y-106177380D01*
X84098809Y-106225000D01*
X83955952Y-106225000D01*
X83765476Y-106177380D01*
X83670238Y-106129761D01*
X83575000Y-106034523D01*
X83527380Y-105891666D01*
X83527380Y-105796428D01*
X83575000Y-105653571D01*
X83622619Y-105605952D01*
X84479761Y-104796428D02*
X84527380Y-104891666D01*
X84527380Y-105082142D01*
X84479761Y-105177380D01*
X84384523Y-105225000D01*
X84003571Y-105225000D01*
X83908333Y-105177380D01*
X83860714Y-105082142D01*
X83860714Y-104891666D01*
X83908333Y-104796428D01*
X84003571Y-104748809D01*
X84098809Y-104748809D01*
X84194047Y-105225000D01*
X84527380Y-104177380D02*
X84479761Y-104272619D01*
X84384523Y-104320238D01*
X83527380Y-104320238D01*
X84527380Y-103653571D02*
X84479761Y-103748809D01*
X84384523Y-103796428D01*
X83527380Y-103796428D01*
X84908333Y-102986904D02*
X84860714Y-103034523D01*
X84717857Y-103129761D01*
X84622619Y-103177380D01*
X84479761Y-103225000D01*
X84241666Y-103272619D01*
X84051190Y-103272619D01*
X83813095Y-103225000D01*
X83670238Y-103177380D01*
X83575000Y-103129761D01*
X83432142Y-103034523D01*
X83384523Y-102986904D01*
X83622619Y-102653571D02*
X83575000Y-102605952D01*
X83527380Y-102510714D01*
X83527380Y-102272619D01*
X83575000Y-102177380D01*
X83622619Y-102129761D01*
X83717857Y-102082142D01*
X83813095Y-102082142D01*
X83955952Y-102129761D01*
X84527380Y-102701190D01*
X84527380Y-102082142D01*
X84146428Y-101653571D02*
X84146428Y-100891666D01*
X84527380Y-101272619D02*
X83765476Y-101272619D01*
X84908333Y-100510714D02*
X84860714Y-100463095D01*
X84717857Y-100367857D01*
X84622619Y-100320238D01*
X84479761Y-100272619D01*
X84241666Y-100225000D01*
X84051190Y-100225000D01*
X83813095Y-100272619D01*
X83670238Y-100320238D01*
X83575000Y-100367857D01*
X83432142Y-100463095D01*
X83384523Y-100510714D01*
X84527380Y-99225000D02*
X84527380Y-99796428D01*
X84527380Y-99510714D02*
X83527380Y-99510714D01*
X83670238Y-99605952D01*
X83765476Y-99701190D01*
X83813095Y-99796428D01*
%TO.C,Cell(12+)1*%
X268657142Y-106657142D02*
X268704761Y-106704761D01*
X268752380Y-106847619D01*
X268752380Y-106942857D01*
X268704761Y-107085714D01*
X268609523Y-107180952D01*
X268514285Y-107228571D01*
X268323809Y-107276190D01*
X268180952Y-107276190D01*
X267990476Y-107228571D01*
X267895238Y-107180952D01*
X267800000Y-107085714D01*
X267752380Y-106942857D01*
X267752380Y-106847619D01*
X267800000Y-106704761D01*
X267847619Y-106657142D01*
X268704761Y-105847619D02*
X268752380Y-105942857D01*
X268752380Y-106133333D01*
X268704761Y-106228571D01*
X268609523Y-106276190D01*
X268228571Y-106276190D01*
X268133333Y-106228571D01*
X268085714Y-106133333D01*
X268085714Y-105942857D01*
X268133333Y-105847619D01*
X268228571Y-105800000D01*
X268323809Y-105800000D01*
X268419047Y-106276190D01*
X268752380Y-105228571D02*
X268704761Y-105323809D01*
X268609523Y-105371428D01*
X267752380Y-105371428D01*
X268752380Y-104704761D02*
X268704761Y-104800000D01*
X268609523Y-104847619D01*
X267752380Y-104847619D01*
X269133333Y-104038095D02*
X269085714Y-104085714D01*
X268942857Y-104180952D01*
X268847619Y-104228571D01*
X268704761Y-104276190D01*
X268466666Y-104323809D01*
X268276190Y-104323809D01*
X268038095Y-104276190D01*
X267895238Y-104228571D01*
X267800000Y-104180952D01*
X267657142Y-104085714D01*
X267609523Y-104038095D01*
X268752380Y-103133333D02*
X268752380Y-103704761D01*
X268752380Y-103419047D02*
X267752380Y-103419047D01*
X267895238Y-103514285D01*
X267990476Y-103609523D01*
X268038095Y-103704761D01*
X267847619Y-102752380D02*
X267800000Y-102704761D01*
X267752380Y-102609523D01*
X267752380Y-102371428D01*
X267800000Y-102276190D01*
X267847619Y-102228571D01*
X267942857Y-102180952D01*
X268038095Y-102180952D01*
X268180952Y-102228571D01*
X268752380Y-102800000D01*
X268752380Y-102180952D01*
X268371428Y-101752380D02*
X268371428Y-100990476D01*
X268752380Y-101371428D02*
X267990476Y-101371428D01*
X269133333Y-100609523D02*
X269085714Y-100561904D01*
X268942857Y-100466666D01*
X268847619Y-100419047D01*
X268704761Y-100371428D01*
X268466666Y-100323809D01*
X268276190Y-100323809D01*
X268038095Y-100371428D01*
X267895238Y-100419047D01*
X267800000Y-100466666D01*
X267657142Y-100561904D01*
X267609523Y-100609523D01*
X268752380Y-99323809D02*
X268752380Y-99895238D01*
X268752380Y-99609523D02*
X267752380Y-99609523D01*
X267895238Y-99704761D01*
X267990476Y-99800000D01*
X268038095Y-99895238D01*
%TO.C,VSenseAUX1*%
X289521428Y-79917380D02*
X289854761Y-80917380D01*
X290188095Y-79917380D01*
X290473809Y-80869761D02*
X290616666Y-80917380D01*
X290854761Y-80917380D01*
X290950000Y-80869761D01*
X290997619Y-80822142D01*
X291045238Y-80726904D01*
X291045238Y-80631666D01*
X290997619Y-80536428D01*
X290950000Y-80488809D01*
X290854761Y-80441190D01*
X290664285Y-80393571D01*
X290569047Y-80345952D01*
X290521428Y-80298333D01*
X290473809Y-80203095D01*
X290473809Y-80107857D01*
X290521428Y-80012619D01*
X290569047Y-79965000D01*
X290664285Y-79917380D01*
X290902380Y-79917380D01*
X291045238Y-79965000D01*
X291854761Y-80869761D02*
X291759523Y-80917380D01*
X291569047Y-80917380D01*
X291473809Y-80869761D01*
X291426190Y-80774523D01*
X291426190Y-80393571D01*
X291473809Y-80298333D01*
X291569047Y-80250714D01*
X291759523Y-80250714D01*
X291854761Y-80298333D01*
X291902380Y-80393571D01*
X291902380Y-80488809D01*
X291426190Y-80584047D01*
X292330952Y-80250714D02*
X292330952Y-80917380D01*
X292330952Y-80345952D02*
X292378571Y-80298333D01*
X292473809Y-80250714D01*
X292616666Y-80250714D01*
X292711904Y-80298333D01*
X292759523Y-80393571D01*
X292759523Y-80917380D01*
X293188095Y-80869761D02*
X293283333Y-80917380D01*
X293473809Y-80917380D01*
X293569047Y-80869761D01*
X293616666Y-80774523D01*
X293616666Y-80726904D01*
X293569047Y-80631666D01*
X293473809Y-80584047D01*
X293330952Y-80584047D01*
X293235714Y-80536428D01*
X293188095Y-80441190D01*
X293188095Y-80393571D01*
X293235714Y-80298333D01*
X293330952Y-80250714D01*
X293473809Y-80250714D01*
X293569047Y-80298333D01*
X294426190Y-80869761D02*
X294330952Y-80917380D01*
X294140476Y-80917380D01*
X294045238Y-80869761D01*
X293997619Y-80774523D01*
X293997619Y-80393571D01*
X294045238Y-80298333D01*
X294140476Y-80250714D01*
X294330952Y-80250714D01*
X294426190Y-80298333D01*
X294473809Y-80393571D01*
X294473809Y-80488809D01*
X293997619Y-80584047D01*
X294854761Y-80631666D02*
X295330952Y-80631666D01*
X294759523Y-80917380D02*
X295092857Y-79917380D01*
X295426190Y-80917380D01*
X295759523Y-79917380D02*
X295759523Y-80726904D01*
X295807142Y-80822142D01*
X295854761Y-80869761D01*
X295950000Y-80917380D01*
X296140476Y-80917380D01*
X296235714Y-80869761D01*
X296283333Y-80822142D01*
X296330952Y-80726904D01*
X296330952Y-79917380D01*
X296711904Y-79917380D02*
X297378571Y-80917380D01*
X297378571Y-79917380D02*
X296711904Y-80917380D01*
X298283333Y-80917380D02*
X297711904Y-80917380D01*
X297997619Y-80917380D02*
X297997619Y-79917380D01*
X297902380Y-80060238D01*
X297807142Y-80155476D01*
X297711904Y-80203095D01*
%TO.C,Cell_Diff1*%
X71312142Y-118659523D02*
X71359761Y-118707142D01*
X71407380Y-118850000D01*
X71407380Y-118945238D01*
X71359761Y-119088095D01*
X71264523Y-119183333D01*
X71169285Y-119230952D01*
X70978809Y-119278571D01*
X70835952Y-119278571D01*
X70645476Y-119230952D01*
X70550238Y-119183333D01*
X70455000Y-119088095D01*
X70407380Y-118945238D01*
X70407380Y-118850000D01*
X70455000Y-118707142D01*
X70502619Y-118659523D01*
X71359761Y-117850000D02*
X71407380Y-117945238D01*
X71407380Y-118135714D01*
X71359761Y-118230952D01*
X71264523Y-118278571D01*
X70883571Y-118278571D01*
X70788333Y-118230952D01*
X70740714Y-118135714D01*
X70740714Y-117945238D01*
X70788333Y-117850000D01*
X70883571Y-117802380D01*
X70978809Y-117802380D01*
X71074047Y-118278571D01*
X71407380Y-117230952D02*
X71359761Y-117326190D01*
X71264523Y-117373809D01*
X70407380Y-117373809D01*
X71407380Y-116707142D02*
X71359761Y-116802380D01*
X71264523Y-116850000D01*
X70407380Y-116850000D01*
X71502619Y-116564285D02*
X71502619Y-115802380D01*
X71407380Y-115564285D02*
X70407380Y-115564285D01*
X70407380Y-115326190D01*
X70455000Y-115183333D01*
X70550238Y-115088095D01*
X70645476Y-115040476D01*
X70835952Y-114992857D01*
X70978809Y-114992857D01*
X71169285Y-115040476D01*
X71264523Y-115088095D01*
X71359761Y-115183333D01*
X71407380Y-115326190D01*
X71407380Y-115564285D01*
X71407380Y-114564285D02*
X70740714Y-114564285D01*
X70407380Y-114564285D02*
X70455000Y-114611904D01*
X70502619Y-114564285D01*
X70455000Y-114516666D01*
X70407380Y-114564285D01*
X70502619Y-114564285D01*
X70740714Y-114230952D02*
X70740714Y-113850000D01*
X71407380Y-114088095D02*
X70550238Y-114088095D01*
X70455000Y-114040476D01*
X70407380Y-113945238D01*
X70407380Y-113850000D01*
X70740714Y-113659523D02*
X70740714Y-113278571D01*
X71407380Y-113516666D02*
X70550238Y-113516666D01*
X70455000Y-113469047D01*
X70407380Y-113373809D01*
X70407380Y-113278571D01*
X71407380Y-112421428D02*
X71407380Y-112992857D01*
X71407380Y-112707142D02*
X70407380Y-112707142D01*
X70550238Y-112802380D01*
X70645476Y-112897619D01*
X70693095Y-112992857D01*
%TO.C,F10*%
X226265476Y-108353571D02*
X225932142Y-108353571D01*
X225932142Y-108877380D02*
X225932142Y-107877380D01*
X226408333Y-107877380D01*
X227313095Y-108877380D02*
X226741666Y-108877380D01*
X227027380Y-108877380D02*
X227027380Y-107877380D01*
X226932142Y-108020238D01*
X226836904Y-108115476D01*
X226741666Y-108163095D01*
X227932142Y-107877380D02*
X228027380Y-107877380D01*
X228122619Y-107925000D01*
X228170238Y-107972619D01*
X228217857Y-108067857D01*
X228265476Y-108258333D01*
X228265476Y-108496428D01*
X228217857Y-108686904D01*
X228170238Y-108782142D01*
X228122619Y-108829761D01*
X228027380Y-108877380D01*
X227932142Y-108877380D01*
X227836904Y-108829761D01*
X227789285Y-108782142D01*
X227741666Y-108686904D01*
X227694047Y-108496428D01*
X227694047Y-108258333D01*
X227741666Y-108067857D01*
X227789285Y-107972619D01*
X227836904Y-107925000D01*
X227932142Y-107877380D01*
%TO.C,Cell(11+)1*%
X262132142Y-169607142D02*
X262179761Y-169654761D01*
X262227380Y-169797619D01*
X262227380Y-169892857D01*
X262179761Y-170035714D01*
X262084523Y-170130952D01*
X261989285Y-170178571D01*
X261798809Y-170226190D01*
X261655952Y-170226190D01*
X261465476Y-170178571D01*
X261370238Y-170130952D01*
X261275000Y-170035714D01*
X261227380Y-169892857D01*
X261227380Y-169797619D01*
X261275000Y-169654761D01*
X261322619Y-169607142D01*
X262179761Y-168797619D02*
X262227380Y-168892857D01*
X262227380Y-169083333D01*
X262179761Y-169178571D01*
X262084523Y-169226190D01*
X261703571Y-169226190D01*
X261608333Y-169178571D01*
X261560714Y-169083333D01*
X261560714Y-168892857D01*
X261608333Y-168797619D01*
X261703571Y-168750000D01*
X261798809Y-168750000D01*
X261894047Y-169226190D01*
X262227380Y-168178571D02*
X262179761Y-168273809D01*
X262084523Y-168321428D01*
X261227380Y-168321428D01*
X262227380Y-167654761D02*
X262179761Y-167750000D01*
X262084523Y-167797619D01*
X261227380Y-167797619D01*
X262608333Y-166988095D02*
X262560714Y-167035714D01*
X262417857Y-167130952D01*
X262322619Y-167178571D01*
X262179761Y-167226190D01*
X261941666Y-167273809D01*
X261751190Y-167273809D01*
X261513095Y-167226190D01*
X261370238Y-167178571D01*
X261275000Y-167130952D01*
X261132142Y-167035714D01*
X261084523Y-166988095D01*
X262227380Y-166083333D02*
X262227380Y-166654761D01*
X262227380Y-166369047D02*
X261227380Y-166369047D01*
X261370238Y-166464285D01*
X261465476Y-166559523D01*
X261513095Y-166654761D01*
X262227380Y-165130952D02*
X262227380Y-165702380D01*
X262227380Y-165416666D02*
X261227380Y-165416666D01*
X261370238Y-165511904D01*
X261465476Y-165607142D01*
X261513095Y-165702380D01*
X261846428Y-164702380D02*
X261846428Y-163940476D01*
X262227380Y-164321428D02*
X261465476Y-164321428D01*
X262608333Y-163559523D02*
X262560714Y-163511904D01*
X262417857Y-163416666D01*
X262322619Y-163369047D01*
X262179761Y-163321428D01*
X261941666Y-163273809D01*
X261751190Y-163273809D01*
X261513095Y-163321428D01*
X261370238Y-163369047D01*
X261275000Y-163416666D01*
X261132142Y-163511904D01*
X261084523Y-163559523D01*
X262227380Y-162273809D02*
X262227380Y-162845238D01*
X262227380Y-162559523D02*
X261227380Y-162559523D01*
X261370238Y-162654761D01*
X261465476Y-162750000D01*
X261513095Y-162845238D01*
%TO.C,F12*%
X264365476Y-108378571D02*
X264032142Y-108378571D01*
X264032142Y-108902380D02*
X264032142Y-107902380D01*
X264508333Y-107902380D01*
X265413095Y-108902380D02*
X264841666Y-108902380D01*
X265127380Y-108902380D02*
X265127380Y-107902380D01*
X265032142Y-108045238D01*
X264936904Y-108140476D01*
X264841666Y-108188095D01*
X265794047Y-107997619D02*
X265841666Y-107950000D01*
X265936904Y-107902380D01*
X266175000Y-107902380D01*
X266270238Y-107950000D01*
X266317857Y-107997619D01*
X266365476Y-108092857D01*
X266365476Y-108188095D01*
X266317857Y-108330952D01*
X265746428Y-108902380D01*
X266365476Y-108902380D01*
%TO.C,F0*%
X72591666Y-108253571D02*
X72258333Y-108253571D01*
X72258333Y-108777380D02*
X72258333Y-107777380D01*
X72734523Y-107777380D01*
X73305952Y-107777380D02*
X73401190Y-107777380D01*
X73496428Y-107825000D01*
X73544047Y-107872619D01*
X73591666Y-107967857D01*
X73639285Y-108158333D01*
X73639285Y-108396428D01*
X73591666Y-108586904D01*
X73544047Y-108682142D01*
X73496428Y-108729761D01*
X73401190Y-108777380D01*
X73305952Y-108777380D01*
X73210714Y-108729761D01*
X73163095Y-108682142D01*
X73115476Y-108586904D01*
X73067857Y-108396428D01*
X73067857Y-108158333D01*
X73115476Y-107967857D01*
X73163095Y-107872619D01*
X73210714Y-107825000D01*
X73305952Y-107777380D01*
%TO.C,Cell(13+)1*%
X300132142Y-169582142D02*
X300179761Y-169629761D01*
X300227380Y-169772619D01*
X300227380Y-169867857D01*
X300179761Y-170010714D01*
X300084523Y-170105952D01*
X299989285Y-170153571D01*
X299798809Y-170201190D01*
X299655952Y-170201190D01*
X299465476Y-170153571D01*
X299370238Y-170105952D01*
X299275000Y-170010714D01*
X299227380Y-169867857D01*
X299227380Y-169772619D01*
X299275000Y-169629761D01*
X299322619Y-169582142D01*
X300179761Y-168772619D02*
X300227380Y-168867857D01*
X300227380Y-169058333D01*
X300179761Y-169153571D01*
X300084523Y-169201190D01*
X299703571Y-169201190D01*
X299608333Y-169153571D01*
X299560714Y-169058333D01*
X299560714Y-168867857D01*
X299608333Y-168772619D01*
X299703571Y-168725000D01*
X299798809Y-168725000D01*
X299894047Y-169201190D01*
X300227380Y-168153571D02*
X300179761Y-168248809D01*
X300084523Y-168296428D01*
X299227380Y-168296428D01*
X300227380Y-167629761D02*
X300179761Y-167725000D01*
X300084523Y-167772619D01*
X299227380Y-167772619D01*
X300608333Y-166963095D02*
X300560714Y-167010714D01*
X300417857Y-167105952D01*
X300322619Y-167153571D01*
X300179761Y-167201190D01*
X299941666Y-167248809D01*
X299751190Y-167248809D01*
X299513095Y-167201190D01*
X299370238Y-167153571D01*
X299275000Y-167105952D01*
X299132142Y-167010714D01*
X299084523Y-166963095D01*
X300227380Y-166058333D02*
X300227380Y-166629761D01*
X300227380Y-166344047D02*
X299227380Y-166344047D01*
X299370238Y-166439285D01*
X299465476Y-166534523D01*
X299513095Y-166629761D01*
X299227380Y-165725000D02*
X299227380Y-165105952D01*
X299608333Y-165439285D01*
X299608333Y-165296428D01*
X299655952Y-165201190D01*
X299703571Y-165153571D01*
X299798809Y-165105952D01*
X300036904Y-165105952D01*
X300132142Y-165153571D01*
X300179761Y-165201190D01*
X300227380Y-165296428D01*
X300227380Y-165582142D01*
X300179761Y-165677380D01*
X300132142Y-165725000D01*
X299846428Y-164677380D02*
X299846428Y-163915476D01*
X300227380Y-164296428D02*
X299465476Y-164296428D01*
X300608333Y-163534523D02*
X300560714Y-163486904D01*
X300417857Y-163391666D01*
X300322619Y-163344047D01*
X300179761Y-163296428D01*
X299941666Y-163248809D01*
X299751190Y-163248809D01*
X299513095Y-163296428D01*
X299370238Y-163344047D01*
X299275000Y-163391666D01*
X299132142Y-163486904D01*
X299084523Y-163534523D01*
X300227380Y-162248809D02*
X300227380Y-162820238D01*
X300227380Y-162534523D02*
X299227380Y-162534523D01*
X299370238Y-162629761D01*
X299465476Y-162725000D01*
X299513095Y-162820238D01*
%TO.C,F3*%
X112366666Y-161228571D02*
X112033333Y-161228571D01*
X112033333Y-161752380D02*
X112033333Y-160752380D01*
X112509523Y-160752380D01*
X112795238Y-160752380D02*
X113414285Y-160752380D01*
X113080952Y-161133333D01*
X113223809Y-161133333D01*
X113319047Y-161180952D01*
X113366666Y-161228571D01*
X113414285Y-161323809D01*
X113414285Y-161561904D01*
X113366666Y-161657142D01*
X113319047Y-161704761D01*
X113223809Y-161752380D01*
X112938095Y-161752380D01*
X112842857Y-161704761D01*
X112795238Y-161657142D01*
%TO.C,F8*%
X188616666Y-108253571D02*
X188283333Y-108253571D01*
X188283333Y-108777380D02*
X188283333Y-107777380D01*
X188759523Y-107777380D01*
X189283333Y-108205952D02*
X189188095Y-108158333D01*
X189140476Y-108110714D01*
X189092857Y-108015476D01*
X189092857Y-107967857D01*
X189140476Y-107872619D01*
X189188095Y-107825000D01*
X189283333Y-107777380D01*
X189473809Y-107777380D01*
X189569047Y-107825000D01*
X189616666Y-107872619D01*
X189664285Y-107967857D01*
X189664285Y-108015476D01*
X189616666Y-108110714D01*
X189569047Y-108158333D01*
X189473809Y-108205952D01*
X189283333Y-108205952D01*
X189188095Y-108253571D01*
X189140476Y-108301190D01*
X189092857Y-108396428D01*
X189092857Y-108586904D01*
X189140476Y-108682142D01*
X189188095Y-108729761D01*
X189283333Y-108777380D01*
X189473809Y-108777380D01*
X189569047Y-108729761D01*
X189616666Y-108682142D01*
X189664285Y-108586904D01*
X189664285Y-108396428D01*
X189616666Y-108301190D01*
X189569047Y-108253571D01*
X189473809Y-108205952D01*
%TO.C,F1*%
X74316666Y-161153571D02*
X73983333Y-161153571D01*
X73983333Y-161677380D02*
X73983333Y-160677380D01*
X74459523Y-160677380D01*
X75364285Y-161677380D02*
X74792857Y-161677380D01*
X75078571Y-161677380D02*
X75078571Y-160677380D01*
X74983333Y-160820238D01*
X74888095Y-160915476D01*
X74792857Y-160963095D01*
%TO.C,Cell(6+)1*%
X154382142Y-105605952D02*
X154429761Y-105653571D01*
X154477380Y-105796428D01*
X154477380Y-105891666D01*
X154429761Y-106034523D01*
X154334523Y-106129761D01*
X154239285Y-106177380D01*
X154048809Y-106225000D01*
X153905952Y-106225000D01*
X153715476Y-106177380D01*
X153620238Y-106129761D01*
X153525000Y-106034523D01*
X153477380Y-105891666D01*
X153477380Y-105796428D01*
X153525000Y-105653571D01*
X153572619Y-105605952D01*
X154429761Y-104796428D02*
X154477380Y-104891666D01*
X154477380Y-105082142D01*
X154429761Y-105177380D01*
X154334523Y-105225000D01*
X153953571Y-105225000D01*
X153858333Y-105177380D01*
X153810714Y-105082142D01*
X153810714Y-104891666D01*
X153858333Y-104796428D01*
X153953571Y-104748809D01*
X154048809Y-104748809D01*
X154144047Y-105225000D01*
X154477380Y-104177380D02*
X154429761Y-104272619D01*
X154334523Y-104320238D01*
X153477380Y-104320238D01*
X154477380Y-103653571D02*
X154429761Y-103748809D01*
X154334523Y-103796428D01*
X153477380Y-103796428D01*
X154858333Y-102986904D02*
X154810714Y-103034523D01*
X154667857Y-103129761D01*
X154572619Y-103177380D01*
X154429761Y-103225000D01*
X154191666Y-103272619D01*
X154001190Y-103272619D01*
X153763095Y-103225000D01*
X153620238Y-103177380D01*
X153525000Y-103129761D01*
X153382142Y-103034523D01*
X153334523Y-102986904D01*
X153477380Y-102177380D02*
X153477380Y-102367857D01*
X153525000Y-102463095D01*
X153572619Y-102510714D01*
X153715476Y-102605952D01*
X153905952Y-102653571D01*
X154286904Y-102653571D01*
X154382142Y-102605952D01*
X154429761Y-102558333D01*
X154477380Y-102463095D01*
X154477380Y-102272619D01*
X154429761Y-102177380D01*
X154382142Y-102129761D01*
X154286904Y-102082142D01*
X154048809Y-102082142D01*
X153953571Y-102129761D01*
X153905952Y-102177380D01*
X153858333Y-102272619D01*
X153858333Y-102463095D01*
X153905952Y-102558333D01*
X153953571Y-102605952D01*
X154048809Y-102653571D01*
X154096428Y-101653571D02*
X154096428Y-100891666D01*
X154477380Y-101272619D02*
X153715476Y-101272619D01*
X154858333Y-100510714D02*
X154810714Y-100463095D01*
X154667857Y-100367857D01*
X154572619Y-100320238D01*
X154429761Y-100272619D01*
X154191666Y-100225000D01*
X154001190Y-100225000D01*
X153763095Y-100272619D01*
X153620238Y-100320238D01*
X153525000Y-100367857D01*
X153382142Y-100463095D01*
X153334523Y-100510714D01*
X154477380Y-99225000D02*
X154477380Y-99796428D01*
X154477380Y-99510714D02*
X153477380Y-99510714D01*
X153620238Y-99605952D01*
X153715476Y-99701190D01*
X153763095Y-99796428D01*
%TO.C,F11*%
X264315476Y-164503571D02*
X263982142Y-164503571D01*
X263982142Y-165027380D02*
X263982142Y-164027380D01*
X264458333Y-164027380D01*
X265363095Y-165027380D02*
X264791666Y-165027380D01*
X265077380Y-165027380D02*
X265077380Y-164027380D01*
X264982142Y-164170238D01*
X264886904Y-164265476D01*
X264791666Y-164313095D01*
X266315476Y-165027380D02*
X265744047Y-165027380D01*
X266029761Y-165027380D02*
X266029761Y-164027380D01*
X265934523Y-164170238D01*
X265839285Y-164265476D01*
X265744047Y-164313095D01*
%TO.C,Cell(18+)1*%
X349007142Y-106557142D02*
X349054761Y-106604761D01*
X349102380Y-106747619D01*
X349102380Y-106842857D01*
X349054761Y-106985714D01*
X348959523Y-107080952D01*
X348864285Y-107128571D01*
X348673809Y-107176190D01*
X348530952Y-107176190D01*
X348340476Y-107128571D01*
X348245238Y-107080952D01*
X348150000Y-106985714D01*
X348102380Y-106842857D01*
X348102380Y-106747619D01*
X348150000Y-106604761D01*
X348197619Y-106557142D01*
X349054761Y-105747619D02*
X349102380Y-105842857D01*
X349102380Y-106033333D01*
X349054761Y-106128571D01*
X348959523Y-106176190D01*
X348578571Y-106176190D01*
X348483333Y-106128571D01*
X348435714Y-106033333D01*
X348435714Y-105842857D01*
X348483333Y-105747619D01*
X348578571Y-105700000D01*
X348673809Y-105700000D01*
X348769047Y-106176190D01*
X349102380Y-105128571D02*
X349054761Y-105223809D01*
X348959523Y-105271428D01*
X348102380Y-105271428D01*
X349102380Y-104604761D02*
X349054761Y-104700000D01*
X348959523Y-104747619D01*
X348102380Y-104747619D01*
X349483333Y-103938095D02*
X349435714Y-103985714D01*
X349292857Y-104080952D01*
X349197619Y-104128571D01*
X349054761Y-104176190D01*
X348816666Y-104223809D01*
X348626190Y-104223809D01*
X348388095Y-104176190D01*
X348245238Y-104128571D01*
X348150000Y-104080952D01*
X348007142Y-103985714D01*
X347959523Y-103938095D01*
X349102380Y-103033333D02*
X349102380Y-103604761D01*
X349102380Y-103319047D02*
X348102380Y-103319047D01*
X348245238Y-103414285D01*
X348340476Y-103509523D01*
X348388095Y-103604761D01*
X348530952Y-102461904D02*
X348483333Y-102557142D01*
X348435714Y-102604761D01*
X348340476Y-102652380D01*
X348292857Y-102652380D01*
X348197619Y-102604761D01*
X348150000Y-102557142D01*
X348102380Y-102461904D01*
X348102380Y-102271428D01*
X348150000Y-102176190D01*
X348197619Y-102128571D01*
X348292857Y-102080952D01*
X348340476Y-102080952D01*
X348435714Y-102128571D01*
X348483333Y-102176190D01*
X348530952Y-102271428D01*
X348530952Y-102461904D01*
X348578571Y-102557142D01*
X348626190Y-102604761D01*
X348721428Y-102652380D01*
X348911904Y-102652380D01*
X349007142Y-102604761D01*
X349054761Y-102557142D01*
X349102380Y-102461904D01*
X349102380Y-102271428D01*
X349054761Y-102176190D01*
X349007142Y-102128571D01*
X348911904Y-102080952D01*
X348721428Y-102080952D01*
X348626190Y-102128571D01*
X348578571Y-102176190D01*
X348530952Y-102271428D01*
X348721428Y-101652380D02*
X348721428Y-100890476D01*
X349102380Y-101271428D02*
X348340476Y-101271428D01*
X349483333Y-100509523D02*
X349435714Y-100461904D01*
X349292857Y-100366666D01*
X349197619Y-100319047D01*
X349054761Y-100271428D01*
X348816666Y-100223809D01*
X348626190Y-100223809D01*
X348388095Y-100271428D01*
X348245238Y-100319047D01*
X348150000Y-100366666D01*
X348007142Y-100461904D01*
X347959523Y-100509523D01*
X349102380Y-99223809D02*
X349102380Y-99795238D01*
X349102380Y-99509523D02*
X348102380Y-99509523D01*
X348245238Y-99604761D01*
X348340476Y-99700000D01*
X348388095Y-99795238D01*
%TO.C,F18*%
X344640476Y-108328571D02*
X344307142Y-108328571D01*
X344307142Y-108852380D02*
X344307142Y-107852380D01*
X344783333Y-107852380D01*
X345688095Y-108852380D02*
X345116666Y-108852380D01*
X345402380Y-108852380D02*
X345402380Y-107852380D01*
X345307142Y-107995238D01*
X345211904Y-108090476D01*
X345116666Y-108138095D01*
X346259523Y-108280952D02*
X346164285Y-108233333D01*
X346116666Y-108185714D01*
X346069047Y-108090476D01*
X346069047Y-108042857D01*
X346116666Y-107947619D01*
X346164285Y-107900000D01*
X346259523Y-107852380D01*
X346450000Y-107852380D01*
X346545238Y-107900000D01*
X346592857Y-107947619D01*
X346640476Y-108042857D01*
X346640476Y-108090476D01*
X346592857Y-108185714D01*
X346545238Y-108233333D01*
X346450000Y-108280952D01*
X346259523Y-108280952D01*
X346164285Y-108328571D01*
X346116666Y-108376190D01*
X346069047Y-108471428D01*
X346069047Y-108661904D01*
X346116666Y-108757142D01*
X346164285Y-108804761D01*
X346259523Y-108852380D01*
X346450000Y-108852380D01*
X346545238Y-108804761D01*
X346592857Y-108757142D01*
X346640476Y-108661904D01*
X346640476Y-108471428D01*
X346592857Y-108376190D01*
X346545238Y-108328571D01*
X346450000Y-108280952D01*
%TO.C,F15*%
X338690476Y-161103571D02*
X338357142Y-161103571D01*
X338357142Y-161627380D02*
X338357142Y-160627380D01*
X338833333Y-160627380D01*
X339738095Y-161627380D02*
X339166666Y-161627380D01*
X339452380Y-161627380D02*
X339452380Y-160627380D01*
X339357142Y-160770238D01*
X339261904Y-160865476D01*
X339166666Y-160913095D01*
X340642857Y-160627380D02*
X340166666Y-160627380D01*
X340119047Y-161103571D01*
X340166666Y-161055952D01*
X340261904Y-161008333D01*
X340500000Y-161008333D01*
X340595238Y-161055952D01*
X340642857Y-161103571D01*
X340690476Y-161198809D01*
X340690476Y-161436904D01*
X340642857Y-161532142D01*
X340595238Y-161579761D01*
X340500000Y-161627380D01*
X340261904Y-161627380D01*
X340166666Y-161579761D01*
X340119047Y-161532142D01*
%TO.C,Cell(10+)1*%
X230532142Y-106632142D02*
X230579761Y-106679761D01*
X230627380Y-106822619D01*
X230627380Y-106917857D01*
X230579761Y-107060714D01*
X230484523Y-107155952D01*
X230389285Y-107203571D01*
X230198809Y-107251190D01*
X230055952Y-107251190D01*
X229865476Y-107203571D01*
X229770238Y-107155952D01*
X229675000Y-107060714D01*
X229627380Y-106917857D01*
X229627380Y-106822619D01*
X229675000Y-106679761D01*
X229722619Y-106632142D01*
X230579761Y-105822619D02*
X230627380Y-105917857D01*
X230627380Y-106108333D01*
X230579761Y-106203571D01*
X230484523Y-106251190D01*
X230103571Y-106251190D01*
X230008333Y-106203571D01*
X229960714Y-106108333D01*
X229960714Y-105917857D01*
X230008333Y-105822619D01*
X230103571Y-105775000D01*
X230198809Y-105775000D01*
X230294047Y-106251190D01*
X230627380Y-105203571D02*
X230579761Y-105298809D01*
X230484523Y-105346428D01*
X229627380Y-105346428D01*
X230627380Y-104679761D02*
X230579761Y-104775000D01*
X230484523Y-104822619D01*
X229627380Y-104822619D01*
X231008333Y-104013095D02*
X230960714Y-104060714D01*
X230817857Y-104155952D01*
X230722619Y-104203571D01*
X230579761Y-104251190D01*
X230341666Y-104298809D01*
X230151190Y-104298809D01*
X229913095Y-104251190D01*
X229770238Y-104203571D01*
X229675000Y-104155952D01*
X229532142Y-104060714D01*
X229484523Y-104013095D01*
X230627380Y-103108333D02*
X230627380Y-103679761D01*
X230627380Y-103394047D02*
X229627380Y-103394047D01*
X229770238Y-103489285D01*
X229865476Y-103584523D01*
X229913095Y-103679761D01*
X229627380Y-102489285D02*
X229627380Y-102394047D01*
X229675000Y-102298809D01*
X229722619Y-102251190D01*
X229817857Y-102203571D01*
X230008333Y-102155952D01*
X230246428Y-102155952D01*
X230436904Y-102203571D01*
X230532142Y-102251190D01*
X230579761Y-102298809D01*
X230627380Y-102394047D01*
X230627380Y-102489285D01*
X230579761Y-102584523D01*
X230532142Y-102632142D01*
X230436904Y-102679761D01*
X230246428Y-102727380D01*
X230008333Y-102727380D01*
X229817857Y-102679761D01*
X229722619Y-102632142D01*
X229675000Y-102584523D01*
X229627380Y-102489285D01*
X230246428Y-101727380D02*
X230246428Y-100965476D01*
X230627380Y-101346428D02*
X229865476Y-101346428D01*
X231008333Y-100584523D02*
X230960714Y-100536904D01*
X230817857Y-100441666D01*
X230722619Y-100394047D01*
X230579761Y-100346428D01*
X230341666Y-100298809D01*
X230151190Y-100298809D01*
X229913095Y-100346428D01*
X229770238Y-100394047D01*
X229675000Y-100441666D01*
X229532142Y-100536904D01*
X229484523Y-100584523D01*
X230627380Y-99298809D02*
X230627380Y-99870238D01*
X230627380Y-99584523D02*
X229627380Y-99584523D01*
X229770238Y-99679761D01*
X229865476Y-99775000D01*
X229913095Y-99870238D01*
%TO.C,Cell(1-)1*%
X76507142Y-105705952D02*
X76554761Y-105753571D01*
X76602380Y-105896428D01*
X76602380Y-105991666D01*
X76554761Y-106134523D01*
X76459523Y-106229761D01*
X76364285Y-106277380D01*
X76173809Y-106325000D01*
X76030952Y-106325000D01*
X75840476Y-106277380D01*
X75745238Y-106229761D01*
X75650000Y-106134523D01*
X75602380Y-105991666D01*
X75602380Y-105896428D01*
X75650000Y-105753571D01*
X75697619Y-105705952D01*
X76554761Y-104896428D02*
X76602380Y-104991666D01*
X76602380Y-105182142D01*
X76554761Y-105277380D01*
X76459523Y-105325000D01*
X76078571Y-105325000D01*
X75983333Y-105277380D01*
X75935714Y-105182142D01*
X75935714Y-104991666D01*
X75983333Y-104896428D01*
X76078571Y-104848809D01*
X76173809Y-104848809D01*
X76269047Y-105325000D01*
X76602380Y-104277380D02*
X76554761Y-104372619D01*
X76459523Y-104420238D01*
X75602380Y-104420238D01*
X76602380Y-103753571D02*
X76554761Y-103848809D01*
X76459523Y-103896428D01*
X75602380Y-103896428D01*
X76983333Y-103086904D02*
X76935714Y-103134523D01*
X76792857Y-103229761D01*
X76697619Y-103277380D01*
X76554761Y-103325000D01*
X76316666Y-103372619D01*
X76126190Y-103372619D01*
X75888095Y-103325000D01*
X75745238Y-103277380D01*
X75650000Y-103229761D01*
X75507142Y-103134523D01*
X75459523Y-103086904D01*
X76602380Y-102182142D02*
X76602380Y-102753571D01*
X76602380Y-102467857D02*
X75602380Y-102467857D01*
X75745238Y-102563095D01*
X75840476Y-102658333D01*
X75888095Y-102753571D01*
X76221428Y-101753571D02*
X76221428Y-100991666D01*
X76983333Y-100610714D02*
X76935714Y-100563095D01*
X76792857Y-100467857D01*
X76697619Y-100420238D01*
X76554761Y-100372619D01*
X76316666Y-100325000D01*
X76126190Y-100325000D01*
X75888095Y-100372619D01*
X75745238Y-100420238D01*
X75650000Y-100467857D01*
X75507142Y-100563095D01*
X75459523Y-100610714D01*
X76602380Y-99325000D02*
X76602380Y-99896428D01*
X76602380Y-99610714D02*
X75602380Y-99610714D01*
X75745238Y-99705952D01*
X75840476Y-99801190D01*
X75888095Y-99896428D01*
%TO.C,F13*%
X302415476Y-164553571D02*
X302082142Y-164553571D01*
X302082142Y-165077380D02*
X302082142Y-164077380D01*
X302558333Y-164077380D01*
X303463095Y-165077380D02*
X302891666Y-165077380D01*
X303177380Y-165077380D02*
X303177380Y-164077380D01*
X303082142Y-164220238D01*
X302986904Y-164315476D01*
X302891666Y-164363095D01*
X303796428Y-164077380D02*
X304415476Y-164077380D01*
X304082142Y-164458333D01*
X304225000Y-164458333D01*
X304320238Y-164505952D01*
X304367857Y-164553571D01*
X304415476Y-164648809D01*
X304415476Y-164886904D01*
X304367857Y-164982142D01*
X304320238Y-165029761D01*
X304225000Y-165077380D01*
X303939285Y-165077380D01*
X303844047Y-165029761D01*
X303796428Y-164982142D01*
%TO.C,Cell(7+)1*%
X185932142Y-169530952D02*
X185979761Y-169578571D01*
X186027380Y-169721428D01*
X186027380Y-169816666D01*
X185979761Y-169959523D01*
X185884523Y-170054761D01*
X185789285Y-170102380D01*
X185598809Y-170150000D01*
X185455952Y-170150000D01*
X185265476Y-170102380D01*
X185170238Y-170054761D01*
X185075000Y-169959523D01*
X185027380Y-169816666D01*
X185027380Y-169721428D01*
X185075000Y-169578571D01*
X185122619Y-169530952D01*
X185979761Y-168721428D02*
X186027380Y-168816666D01*
X186027380Y-169007142D01*
X185979761Y-169102380D01*
X185884523Y-169150000D01*
X185503571Y-169150000D01*
X185408333Y-169102380D01*
X185360714Y-169007142D01*
X185360714Y-168816666D01*
X185408333Y-168721428D01*
X185503571Y-168673809D01*
X185598809Y-168673809D01*
X185694047Y-169150000D01*
X186027380Y-168102380D02*
X185979761Y-168197619D01*
X185884523Y-168245238D01*
X185027380Y-168245238D01*
X186027380Y-167578571D02*
X185979761Y-167673809D01*
X185884523Y-167721428D01*
X185027380Y-167721428D01*
X186408333Y-166911904D02*
X186360714Y-166959523D01*
X186217857Y-167054761D01*
X186122619Y-167102380D01*
X185979761Y-167150000D01*
X185741666Y-167197619D01*
X185551190Y-167197619D01*
X185313095Y-167150000D01*
X185170238Y-167102380D01*
X185075000Y-167054761D01*
X184932142Y-166959523D01*
X184884523Y-166911904D01*
X185027380Y-166626190D02*
X185027380Y-165959523D01*
X186027380Y-166388095D01*
X185646428Y-165578571D02*
X185646428Y-164816666D01*
X186027380Y-165197619D02*
X185265476Y-165197619D01*
X186408333Y-164435714D02*
X186360714Y-164388095D01*
X186217857Y-164292857D01*
X186122619Y-164245238D01*
X185979761Y-164197619D01*
X185741666Y-164150000D01*
X185551190Y-164150000D01*
X185313095Y-164197619D01*
X185170238Y-164245238D01*
X185075000Y-164292857D01*
X184932142Y-164388095D01*
X184884523Y-164435714D01*
X186027380Y-163150000D02*
X186027380Y-163721428D01*
X186027380Y-163435714D02*
X185027380Y-163435714D01*
X185170238Y-163530952D01*
X185265476Y-163626190D01*
X185313095Y-163721428D01*
%TO.C,F5*%
X150491666Y-161203571D02*
X150158333Y-161203571D01*
X150158333Y-161727380D02*
X150158333Y-160727380D01*
X150634523Y-160727380D01*
X151491666Y-160727380D02*
X151015476Y-160727380D01*
X150967857Y-161203571D01*
X151015476Y-161155952D01*
X151110714Y-161108333D01*
X151348809Y-161108333D01*
X151444047Y-161155952D01*
X151491666Y-161203571D01*
X151539285Y-161298809D01*
X151539285Y-161536904D01*
X151491666Y-161632142D01*
X151444047Y-161679761D01*
X151348809Y-161727380D01*
X151110714Y-161727380D01*
X151015476Y-161679761D01*
X150967857Y-161632142D01*
%TO.C,Cell(17+)1*%
X348957142Y-169532142D02*
X349004761Y-169579761D01*
X349052380Y-169722619D01*
X349052380Y-169817857D01*
X349004761Y-169960714D01*
X348909523Y-170055952D01*
X348814285Y-170103571D01*
X348623809Y-170151190D01*
X348480952Y-170151190D01*
X348290476Y-170103571D01*
X348195238Y-170055952D01*
X348100000Y-169960714D01*
X348052380Y-169817857D01*
X348052380Y-169722619D01*
X348100000Y-169579761D01*
X348147619Y-169532142D01*
X349004761Y-168722619D02*
X349052380Y-168817857D01*
X349052380Y-169008333D01*
X349004761Y-169103571D01*
X348909523Y-169151190D01*
X348528571Y-169151190D01*
X348433333Y-169103571D01*
X348385714Y-169008333D01*
X348385714Y-168817857D01*
X348433333Y-168722619D01*
X348528571Y-168675000D01*
X348623809Y-168675000D01*
X348719047Y-169151190D01*
X349052380Y-168103571D02*
X349004761Y-168198809D01*
X348909523Y-168246428D01*
X348052380Y-168246428D01*
X349052380Y-167579761D02*
X349004761Y-167675000D01*
X348909523Y-167722619D01*
X348052380Y-167722619D01*
X349433333Y-166913095D02*
X349385714Y-166960714D01*
X349242857Y-167055952D01*
X349147619Y-167103571D01*
X349004761Y-167151190D01*
X348766666Y-167198809D01*
X348576190Y-167198809D01*
X348338095Y-167151190D01*
X348195238Y-167103571D01*
X348100000Y-167055952D01*
X347957142Y-166960714D01*
X347909523Y-166913095D01*
X349052380Y-166008333D02*
X349052380Y-166579761D01*
X349052380Y-166294047D02*
X348052380Y-166294047D01*
X348195238Y-166389285D01*
X348290476Y-166484523D01*
X348338095Y-166579761D01*
X348052380Y-165675000D02*
X348052380Y-165008333D01*
X349052380Y-165436904D01*
X348671428Y-164627380D02*
X348671428Y-163865476D01*
X349052380Y-164246428D02*
X348290476Y-164246428D01*
X349433333Y-163484523D02*
X349385714Y-163436904D01*
X349242857Y-163341666D01*
X349147619Y-163294047D01*
X349004761Y-163246428D01*
X348766666Y-163198809D01*
X348576190Y-163198809D01*
X348338095Y-163246428D01*
X348195238Y-163294047D01*
X348100000Y-163341666D01*
X347957142Y-163436904D01*
X347909523Y-163484523D01*
X349052380Y-162198809D02*
X349052380Y-162770238D01*
X349052380Y-162484523D02*
X348052380Y-162484523D01*
X348195238Y-162579761D01*
X348290476Y-162675000D01*
X348338095Y-162770238D01*
%TO.C,Cell(15+)1*%
X336457142Y-169532142D02*
X336504761Y-169579761D01*
X336552380Y-169722619D01*
X336552380Y-169817857D01*
X336504761Y-169960714D01*
X336409523Y-170055952D01*
X336314285Y-170103571D01*
X336123809Y-170151190D01*
X335980952Y-170151190D01*
X335790476Y-170103571D01*
X335695238Y-170055952D01*
X335600000Y-169960714D01*
X335552380Y-169817857D01*
X335552380Y-169722619D01*
X335600000Y-169579761D01*
X335647619Y-169532142D01*
X336504761Y-168722619D02*
X336552380Y-168817857D01*
X336552380Y-169008333D01*
X336504761Y-169103571D01*
X336409523Y-169151190D01*
X336028571Y-169151190D01*
X335933333Y-169103571D01*
X335885714Y-169008333D01*
X335885714Y-168817857D01*
X335933333Y-168722619D01*
X336028571Y-168675000D01*
X336123809Y-168675000D01*
X336219047Y-169151190D01*
X336552380Y-168103571D02*
X336504761Y-168198809D01*
X336409523Y-168246428D01*
X335552380Y-168246428D01*
X336552380Y-167579761D02*
X336504761Y-167675000D01*
X336409523Y-167722619D01*
X335552380Y-167722619D01*
X336933333Y-166913095D02*
X336885714Y-166960714D01*
X336742857Y-167055952D01*
X336647619Y-167103571D01*
X336504761Y-167151190D01*
X336266666Y-167198809D01*
X336076190Y-167198809D01*
X335838095Y-167151190D01*
X335695238Y-167103571D01*
X335600000Y-167055952D01*
X335457142Y-166960714D01*
X335409523Y-166913095D01*
X336552380Y-166008333D02*
X336552380Y-166579761D01*
X336552380Y-166294047D02*
X335552380Y-166294047D01*
X335695238Y-166389285D01*
X335790476Y-166484523D01*
X335838095Y-166579761D01*
X335552380Y-165103571D02*
X335552380Y-165579761D01*
X336028571Y-165627380D01*
X335980952Y-165579761D01*
X335933333Y-165484523D01*
X335933333Y-165246428D01*
X335980952Y-165151190D01*
X336028571Y-165103571D01*
X336123809Y-165055952D01*
X336361904Y-165055952D01*
X336457142Y-165103571D01*
X336504761Y-165151190D01*
X336552380Y-165246428D01*
X336552380Y-165484523D01*
X336504761Y-165579761D01*
X336457142Y-165627380D01*
X336171428Y-164627380D02*
X336171428Y-163865476D01*
X336552380Y-164246428D02*
X335790476Y-164246428D01*
X336933333Y-163484523D02*
X336885714Y-163436904D01*
X336742857Y-163341666D01*
X336647619Y-163294047D01*
X336504761Y-163246428D01*
X336266666Y-163198809D01*
X336076190Y-163198809D01*
X335838095Y-163246428D01*
X335695238Y-163294047D01*
X335600000Y-163341666D01*
X335457142Y-163436904D01*
X335409523Y-163484523D01*
X336552380Y-162198809D02*
X336552380Y-162770238D01*
X336552380Y-162484523D02*
X335552380Y-162484523D01*
X335695238Y-162579761D01*
X335790476Y-162675000D01*
X335838095Y-162770238D01*
%TO.C,Cell(4+)1*%
X116307142Y-105730952D02*
X116354761Y-105778571D01*
X116402380Y-105921428D01*
X116402380Y-106016666D01*
X116354761Y-106159523D01*
X116259523Y-106254761D01*
X116164285Y-106302380D01*
X115973809Y-106350000D01*
X115830952Y-106350000D01*
X115640476Y-106302380D01*
X115545238Y-106254761D01*
X115450000Y-106159523D01*
X115402380Y-106016666D01*
X115402380Y-105921428D01*
X115450000Y-105778571D01*
X115497619Y-105730952D01*
X116354761Y-104921428D02*
X116402380Y-105016666D01*
X116402380Y-105207142D01*
X116354761Y-105302380D01*
X116259523Y-105350000D01*
X115878571Y-105350000D01*
X115783333Y-105302380D01*
X115735714Y-105207142D01*
X115735714Y-105016666D01*
X115783333Y-104921428D01*
X115878571Y-104873809D01*
X115973809Y-104873809D01*
X116069047Y-105350000D01*
X116402380Y-104302380D02*
X116354761Y-104397619D01*
X116259523Y-104445238D01*
X115402380Y-104445238D01*
X116402380Y-103778571D02*
X116354761Y-103873809D01*
X116259523Y-103921428D01*
X115402380Y-103921428D01*
X116783333Y-103111904D02*
X116735714Y-103159523D01*
X116592857Y-103254761D01*
X116497619Y-103302380D01*
X116354761Y-103350000D01*
X116116666Y-103397619D01*
X115926190Y-103397619D01*
X115688095Y-103350000D01*
X115545238Y-103302380D01*
X115450000Y-103254761D01*
X115307142Y-103159523D01*
X115259523Y-103111904D01*
X115735714Y-102302380D02*
X116402380Y-102302380D01*
X115354761Y-102540476D02*
X116069047Y-102778571D01*
X116069047Y-102159523D01*
X116021428Y-101778571D02*
X116021428Y-101016666D01*
X116402380Y-101397619D02*
X115640476Y-101397619D01*
X116783333Y-100635714D02*
X116735714Y-100588095D01*
X116592857Y-100492857D01*
X116497619Y-100445238D01*
X116354761Y-100397619D01*
X116116666Y-100350000D01*
X115926190Y-100350000D01*
X115688095Y-100397619D01*
X115545238Y-100445238D01*
X115450000Y-100492857D01*
X115307142Y-100588095D01*
X115259523Y-100635714D01*
X116402380Y-99350000D02*
X116402380Y-99921428D01*
X116402380Y-99635714D02*
X115402380Y-99635714D01*
X115545238Y-99730952D01*
X115640476Y-99826190D01*
X115688095Y-99921428D01*
%TO.C,Cell(1+)1*%
X71532142Y-169280952D02*
X71579761Y-169328571D01*
X71627380Y-169471428D01*
X71627380Y-169566666D01*
X71579761Y-169709523D01*
X71484523Y-169804761D01*
X71389285Y-169852380D01*
X71198809Y-169900000D01*
X71055952Y-169900000D01*
X70865476Y-169852380D01*
X70770238Y-169804761D01*
X70675000Y-169709523D01*
X70627380Y-169566666D01*
X70627380Y-169471428D01*
X70675000Y-169328571D01*
X70722619Y-169280952D01*
X71579761Y-168471428D02*
X71627380Y-168566666D01*
X71627380Y-168757142D01*
X71579761Y-168852380D01*
X71484523Y-168900000D01*
X71103571Y-168900000D01*
X71008333Y-168852380D01*
X70960714Y-168757142D01*
X70960714Y-168566666D01*
X71008333Y-168471428D01*
X71103571Y-168423809D01*
X71198809Y-168423809D01*
X71294047Y-168900000D01*
X71627380Y-167852380D02*
X71579761Y-167947619D01*
X71484523Y-167995238D01*
X70627380Y-167995238D01*
X71627380Y-167328571D02*
X71579761Y-167423809D01*
X71484523Y-167471428D01*
X70627380Y-167471428D01*
X72008333Y-166661904D02*
X71960714Y-166709523D01*
X71817857Y-166804761D01*
X71722619Y-166852380D01*
X71579761Y-166900000D01*
X71341666Y-166947619D01*
X71151190Y-166947619D01*
X70913095Y-166900000D01*
X70770238Y-166852380D01*
X70675000Y-166804761D01*
X70532142Y-166709523D01*
X70484523Y-166661904D01*
X71627380Y-165757142D02*
X71627380Y-166328571D01*
X71627380Y-166042857D02*
X70627380Y-166042857D01*
X70770238Y-166138095D01*
X70865476Y-166233333D01*
X70913095Y-166328571D01*
X71246428Y-165328571D02*
X71246428Y-164566666D01*
X71627380Y-164947619D02*
X70865476Y-164947619D01*
X72008333Y-164185714D02*
X71960714Y-164138095D01*
X71817857Y-164042857D01*
X71722619Y-163995238D01*
X71579761Y-163947619D01*
X71341666Y-163900000D01*
X71151190Y-163900000D01*
X70913095Y-163947619D01*
X70770238Y-163995238D01*
X70675000Y-164042857D01*
X70532142Y-164138095D01*
X70484523Y-164185714D01*
X71627380Y-162900000D02*
X71627380Y-163471428D01*
X71627380Y-163185714D02*
X70627380Y-163185714D01*
X70770238Y-163280952D01*
X70865476Y-163376190D01*
X70913095Y-163471428D01*
%TO.C,F6*%
X150541666Y-108278571D02*
X150208333Y-108278571D01*
X150208333Y-108802380D02*
X150208333Y-107802380D01*
X150684523Y-107802380D01*
X151494047Y-107802380D02*
X151303571Y-107802380D01*
X151208333Y-107850000D01*
X151160714Y-107897619D01*
X151065476Y-108040476D01*
X151017857Y-108230952D01*
X151017857Y-108611904D01*
X151065476Y-108707142D01*
X151113095Y-108754761D01*
X151208333Y-108802380D01*
X151398809Y-108802380D01*
X151494047Y-108754761D01*
X151541666Y-108707142D01*
X151589285Y-108611904D01*
X151589285Y-108373809D01*
X151541666Y-108278571D01*
X151494047Y-108230952D01*
X151398809Y-108183333D01*
X151208333Y-108183333D01*
X151113095Y-108230952D01*
X151065476Y-108278571D01*
X151017857Y-108373809D01*
%TO.C,Cell(14+)1*%
X306782142Y-106857142D02*
X306829761Y-106904761D01*
X306877380Y-107047619D01*
X306877380Y-107142857D01*
X306829761Y-107285714D01*
X306734523Y-107380952D01*
X306639285Y-107428571D01*
X306448809Y-107476190D01*
X306305952Y-107476190D01*
X306115476Y-107428571D01*
X306020238Y-107380952D01*
X305925000Y-107285714D01*
X305877380Y-107142857D01*
X305877380Y-107047619D01*
X305925000Y-106904761D01*
X305972619Y-106857142D01*
X306829761Y-106047619D02*
X306877380Y-106142857D01*
X306877380Y-106333333D01*
X306829761Y-106428571D01*
X306734523Y-106476190D01*
X306353571Y-106476190D01*
X306258333Y-106428571D01*
X306210714Y-106333333D01*
X306210714Y-106142857D01*
X306258333Y-106047619D01*
X306353571Y-106000000D01*
X306448809Y-106000000D01*
X306544047Y-106476190D01*
X306877380Y-105428571D02*
X306829761Y-105523809D01*
X306734523Y-105571428D01*
X305877380Y-105571428D01*
X306877380Y-104904761D02*
X306829761Y-105000000D01*
X306734523Y-105047619D01*
X305877380Y-105047619D01*
X307258333Y-104238095D02*
X307210714Y-104285714D01*
X307067857Y-104380952D01*
X306972619Y-104428571D01*
X306829761Y-104476190D01*
X306591666Y-104523809D01*
X306401190Y-104523809D01*
X306163095Y-104476190D01*
X306020238Y-104428571D01*
X305925000Y-104380952D01*
X305782142Y-104285714D01*
X305734523Y-104238095D01*
X306877380Y-103333333D02*
X306877380Y-103904761D01*
X306877380Y-103619047D02*
X305877380Y-103619047D01*
X306020238Y-103714285D01*
X306115476Y-103809523D01*
X306163095Y-103904761D01*
X306210714Y-102476190D02*
X306877380Y-102476190D01*
X305829761Y-102714285D02*
X306544047Y-102952380D01*
X306544047Y-102333333D01*
X306496428Y-101952380D02*
X306496428Y-101190476D01*
X306877380Y-101571428D02*
X306115476Y-101571428D01*
X307258333Y-100809523D02*
X307210714Y-100761904D01*
X307067857Y-100666666D01*
X306972619Y-100619047D01*
X306829761Y-100571428D01*
X306591666Y-100523809D01*
X306401190Y-100523809D01*
X306163095Y-100571428D01*
X306020238Y-100619047D01*
X305925000Y-100666666D01*
X305782142Y-100761904D01*
X305734523Y-100809523D01*
X306877380Y-99523809D02*
X306877380Y-100095238D01*
X306877380Y-99809523D02*
X305877380Y-99809523D01*
X306020238Y-99904761D01*
X306115476Y-100000000D01*
X306163095Y-100095238D01*
%TO.C,F2*%
X80554166Y-108278571D02*
X80220833Y-108278571D01*
X80220833Y-108802380D02*
X80220833Y-107802380D01*
X80697023Y-107802380D01*
X81030357Y-107897619D02*
X81077976Y-107850000D01*
X81173214Y-107802380D01*
X81411309Y-107802380D01*
X81506547Y-107850000D01*
X81554166Y-107897619D01*
X81601785Y-107992857D01*
X81601785Y-108088095D01*
X81554166Y-108230952D01*
X80982738Y-108802380D01*
X81601785Y-108802380D01*
D11*
%TO.C,PAD(14+)1*%
X305450000Y-105000000D02*
X301050000Y-105000000D01*
X301050000Y-105000000D02*
X301050000Y-100600000D01*
X301050000Y-100600000D02*
X305450000Y-100600000D01*
X305450000Y-100600000D02*
X305450000Y-105000000D01*
%TO.C,F17*%
X345977064Y-161915000D02*
X344772936Y-161915000D01*
X345977064Y-163735000D02*
X344772936Y-163735000D01*
%TO.C,F14*%
X302647936Y-105715000D02*
X303852064Y-105715000D01*
X302647936Y-107535000D02*
X303852064Y-107535000D01*
%TO.C,F16*%
X338947936Y-105715000D02*
X340152064Y-105715000D01*
X338947936Y-107535000D02*
X340152064Y-107535000D01*
%TO.C,G\u002A\u002A\u002A*%
G36*
X295777909Y-133387555D02*
G01*
X297220981Y-132746540D01*
X297696614Y-132644248D01*
X298484704Y-132474757D01*
X298638948Y-132470370D01*
X299403212Y-132662446D01*
X299535000Y-132870878D01*
X299794780Y-133013845D01*
X300645823Y-132833858D01*
X302075000Y-132352778D01*
X304615000Y-131434169D01*
X304615000Y-129491044D01*
X304364199Y-127926234D01*
X303627164Y-125994100D01*
X302710000Y-124238889D01*
X301884624Y-122788343D01*
X301317268Y-121734670D01*
X300987428Y-121015822D01*
X300874602Y-120569752D01*
X300958287Y-120334414D01*
X301217979Y-120247759D01*
X301388827Y-120240741D01*
X302112661Y-120389200D01*
X303476547Y-120780477D01*
X305199794Y-121333423D01*
X305390225Y-121397580D01*
X308831541Y-122874202D01*
X311590700Y-124738155D01*
X313653093Y-126976619D01*
X315004110Y-129576773D01*
X315127187Y-129942130D01*
X315409497Y-130667364D01*
X315700386Y-131158180D01*
X315888519Y-131294444D01*
X316493851Y-131165786D01*
X317952203Y-130810270D01*
X320081516Y-130273586D01*
X322699732Y-129601425D01*
X324546602Y-129121579D01*
X327846149Y-128287395D01*
X331255019Y-127472452D01*
X334574263Y-126719572D01*
X337604930Y-126071573D01*
X340148069Y-125571276D01*
X342004730Y-125261500D01*
X342861762Y-125179630D01*
X343357395Y-125251204D01*
X343096385Y-125480713D01*
X342014706Y-125890340D01*
X340048332Y-126502264D01*
X337133239Y-127338666D01*
X334618750Y-128035337D01*
X329306613Y-129514678D01*
X325044850Y-130749025D01*
X321811213Y-131745233D01*
X319583454Y-132510153D01*
X318342139Y-133049048D01*
X318046806Y-133237904D01*
X318060824Y-133369268D01*
X318560625Y-133453574D01*
X319722643Y-133501256D01*
X321723312Y-133522748D01*
X324739064Y-133528483D01*
X326452948Y-133528704D01*
X330670611Y-133546707D01*
X333912020Y-133607245D01*
X336467839Y-133720106D01*
X338628734Y-133895080D01*
X339222500Y-133958780D01*
X341342675Y-134235626D01*
X343579621Y-134586718D01*
X345654743Y-134959643D01*
X347289444Y-135301990D01*
X348205127Y-135561348D01*
X348278193Y-135662398D01*
X347582537Y-135661433D01*
X345970486Y-135574193D01*
X343763995Y-135418756D01*
X343307092Y-135383239D01*
X339306314Y-135157949D01*
X334900246Y-135100980D01*
X332237500Y-135134719D01*
X328766855Y-135245290D01*
X325364787Y-135428906D01*
X322323027Y-135662714D01*
X319933304Y-135923861D01*
X318487349Y-136189496D01*
X318395534Y-136219025D01*
X318680032Y-136379217D01*
X319909895Y-136630159D01*
X321821627Y-136918418D01*
X321888034Y-136927252D01*
X326571942Y-137648980D01*
X330566937Y-138467269D01*
X333405441Y-139263116D01*
X334646320Y-139757275D01*
X335737151Y-140307249D01*
X336489715Y-140797904D01*
X336715792Y-141114110D01*
X336526460Y-141172222D01*
X335812299Y-141042261D01*
X334355061Y-140696393D01*
X332428266Y-140200637D01*
X331754320Y-140020346D01*
X327544758Y-139062126D01*
X323530406Y-138532344D01*
X319529541Y-138410262D01*
X318086621Y-138460633D01*
X315982076Y-138637938D01*
X313782733Y-138931775D01*
X311828980Y-139282060D01*
X310461203Y-139628707D01*
X310012500Y-139885889D01*
X310590099Y-140026070D01*
X312101694Y-140172125D01*
X314140000Y-140288519D01*
X317655057Y-140447830D01*
X320069930Y-140584750D01*
X321550784Y-140712549D01*
X322263781Y-140844495D01*
X322395000Y-140947694D01*
X321861755Y-141128887D01*
X321098230Y-141172222D01*
X319378641Y-141233517D01*
X316914364Y-141393515D01*
X314128696Y-141616384D01*
X311444932Y-141866291D01*
X309286370Y-142107406D01*
X308289767Y-142256456D01*
X307052896Y-142558868D01*
X306520432Y-142818976D01*
X306520000Y-142824129D01*
X307057638Y-143014589D01*
X308508676Y-143347227D01*
X310630301Y-143769619D01*
X312393750Y-144092277D01*
X315213401Y-144638246D01*
X317750918Y-145215028D01*
X319815023Y-145768900D01*
X321214441Y-146246134D01*
X321757894Y-146593006D01*
X321662961Y-146695817D01*
X320977110Y-146665341D01*
X319358447Y-146492387D01*
X317056711Y-146206002D01*
X314606415Y-145875122D01*
X310121502Y-145313979D01*
X306362161Y-145007131D01*
X303003762Y-144944381D01*
X299721675Y-145115533D01*
X297544170Y-145339203D01*
X293423294Y-146002003D01*
X289207600Y-146981386D01*
X285314838Y-148163576D01*
X282162757Y-149434797D01*
X281752604Y-149640133D01*
X280233625Y-150370844D01*
X278855110Y-150932983D01*
X277869204Y-151226039D01*
X277727599Y-151244596D01*
X276622290Y-151164365D01*
X274937353Y-150875592D01*
X273693101Y-150597982D01*
X271778599Y-150179473D01*
X270021301Y-149956504D01*
X267841666Y-149868876D01*
X266564883Y-149857544D01*
X264197135Y-149821980D01*
X262200814Y-149745864D01*
X261131664Y-149659293D01*
X260261539Y-149506743D01*
X260483116Y-149364051D01*
X261198447Y-149215407D01*
X262503578Y-149042415D01*
X264587963Y-148852567D01*
X266705961Y-148705635D01*
X269943510Y-148490626D01*
X271965870Y-148299136D01*
X272825463Y-148125858D01*
X272865000Y-148081832D01*
X272570334Y-147831460D01*
X272071250Y-147511693D01*
X271762446Y-147245024D01*
X271922013Y-146975275D01*
X272703636Y-146615880D01*
X274261000Y-146080276D01*
X275087500Y-145812752D01*
X277478862Y-145032411D01*
X278967572Y-144535804D01*
X288860879Y-144535804D01*
X289485639Y-144544054D01*
X290486250Y-144375608D01*
X291994334Y-144010664D01*
X293433768Y-143546372D01*
X294522172Y-143091365D01*
X294977162Y-142754277D01*
X294910410Y-142673608D01*
X293866722Y-142581719D01*
X292409663Y-142781103D01*
X290928529Y-143198520D01*
X290085731Y-143581306D01*
X289066282Y-144225542D01*
X288860879Y-144535804D01*
X278967572Y-144535804D01*
X280010794Y-144187804D01*
X282027211Y-143499002D01*
X283658164Y-142918474D01*
X284467143Y-142566896D01*
X284571008Y-142356451D01*
X284086623Y-142199323D01*
X283827497Y-142146163D01*
X282923184Y-142039759D01*
X281872167Y-142120518D01*
X280345557Y-142429077D01*
X279110287Y-142729011D01*
X277029516Y-143210231D01*
X274252745Y-143800340D01*
X271229741Y-144405331D01*
X269677230Y-144700662D01*
X266392298Y-145360769D01*
X262831549Y-146153358D01*
X259596511Y-146942256D01*
X258564730Y-147216307D01*
X255127303Y-148144708D01*
X251846679Y-149003596D01*
X248880061Y-149754406D01*
X246384648Y-150358571D01*
X244517643Y-150777524D01*
X243436246Y-150972699D01*
X243242041Y-150975447D01*
X243568015Y-150790422D01*
X244698283Y-150387938D01*
X246430330Y-149837241D01*
X247579929Y-149492195D01*
X250349478Y-148649254D01*
X253388597Y-147681968D01*
X256100973Y-146780686D01*
X256438364Y-146664486D01*
X258933245Y-145878463D01*
X261718723Y-145121052D01*
X264264575Y-144534423D01*
X264693364Y-144451028D01*
X268447633Y-143698835D01*
X271504393Y-142980770D01*
X273695017Y-142340200D01*
X274811927Y-141848763D01*
X275267798Y-141422430D01*
X274925600Y-141262406D01*
X273667032Y-141354126D01*
X272309429Y-141540670D01*
X269820863Y-141787438D01*
X267965526Y-141768468D01*
X266700472Y-141727034D01*
X265633225Y-141938701D01*
X264523296Y-142387494D01*
X262805874Y-143166854D01*
X262371255Y-142525499D01*
X262219979Y-141723477D01*
X262544932Y-140638346D01*
X263266296Y-139409885D01*
X264304253Y-138177877D01*
X265407455Y-137208330D01*
X266844489Y-136311453D01*
X268833514Y-135311413D01*
X271100451Y-134324601D01*
X273371224Y-133467409D01*
X275371755Y-132856229D01*
X275984742Y-132716509D01*
X276841290Y-132577837D01*
X277177832Y-132631871D01*
X276953544Y-132927821D01*
X276127605Y-133514896D01*
X274659191Y-134442306D01*
X274441916Y-134576310D01*
X273157135Y-135390521D01*
X272173804Y-136057530D01*
X271644991Y-136471647D01*
X271595000Y-136542084D01*
X271729290Y-136646072D01*
X272303145Y-136654725D01*
X273573047Y-136555073D01*
X275795478Y-136334146D01*
X275881250Y-136325334D01*
X277059629Y-136271290D01*
X277237355Y-136431584D01*
X276480662Y-136765390D01*
X274855788Y-137231881D01*
X274115071Y-137413996D01*
X271719832Y-138055683D01*
X270341068Y-138590699D01*
X270031486Y-138991620D01*
X270665180Y-139208915D01*
X271958743Y-139274327D01*
X273997680Y-139261171D01*
X276347473Y-139186240D01*
X278573604Y-139066325D01*
X280241554Y-138918220D01*
X280814488Y-138816685D01*
X281568333Y-138488790D01*
X282686192Y-137895830D01*
X283665785Y-137322756D01*
X285173419Y-136490955D01*
X286489913Y-135929223D01*
X287487235Y-135677118D01*
X288037349Y-135774198D01*
X288105000Y-135951204D01*
X287733545Y-136473946D01*
X287172696Y-136835142D01*
X286400974Y-137374638D01*
X286203496Y-137863885D01*
X286566782Y-138171080D01*
X287311250Y-138189981D01*
X289337032Y-137731364D01*
X291119796Y-136895448D01*
X292750727Y-135638170D01*
X292914474Y-135482249D01*
X293636808Y-134876538D01*
X297663307Y-134876538D01*
X297946862Y-135400542D01*
X299066517Y-135651917D01*
X299171503Y-135662110D01*
X300836214Y-135678599D01*
X301870253Y-135556150D01*
X302555812Y-135376349D01*
X302158734Y-135309710D01*
X301358703Y-135299744D01*
X299586845Y-135083822D01*
X298693260Y-134763426D01*
X297696614Y-134234259D01*
X297663307Y-134876538D01*
X293636808Y-134876538D01*
X293866722Y-134683744D01*
X294295677Y-134324045D01*
X295777909Y-133387555D01*
G37*
G36*
X204752876Y-117063070D02*
G01*
X204873208Y-117087608D01*
X204653526Y-117301635D01*
X203773782Y-117713237D01*
X203395078Y-117864697D01*
X201645241Y-118541155D01*
X207390091Y-118104739D01*
X211828515Y-117794657D01*
X215615888Y-117584284D01*
X218610478Y-117478493D01*
X220670552Y-117482159D01*
X221654378Y-117600155D01*
X221680129Y-117613330D01*
X221488510Y-117883819D01*
X220442805Y-118188505D01*
X220390122Y-118198888D01*
X219546078Y-118377295D01*
X219406242Y-118491495D01*
X220135606Y-118574296D01*
X221899164Y-118658505D01*
X222904600Y-118698880D01*
X225092148Y-118810383D01*
X226728896Y-118940078D01*
X227449632Y-119057103D01*
X227181126Y-119321733D01*
X225899811Y-119753253D01*
X223737672Y-120314902D01*
X220826695Y-120969917D01*
X219842500Y-121175960D01*
X217349223Y-121729354D01*
X214844619Y-122347640D01*
X213320292Y-122767171D01*
X211602466Y-123237843D01*
X210281636Y-123449523D01*
X208831441Y-123466165D01*
X207922792Y-123422982D01*
X205039462Y-123251593D01*
X203200381Y-123109495D01*
X202188214Y-122971918D01*
X201785624Y-122814095D01*
X201745000Y-122718928D01*
X201267157Y-122431333D01*
X199773932Y-122242320D01*
X197175786Y-122144163D01*
X194865834Y-122125434D01*
X192424898Y-122172216D01*
X191225343Y-122317753D01*
X191266596Y-122562493D01*
X192548084Y-122906885D01*
X193609914Y-123108847D01*
X196045006Y-123718490D01*
X198608262Y-124655312D01*
X201052124Y-125797178D01*
X203129036Y-127021950D01*
X204591441Y-128207494D01*
X205004828Y-128730699D01*
X205193661Y-129381044D01*
X205109844Y-130106284D01*
X204815201Y-130777611D01*
X204371557Y-131266217D01*
X203840738Y-131443295D01*
X203711125Y-131426029D01*
X203369338Y-131145024D01*
X203026688Y-130543380D01*
X202828285Y-129986807D01*
X202069528Y-128631863D01*
X200676976Y-127420950D01*
X198804836Y-126431418D01*
X196607312Y-125740618D01*
X194238611Y-125425901D01*
X193713595Y-125414815D01*
X192773802Y-125467257D01*
X192337918Y-125673237D01*
X192408979Y-126105737D01*
X192990023Y-126837736D01*
X193807500Y-127671706D01*
X194569442Y-128565811D01*
X195101059Y-129471349D01*
X195375738Y-130286133D01*
X195366866Y-130907976D01*
X195047829Y-131234692D01*
X194740154Y-131252797D01*
X194205312Y-131013276D01*
X193343486Y-130444096D01*
X192309133Y-129650857D01*
X191905117Y-129314473D01*
X190121981Y-127975926D01*
X188330967Y-126968641D01*
X186623776Y-126335763D01*
X185116198Y-126120370D01*
X184148726Y-126162528D01*
X183965000Y-126212074D01*
X183818347Y-126619754D01*
X183432337Y-127349958D01*
X182887902Y-128274241D01*
X182265971Y-129264160D01*
X181647471Y-130191269D01*
X181113334Y-130927125D01*
X180744487Y-131343282D01*
X180720060Y-131362189D01*
X179556254Y-132029861D01*
X178182541Y-132586997D01*
X176933857Y-132907248D01*
X176535504Y-132940741D01*
X176026997Y-132871241D01*
X176187876Y-132584728D01*
X176560983Y-132293981D01*
X177424961Y-131448340D01*
X178215567Y-130286757D01*
X178838389Y-128963594D01*
X179092652Y-128154821D01*
X179203940Y-127455505D01*
X178949091Y-127046128D01*
X178123503Y-126750078D01*
X177226626Y-126544091D01*
X175699315Y-126138032D01*
X175176007Y-125745207D01*
X175391689Y-125297222D01*
X175621238Y-124966573D01*
X176030142Y-124307563D01*
X176536905Y-123452172D01*
X176626099Y-123298148D01*
X177198192Y-122400285D01*
X177769557Y-121656880D01*
X178228129Y-121211649D01*
X178276609Y-121181481D01*
X178868609Y-120962631D01*
X179508326Y-121123569D01*
X179774795Y-121247355D01*
X180224077Y-121410010D01*
X180803267Y-121437807D01*
X181712863Y-121295077D01*
X183153366Y-120946145D01*
X185325276Y-120355341D01*
X186271478Y-120091489D01*
X188949732Y-119375889D01*
X191647291Y-118711288D01*
X193983139Y-118188982D01*
X195135250Y-117967630D01*
X197188003Y-117666338D01*
X199521966Y-117393984D01*
X201791314Y-117181820D01*
X203650225Y-117061098D01*
X204752876Y-117063070D01*
G37*
G36*
X266462304Y-120137231D02*
G01*
X268706428Y-120189855D01*
X270443730Y-120307326D01*
X272055469Y-120514449D01*
X273732933Y-120801484D01*
X277845898Y-121748110D01*
X282012912Y-123076409D01*
X286043244Y-124706502D01*
X289746161Y-126558512D01*
X292930932Y-128552561D01*
X293814657Y-129211665D01*
X294796920Y-130095469D01*
X295486231Y-130934921D01*
X295724500Y-131507284D01*
X295683301Y-132034551D01*
X295392867Y-132156274D01*
X294604349Y-131937280D01*
X294370304Y-131860062D01*
X293267684Y-131431519D01*
X291790372Y-130777256D01*
X290565399Y-130189912D01*
X288684299Y-129380436D01*
X286468827Y-128606399D01*
X285093846Y-128215010D01*
X282796845Y-127606167D01*
X280792870Y-127009008D01*
X279318376Y-126500073D01*
X278609814Y-126155906D01*
X278580000Y-126106428D01*
X279140272Y-125972590D01*
X280540820Y-125833427D01*
X281120000Y-125794872D01*
X282707967Y-125649621D01*
X283593679Y-125469194D01*
X283660000Y-125412713D01*
X283181727Y-125021236D01*
X281932870Y-124463243D01*
X280192370Y-123837078D01*
X278239169Y-123241082D01*
X276352211Y-122773600D01*
X275942654Y-122691915D01*
X273646314Y-122317483D01*
X271955651Y-122150036D01*
X271013749Y-122186757D01*
X270963695Y-122424827D01*
X271707427Y-122775343D01*
X271925833Y-123000617D01*
X271167385Y-123234099D01*
X270119927Y-123413499D01*
X268547268Y-123722750D01*
X267885383Y-124086938D01*
X267785000Y-124446852D01*
X267709524Y-124822280D01*
X267284937Y-125041072D01*
X266214006Y-125168311D01*
X264199497Y-125269082D01*
X263989659Y-125277908D01*
X259275350Y-125568619D01*
X255499060Y-126024907D01*
X252375059Y-126686568D01*
X251050244Y-127080009D01*
X249491970Y-127639459D01*
X248422752Y-128121685D01*
X248100000Y-128380438D01*
X248684886Y-128749015D01*
X250291239Y-129001375D01*
X252696601Y-129116129D01*
X255402500Y-129082569D01*
X257818427Y-129030866D01*
X259513333Y-129110509D01*
X261006219Y-129351245D01*
X261330776Y-129422369D01*
X263349954Y-129746567D01*
X265746902Y-129959826D01*
X266364161Y-129986053D01*
X268249456Y-130082098D01*
X269374733Y-130306130D01*
X270249629Y-130775191D01*
X270466423Y-130928162D01*
X271653577Y-131785199D01*
X269047598Y-133533670D01*
X267218236Y-134677397D01*
X265168054Y-135821973D01*
X263031429Y-136907304D01*
X260942737Y-137873295D01*
X259036354Y-138659852D01*
X257446656Y-139206881D01*
X256308020Y-139454288D01*
X255872592Y-139425651D01*
X256036877Y-139184776D01*
X256780604Y-138657633D01*
X257958083Y-137944116D01*
X258388226Y-137700795D01*
X259899611Y-136838249D01*
X261259440Y-136026095D01*
X262205537Y-135421510D01*
X262296450Y-135357804D01*
X262845517Y-134803099D01*
X263201240Y-134140512D01*
X263342695Y-133499852D01*
X263248958Y-133010930D01*
X262899107Y-132803555D01*
X262705000Y-132823148D01*
X262212510Y-133147508D01*
X262070000Y-133539627D01*
X261484510Y-133989492D01*
X259879739Y-134493806D01*
X257483235Y-135017576D01*
X254522548Y-135525811D01*
X251225227Y-135983520D01*
X247818819Y-136355713D01*
X244530875Y-136607398D01*
X241588943Y-136703583D01*
X241493870Y-136703704D01*
X239176549Y-136664136D01*
X237003827Y-136560915D01*
X235270054Y-136417265D01*
X234269583Y-136256409D01*
X234201734Y-136128370D01*
X234902403Y-136056532D01*
X236551983Y-135945328D01*
X238839625Y-135815003D01*
X239697057Y-135770465D01*
X242559105Y-135598639D01*
X245301492Y-135389063D01*
X247393699Y-135182981D01*
X247624508Y-135154156D01*
X249735553Y-134784148D01*
X251684787Y-134285101D01*
X253149207Y-133756393D01*
X253805811Y-133297402D01*
X253815000Y-133249517D01*
X253554529Y-133013184D01*
X252647359Y-132965495D01*
X250904853Y-133109341D01*
X249119340Y-133321467D01*
X246521209Y-133523327D01*
X243190519Y-133608112D01*
X239590140Y-133581173D01*
X236182946Y-133447866D01*
X233431806Y-133213542D01*
X232860000Y-133133409D01*
X231974309Y-132984645D01*
X231631237Y-132880486D01*
X231979043Y-132807713D01*
X233165987Y-132753105D01*
X235340326Y-132703446D01*
X238257500Y-132652167D01*
X241335181Y-132587739D01*
X244019602Y-132508874D01*
X246014727Y-132425747D01*
X247006391Y-132351439D01*
X248455542Y-131944815D01*
X248915949Y-131392636D01*
X248438692Y-130915359D01*
X247857232Y-130702824D01*
X246962316Y-130574868D01*
X245476651Y-130514917D01*
X243122946Y-130506400D01*
X241734940Y-130514721D01*
X239010371Y-130531435D01*
X237361418Y-130520229D01*
X236594002Y-130463524D01*
X236514047Y-130343745D01*
X236927474Y-130143315D01*
X237055003Y-130090893D01*
X237776802Y-129775399D01*
X237595305Y-129720575D01*
X236392792Y-129877660D01*
X235024783Y-130021128D01*
X234261299Y-130010351D01*
X234260074Y-130009904D01*
X234299625Y-129743031D01*
X234774564Y-129205035D01*
X235133226Y-128886194D01*
X236631119Y-127970226D01*
X238985853Y-126921275D01*
X241937228Y-125830152D01*
X245225040Y-124787668D01*
X248589088Y-123884636D01*
X250961081Y-123362207D01*
X253333674Y-122893377D01*
X254694221Y-122601133D01*
X255155109Y-122443398D01*
X254828724Y-122378098D01*
X253827453Y-122363157D01*
X253630953Y-122362670D01*
X250938229Y-122529273D01*
X247786939Y-123002491D01*
X244529793Y-123727050D01*
X243972500Y-123876311D01*
X241869414Y-124421477D01*
X240695468Y-124651500D01*
X240460930Y-124575938D01*
X241176065Y-124204345D01*
X242851142Y-123546277D01*
X243401755Y-123345107D01*
X247609607Y-122003108D01*
X251777217Y-121014368D01*
X252281858Y-120919467D01*
X254343098Y-120558702D01*
X256015997Y-120327317D01*
X257696354Y-120196839D01*
X259779969Y-120138793D01*
X262662641Y-120124705D01*
X263330104Y-120124648D01*
X266462304Y-120137231D01*
G37*
G36*
X279060000Y-111162130D02*
G01*
X279772666Y-111289091D01*
X282456181Y-111973227D01*
X285129896Y-113022290D01*
X287860469Y-114467777D01*
X290714555Y-116341184D01*
X291186720Y-116682448D01*
X294246203Y-119062542D01*
X296530701Y-121190131D01*
X298113312Y-123162834D01*
X299067133Y-125078269D01*
X299465261Y-127034055D01*
X299486632Y-127766667D01*
X299423385Y-128862859D01*
X299262049Y-129502755D01*
X298998287Y-129699142D01*
X298848324Y-129648148D01*
X298281136Y-129303615D01*
X297242067Y-128657255D01*
X295898620Y-127813652D01*
X294916916Y-127193514D01*
X290596626Y-124833593D01*
X285766883Y-122898696D01*
X280441790Y-121392095D01*
X274635454Y-120317063D01*
X268361977Y-119676874D01*
X261653636Y-119474753D01*
X255199721Y-119665889D01*
X249416801Y-120217527D01*
X244239833Y-121146777D01*
X239603771Y-122470750D01*
X235443572Y-124206557D01*
X231694192Y-126371307D01*
X229577293Y-127912689D01*
X227576789Y-129682910D01*
X225974938Y-131548107D01*
X224715203Y-133600674D01*
X223741043Y-135933007D01*
X222995922Y-138637500D01*
X222985377Y-138685096D01*
X222668510Y-140043785D01*
X222358631Y-141234832D01*
X222078411Y-142181142D01*
X221850524Y-142805625D01*
X221707798Y-143029211D01*
X221135231Y-143004314D01*
X220548864Y-142523296D01*
X219961879Y-141600298D01*
X219574262Y-140740287D01*
X219198745Y-139879904D01*
X218853704Y-139218375D01*
X218604223Y-138878022D01*
X218573887Y-138860081D01*
X218005223Y-138863564D01*
X217040092Y-139181027D01*
X215618557Y-139839205D01*
X213680682Y-140864830D01*
X212120243Y-141738660D01*
X210014854Y-142883411D01*
X207884898Y-143950244D01*
X205881543Y-144872028D01*
X204155953Y-145581633D01*
X202859297Y-146011930D01*
X202274088Y-146111111D01*
X202331350Y-145921852D01*
X202898080Y-145417582D01*
X203862591Y-144693559D01*
X204273250Y-144406018D01*
X205391600Y-143526167D01*
X206682756Y-142337261D01*
X207998210Y-140985315D01*
X209189454Y-139616341D01*
X209356345Y-139408333D01*
X210512641Y-137978186D01*
X211772963Y-136468503D01*
X212990689Y-135052215D01*
X214019196Y-133902251D01*
X214085829Y-133830256D01*
X216207869Y-131544772D01*
X214481897Y-131875341D01*
X213260402Y-132159908D01*
X211355380Y-132661159D01*
X209067205Y-133298362D01*
X207509758Y-133749251D01*
X204604521Y-134579129D01*
X202591882Y-135083970D01*
X201429316Y-135257008D01*
X201074298Y-135091476D01*
X201484304Y-134580607D01*
X202616808Y-133717635D01*
X203501098Y-133111378D01*
X205650051Y-131756050D01*
X207955564Y-130500327D01*
X210612540Y-129255047D01*
X213815883Y-127931046D01*
X217760499Y-126439160D01*
X219342178Y-125864487D01*
X221895223Y-124934714D01*
X224076497Y-124121918D01*
X225744213Y-123480462D01*
X226756578Y-123064709D01*
X226996792Y-122929676D01*
X226200559Y-122919053D01*
X224583711Y-123063670D01*
X222480895Y-123323393D01*
X220226760Y-123658086D01*
X218668110Y-123928540D01*
X216903034Y-124224723D01*
X215624852Y-124375118D01*
X215219014Y-124368770D01*
X215388407Y-124126906D01*
X216351465Y-123672208D01*
X217902721Y-123082206D01*
X219836709Y-122434432D01*
X221947963Y-121806418D01*
X222176239Y-121743500D01*
X224173722Y-121254779D01*
X226845201Y-120678107D01*
X229859921Y-120076572D01*
X232887126Y-119513259D01*
X235596060Y-119051257D01*
X237655968Y-118753651D01*
X238106312Y-118705076D01*
X239363159Y-118534648D01*
X239845000Y-118370990D01*
X239243325Y-118182359D01*
X237553930Y-117956554D01*
X234950263Y-117711781D01*
X231605774Y-117466245D01*
X230637500Y-117404603D01*
X228358184Y-117243613D01*
X226578611Y-117080686D01*
X225668340Y-116949898D01*
X225652765Y-116944982D01*
X225893561Y-116787048D01*
X227193332Y-116569822D01*
X229360325Y-116315644D01*
X232202786Y-116046853D01*
X235528962Y-115785789D01*
X235717500Y-115772425D01*
X237657748Y-115673430D01*
X240556084Y-115573500D01*
X244100854Y-115481162D01*
X247980401Y-115404943D01*
X250462191Y-115368966D01*
X253999497Y-115314382D01*
X257021999Y-115246723D01*
X259333019Y-115172135D01*
X260735881Y-115096766D01*
X261068783Y-115037471D01*
X260401180Y-114856540D01*
X258841879Y-114516310D01*
X256634753Y-114068099D01*
X254420342Y-113638429D01*
X251890089Y-113137534D01*
X249842189Y-112694965D01*
X248505728Y-112362717D01*
X248100000Y-112203914D01*
X248677245Y-112099830D01*
X250229356Y-112080521D01*
X252486895Y-112136620D01*
X255180427Y-112258757D01*
X258040516Y-112437565D01*
X260482500Y-112634471D01*
X265394253Y-113241232D01*
X270643834Y-114174935D01*
X275874849Y-115368643D01*
X277864624Y-115899029D01*
X279940038Y-116455052D01*
X281622684Y-116864152D01*
X282671763Y-117069842D01*
X282887797Y-117077359D01*
X283016252Y-116743834D01*
X282722986Y-116089497D01*
X282094744Y-115224563D01*
X281218270Y-114259247D01*
X280180308Y-113303765D01*
X279493184Y-112764253D01*
X278451213Y-111981281D01*
X277681602Y-111362081D01*
X277329685Y-111024411D01*
X277321878Y-111004942D01*
X277810901Y-110989957D01*
X279060000Y-111162130D01*
G37*
G36*
X130170344Y-109385342D02*
G01*
X132613465Y-109605466D01*
X135441515Y-109917702D01*
X138387389Y-110296761D01*
X139546684Y-110462579D01*
X142278567Y-110845710D01*
X144858862Y-111172295D01*
X146856446Y-111388911D01*
X147353069Y-111429905D01*
X148777257Y-111598366D01*
X150227719Y-111944778D01*
X151964864Y-112542903D01*
X153626828Y-113206976D01*
X155639529Y-114004298D01*
X157028229Y-114462188D01*
X157924979Y-114619152D01*
X158317408Y-114574808D01*
X158940278Y-114485275D01*
X159533026Y-114661855D01*
X160176609Y-115159175D01*
X160951986Y-116031860D01*
X161473546Y-116704359D01*
X162618405Y-118224459D01*
X163498527Y-117425593D01*
X164193699Y-116966734D01*
X164763135Y-116912052D01*
X165188319Y-117197035D01*
X165450738Y-117757168D01*
X165531875Y-118527938D01*
X165413216Y-119444831D01*
X165076245Y-120443335D01*
X164610201Y-121299074D01*
X163996022Y-122275829D01*
X163726880Y-122861850D01*
X163828347Y-123121647D01*
X164325997Y-123119731D01*
X165245400Y-122920612D01*
X165252318Y-122918934D01*
X166725761Y-122628415D01*
X167335366Y-122680989D01*
X167082405Y-123075384D01*
X165968148Y-123810331D01*
X163993865Y-124884559D01*
X162560328Y-125610376D01*
X161073777Y-126376909D01*
X159978132Y-126995387D01*
X159426763Y-127376388D01*
X159404421Y-127450403D01*
X160115140Y-127431287D01*
X161449833Y-127233082D01*
X161680990Y-127190006D01*
X163129780Y-126987843D01*
X163736875Y-127080779D01*
X163561440Y-127432366D01*
X162662644Y-128006154D01*
X161099654Y-128765696D01*
X158931637Y-129674542D01*
X156217762Y-130696245D01*
X155675764Y-130889358D01*
X153599839Y-131638068D01*
X151943886Y-132264364D01*
X150879087Y-132701420D01*
X150573033Y-132881370D01*
X151221476Y-132829999D01*
X152664463Y-132601661D01*
X154508056Y-132261317D01*
X156417034Y-131910275D01*
X157839019Y-131688669D01*
X158450769Y-131644112D01*
X158332129Y-131916498D01*
X157497155Y-132496708D01*
X156041601Y-133330926D01*
X154061220Y-134365335D01*
X151651765Y-135546120D01*
X150749340Y-135972532D01*
X148063469Y-137248224D01*
X146149493Y-138203170D01*
X144948404Y-138872351D01*
X144401190Y-139290749D01*
X144448842Y-139493346D01*
X144755206Y-139525926D01*
X145766652Y-139400923D01*
X147595569Y-139057769D01*
X150011882Y-138544242D01*
X152785517Y-137908123D01*
X154278750Y-137548161D01*
X155466216Y-137282242D01*
X155943479Y-137287340D01*
X156025000Y-137507357D01*
X155575585Y-138267292D01*
X154217031Y-139312669D01*
X151933876Y-140654320D01*
X150335503Y-141493370D01*
X148736852Y-142322532D01*
X147464636Y-143009449D01*
X146677473Y-143466839D01*
X146500000Y-143603921D01*
X146997897Y-143762965D01*
X148412283Y-143662730D01*
X150624203Y-143316295D01*
X152574655Y-142936111D01*
X154583665Y-142531409D01*
X156147050Y-142237636D01*
X156949727Y-142113767D01*
X156972382Y-142112963D01*
X157200119Y-142315349D01*
X156911816Y-142887275D01*
X156150257Y-143775895D01*
X154958225Y-144928362D01*
X154035941Y-145740094D01*
X152987521Y-146650283D01*
X152165592Y-147391268D01*
X151679846Y-147862626D01*
X151595409Y-147974353D01*
X151991709Y-147878018D01*
X153033143Y-147502766D01*
X154521439Y-146921351D01*
X155070883Y-146699074D01*
X156988170Y-145961631D01*
X158257888Y-145584465D01*
X158965210Y-145543667D01*
X159058196Y-145579844D01*
X159413355Y-145942377D01*
X159865903Y-146631051D01*
X160326100Y-147506771D01*
X160388445Y-147641701D01*
X160895319Y-148520266D01*
X161427503Y-149072878D01*
X161904898Y-149266422D01*
X162247405Y-149067785D01*
X162375000Y-148462963D01*
X162637228Y-147834805D01*
X163375177Y-147635798D01*
X164515749Y-147870914D01*
X165430862Y-148255213D01*
X167474570Y-149171563D01*
X169725773Y-150053497D01*
X171939258Y-150816515D01*
X173869815Y-151376115D01*
X175272232Y-151647795D01*
X175276911Y-151648233D01*
X176897859Y-151725545D01*
X177453313Y-151549914D01*
X176963425Y-151112472D01*
X176752900Y-150998543D01*
X175530323Y-150366991D01*
X174673107Y-149926553D01*
X173977525Y-149477181D01*
X174180612Y-149272536D01*
X175353620Y-149305376D01*
X177567802Y-149568459D01*
X177835024Y-149605182D01*
X181014686Y-149986615D01*
X183803823Y-150211230D01*
X186043717Y-150280535D01*
X187575647Y-150196039D01*
X188240896Y-149959248D01*
X187880745Y-149571670D01*
X187751915Y-149510994D01*
X187440922Y-149290073D01*
X187978337Y-149190091D01*
X189443498Y-149167207D01*
X192928452Y-149034734D01*
X196341260Y-148608302D01*
X199844333Y-147895292D01*
X201654536Y-147493431D01*
X202996257Y-147234658D01*
X203559247Y-147175029D01*
X203341337Y-147392739D01*
X202517869Y-147851879D01*
X201794360Y-148204696D01*
X199360041Y-149169257D01*
X196141162Y-150199797D01*
X192528149Y-151183782D01*
X188911430Y-152008680D01*
X187940270Y-152197864D01*
X181807361Y-153103267D01*
X175670230Y-153562935D01*
X169622690Y-153600100D01*
X163758553Y-153237993D01*
X158171633Y-152499848D01*
X152955740Y-151408896D01*
X148204687Y-149988368D01*
X144012286Y-148261497D01*
X140472350Y-146251514D01*
X137678690Y-143981652D01*
X135725119Y-141475143D01*
X134760990Y-139028382D01*
X134620512Y-137412812D01*
X134839314Y-135645152D01*
X135371706Y-133806831D01*
X136171996Y-131979279D01*
X137194493Y-130243923D01*
X138393506Y-128682194D01*
X139723343Y-127375520D01*
X141138313Y-126405330D01*
X142073338Y-125996631D01*
X142876298Y-125768423D01*
X143281625Y-125862107D01*
X143557092Y-126348065D01*
X143575423Y-126391436D01*
X143833959Y-127082266D01*
X144132323Y-127986540D01*
X144295246Y-128527311D01*
X144686232Y-129439713D01*
X145198826Y-129956638D01*
X145793781Y-130048733D01*
X146141457Y-129907930D01*
X146337972Y-129606627D01*
X146629937Y-128927302D01*
X146983126Y-127959847D01*
X147363314Y-126794150D01*
X147505599Y-126325130D01*
X148108034Y-124582834D01*
X148791588Y-123097450D01*
X149524070Y-121917800D01*
X150273293Y-121092703D01*
X151007065Y-120670980D01*
X151262500Y-120627240D01*
X151662276Y-120820198D01*
X152029650Y-121353521D01*
X152221681Y-121887037D01*
X152648519Y-122967628D01*
X153267365Y-123592525D01*
X154068723Y-123758703D01*
X155043093Y-123463138D01*
X155771467Y-123017149D01*
X156449719Y-122119292D01*
X156497646Y-120956276D01*
X155951815Y-119663244D01*
X154848790Y-118375336D01*
X154417282Y-118012191D01*
X151862198Y-116463188D01*
X148411282Y-115018502D01*
X144434221Y-113821944D01*
X142564671Y-113401413D01*
X140647753Y-113031715D01*
X139094965Y-112797946D01*
X137510857Y-112669922D01*
X135499983Y-112617457D01*
X132666894Y-112610367D01*
X132212500Y-112611214D01*
X128749270Y-112645117D01*
X126119930Y-112745955D01*
X123893802Y-112937214D01*
X122213372Y-113156510D01*
X118185572Y-113961064D01*
X114426030Y-115113875D01*
X111284501Y-116493800D01*
X109685465Y-117495731D01*
X107771110Y-119279584D01*
X106789629Y-121081661D01*
X106738375Y-122978817D01*
X107614705Y-125047908D01*
X109348301Y-127291678D01*
X110233855Y-128307675D01*
X110910801Y-129166176D01*
X111303793Y-129765974D01*
X111360564Y-129994600D01*
X110941935Y-129991467D01*
X110146063Y-129645457D01*
X109109193Y-129043903D01*
X107967571Y-128274136D01*
X106857445Y-127423489D01*
X105915061Y-126579294D01*
X105723134Y-126381088D01*
X105121995Y-125673332D01*
X104710603Y-124989071D01*
X104454910Y-124213174D01*
X104320871Y-123230508D01*
X104274440Y-121925943D01*
X104272500Y-121475623D01*
X104229645Y-120057584D01*
X104105039Y-119017482D01*
X103904628Y-118386033D01*
X103637500Y-118193590D01*
X102838927Y-118475587D01*
X101879573Y-119096133D01*
X100898414Y-119936695D01*
X100034428Y-120878740D01*
X99442928Y-121771132D01*
X98950655Y-123482171D01*
X98999975Y-125520904D01*
X99570016Y-127793303D01*
X100639910Y-130205337D01*
X101707770Y-131975297D01*
X102487744Y-133168745D01*
X103114760Y-134191790D01*
X103541633Y-134962133D01*
X103721175Y-135397470D01*
X103707263Y-135462742D01*
X103240837Y-135356087D01*
X102446493Y-134921173D01*
X101476787Y-134265148D01*
X100484272Y-133495163D01*
X99621502Y-132718368D01*
X99279461Y-132352778D01*
X98780208Y-131688838D01*
X98112629Y-130685931D01*
X97354576Y-129466538D01*
X96583902Y-128153140D01*
X96378474Y-127788839D01*
X95670783Y-126575709D01*
X95000697Y-125524404D01*
X94428452Y-124722593D01*
X94014282Y-124257948D01*
X93902007Y-124184447D01*
X93304301Y-124189060D01*
X92722344Y-124612073D01*
X92175417Y-125401515D01*
X91682801Y-126505417D01*
X91263774Y-127871809D01*
X90937617Y-129448723D01*
X90723610Y-131184189D01*
X90641384Y-132973557D01*
X91101719Y-136233151D01*
X92560788Y-139218318D01*
X95055825Y-141961930D01*
X98624068Y-144496860D01*
X103302751Y-146855981D01*
X108719243Y-148933333D01*
X110115447Y-149367199D01*
X110741029Y-149456044D01*
X110717495Y-149325255D01*
X110644345Y-149002299D01*
X111098319Y-148991695D01*
X111842166Y-149256251D01*
X112495149Y-149734767D01*
X112831871Y-150217992D01*
X112698369Y-150477147D01*
X111919165Y-150457865D01*
X110448422Y-150177363D01*
X108516828Y-149697811D01*
X106355070Y-149081378D01*
X104193837Y-148390236D01*
X102263816Y-147686555D01*
X102099509Y-147620761D01*
X97070400Y-145307965D01*
X92791558Y-142769467D01*
X89429746Y-140117458D01*
X87270328Y-137644444D01*
X86479257Y-136190882D01*
X85824795Y-134456312D01*
X85347138Y-132609413D01*
X85086479Y-130818862D01*
X85083014Y-129253335D01*
X85154700Y-128766204D01*
X85280793Y-127879317D01*
X85274900Y-127205438D01*
X85141917Y-126853414D01*
X85067455Y-126826380D01*
X84222585Y-127035346D01*
X83020975Y-127616321D01*
X81561275Y-128502223D01*
X79942135Y-129625971D01*
X78262203Y-130920482D01*
X76620130Y-132318675D01*
X75621621Y-133249570D01*
X74640428Y-134178838D01*
X73799740Y-134932855D01*
X73215815Y-135409502D01*
X73036928Y-135519918D01*
X72855841Y-135404288D01*
X72875415Y-134930641D01*
X73060831Y-134203174D01*
X73377273Y-133326084D01*
X73789924Y-132403569D01*
X74263967Y-131539826D01*
X74474609Y-131217324D01*
X76181338Y-129329768D01*
X78861302Y-127167967D01*
X82491322Y-124749318D01*
X85387061Y-123026064D01*
X87401080Y-121859138D01*
X89356911Y-120703665D01*
X91056702Y-119677984D01*
X92302604Y-118900428D01*
X92501574Y-118770833D01*
X93559098Y-118043732D01*
X94003304Y-117632100D01*
X93892074Y-117452096D01*
X93435156Y-117418518D01*
X91317073Y-117624773D01*
X88705618Y-118245565D01*
X85591878Y-119283939D01*
X81966937Y-120742936D01*
X77821881Y-122625599D01*
X76933179Y-123051545D01*
X74967449Y-124000001D01*
X73645954Y-124630083D01*
X72840292Y-124996730D01*
X72422061Y-125154877D01*
X72262861Y-125159461D01*
X72234290Y-125065418D01*
X72234127Y-125062037D01*
X72515606Y-124759863D01*
X73275574Y-124158542D01*
X74370724Y-123369064D01*
X74815320Y-123062963D01*
X79795230Y-120083753D01*
X85377271Y-117510384D01*
X91548702Y-115347556D01*
X98296784Y-113599969D01*
X102889701Y-112705484D01*
X107239265Y-112054346D01*
X112155712Y-111474394D01*
X117108661Y-111020343D01*
X121567732Y-110746912D01*
X122052500Y-110728556D01*
X124527508Y-110633484D01*
X126679676Y-110534983D01*
X127997529Y-110457419D01*
X129025557Y-110345859D01*
X129004092Y-110157225D01*
X128371839Y-109880044D01*
X127626504Y-109508442D01*
X127507309Y-109322602D01*
X128379257Y-109282624D01*
X130170344Y-109385342D01*
G37*
G36*
X99510000Y-141525000D02*
G01*
X100115780Y-141736339D01*
X100145000Y-141774065D01*
X99653706Y-141875081D01*
X99510000Y-141877778D01*
X98899402Y-141696979D01*
X98875000Y-141628713D01*
X99264025Y-141488252D01*
X99510000Y-141525000D01*
G37*
G36*
X216704046Y-142245600D02*
G01*
X216626000Y-142877315D01*
X215054183Y-146155723D01*
X212902416Y-149069474D01*
X210107031Y-151683660D01*
X206604358Y-154063375D01*
X204606359Y-155165741D01*
X202643776Y-156125738D01*
X200864422Y-156891287D01*
X199419219Y-157405102D01*
X198459092Y-157609899D01*
X198227739Y-157586817D01*
X198247073Y-157315679D01*
X198656297Y-156747331D01*
X199177415Y-156194377D01*
X199882571Y-155479605D01*
X200353740Y-154949098D01*
X200474680Y-154759491D01*
X199981987Y-154812440D01*
X198640788Y-155083426D01*
X196656800Y-155528199D01*
X194272847Y-156093502D01*
X187864260Y-157564972D01*
X182010398Y-158721083D01*
X176446962Y-159605966D01*
X170909651Y-160263748D01*
X167462155Y-160569947D01*
X164900552Y-160746805D01*
X163393905Y-160782919D01*
X162956496Y-160664048D01*
X163602609Y-160375952D01*
X165346528Y-159904391D01*
X168202535Y-159235124D01*
X168975287Y-159061333D01*
X172107289Y-158351098D01*
X174130723Y-157844732D01*
X175031933Y-157507778D01*
X174797262Y-157305778D01*
X173413052Y-157204274D01*
X170865647Y-157168807D01*
X168223613Y-157164815D01*
X159688862Y-157001383D01*
X151882311Y-156498800D01*
X144603162Y-155638639D01*
X137650617Y-154402469D01*
X137282691Y-154325108D01*
X135186466Y-153833303D01*
X132782976Y-153195311D01*
X130287019Y-152477819D01*
X127913396Y-151747513D01*
X125876909Y-151071081D01*
X124392355Y-150515210D01*
X123674537Y-150146587D01*
X123640000Y-150089576D01*
X124155716Y-150092290D01*
X125535343Y-150282878D01*
X127527599Y-150624158D01*
X128561250Y-150817799D01*
X131099119Y-151256179D01*
X133779306Y-151639714D01*
X136312169Y-151936372D01*
X138408065Y-152114121D01*
X139777350Y-152140928D01*
X140087011Y-152092465D01*
X139896707Y-151864598D01*
X139149070Y-151361996D01*
X138089840Y-150741246D01*
X134732252Y-148627536D01*
X132504659Y-146666647D01*
X131419316Y-144871511D01*
X131362293Y-143641667D01*
X131465518Y-143283300D01*
X131636528Y-143109277D01*
X131966427Y-143163746D01*
X132546317Y-143490855D01*
X133467302Y-144134752D01*
X134820486Y-145139584D01*
X135487585Y-145640741D01*
X139018143Y-148020625D01*
X142801587Y-150000536D01*
X147012031Y-151649963D01*
X151823589Y-153038399D01*
X156670718Y-154095171D01*
X162300347Y-155006739D01*
X167945008Y-155543228D01*
X174065284Y-155746000D01*
X175100338Y-155750227D01*
X181316695Y-155583533D01*
X187013469Y-155063302D01*
X192252038Y-154171812D01*
X197093782Y-152891336D01*
X201600079Y-151204149D01*
X205832310Y-149092527D01*
X209851852Y-146538744D01*
X211675539Y-145188027D01*
X212942243Y-144197265D01*
X214045355Y-143317160D01*
X214840215Y-142664074D01*
X215132998Y-142406944D01*
X215835000Y-141939063D01*
X216403335Y-141899349D01*
X216704046Y-142245600D01*
G37*
%TO.C,F7*%
X188347936Y-161940000D02*
X189552064Y-161940000D01*
X188347936Y-163760000D02*
X189552064Y-163760000D01*
%TO.C,PAD(1+)1*%
X76850000Y-164500000D02*
X76850000Y-168900000D01*
X72450000Y-164500000D02*
X76850000Y-164500000D01*
X72450000Y-168900000D02*
X72450000Y-164500000D01*
X76850000Y-168900000D02*
X72450000Y-168900000D01*
%TO.C,VSense1*%
X115255000Y-151685000D02*
X115255000Y-150265000D01*
X122845000Y-151685000D02*
X122845000Y-117815000D01*
X115755000Y-150265000D02*
X115755000Y-119235000D01*
X122535000Y-151685000D02*
X122845000Y-151685000D01*
X122845000Y-117815000D02*
X122535000Y-117815000D01*
X115255000Y-117815000D02*
X121015000Y-117815000D01*
X115255000Y-150265000D02*
X115755000Y-150265000D01*
X121015000Y-151685000D02*
X115255000Y-151685000D01*
X115755000Y-119235000D02*
X115255000Y-119235000D01*
X115255000Y-119235000D02*
X115255000Y-117815000D01*
%TO.C,Cell(8+)1*%
X193400000Y-105425000D02*
X195800000Y-105425000D01*
X193400000Y-107825000D02*
X193400000Y-105425000D01*
X195800000Y-107825000D02*
X193400000Y-107825000D01*
X195800000Y-105425000D02*
X195800000Y-107825000D01*
%TO.C,PAD(12+)1*%
X262950000Y-100600000D02*
X267350000Y-100600000D01*
X262950000Y-105000000D02*
X262950000Y-100600000D01*
X267350000Y-105000000D02*
X262950000Y-105000000D01*
X267350000Y-100600000D02*
X267350000Y-105000000D01*
%TO.C,Cell(3+)1*%
X105850000Y-161675000D02*
X108250000Y-161675000D01*
X108250000Y-164075000D02*
X105850000Y-164075000D01*
X108250000Y-161675000D02*
X108250000Y-164075000D01*
X105850000Y-164075000D02*
X105850000Y-161675000D01*
%TO.C,PAD(8+)1*%
X186750000Y-105000000D02*
X186750000Y-100600000D01*
X191150000Y-105000000D02*
X186750000Y-105000000D01*
X186750000Y-100600000D02*
X191150000Y-100600000D01*
X191150000Y-100600000D02*
X191150000Y-105000000D01*
%TO.C,PAD(17+)1*%
X343225000Y-168900000D02*
X343225000Y-164500000D01*
X347625000Y-164500000D02*
X347625000Y-168900000D01*
X343225000Y-164500000D02*
X347625000Y-164500000D01*
X347625000Y-168900000D02*
X343225000Y-168900000D01*
%TO.C,F9*%
X226422936Y-163785000D02*
X227627064Y-163785000D01*
X226422936Y-161965000D02*
X227627064Y-161965000D01*
%TO.C,F4*%
X112122936Y-105715000D02*
X113327064Y-105715000D01*
X112122936Y-107535000D02*
X113327064Y-107535000D01*
%TO.C,PAD(10+)1*%
X229250000Y-100600000D02*
X229250000Y-105000000D01*
X224850000Y-105000000D02*
X224850000Y-100600000D01*
X224850000Y-100600000D02*
X229250000Y-100600000D01*
X229250000Y-105000000D02*
X224850000Y-105000000D01*
%TO.C,Cell(9+)1*%
X222575000Y-164075000D02*
X220175000Y-164075000D01*
X222575000Y-161675000D02*
X222575000Y-164075000D01*
X220175000Y-161675000D02*
X222575000Y-161675000D01*
X220175000Y-164075000D02*
X220175000Y-161675000D01*
%TO.C,Cell(16+)1*%
X340700000Y-111575000D02*
X338300000Y-111575000D01*
X338300000Y-111575000D02*
X338300000Y-109175000D01*
X338300000Y-109175000D02*
X340700000Y-109175000D01*
X340700000Y-109175000D02*
X340700000Y-111575000D01*
%TO.C,Cell(5+)1*%
X143975000Y-161675000D02*
X146375000Y-161675000D01*
X146375000Y-164075000D02*
X143975000Y-164075000D01*
X146375000Y-161675000D02*
X146375000Y-164075000D01*
X143975000Y-164075000D02*
X143975000Y-161675000D01*
%TO.C,Cell(2+)1*%
X87750000Y-105425000D02*
X87750000Y-107825000D01*
X85350000Y-107825000D02*
X85350000Y-105425000D01*
X87750000Y-107825000D02*
X85350000Y-107825000D01*
X85350000Y-105425000D02*
X87750000Y-105425000D01*
%TO.C,Cell(12+)1*%
X272025000Y-107825000D02*
X269625000Y-107825000D01*
X269625000Y-107825000D02*
X269625000Y-105425000D01*
X272025000Y-105425000D02*
X272025000Y-107825000D01*
X269625000Y-105425000D02*
X272025000Y-105425000D01*
%TO.C,VSenseAUX1*%
X310135000Y-81555000D02*
X311135000Y-82555000D01*
X311135000Y-82555000D02*
X311135000Y-84670000D01*
X276765000Y-84670000D02*
X276765000Y-82555000D01*
X276765000Y-82555000D02*
X277765000Y-81555000D01*
X311135000Y-91685000D02*
X311135000Y-87860000D01*
X276765000Y-91685000D02*
X311135000Y-91685000D01*
X277765000Y-81555000D02*
X310135000Y-81555000D01*
X276765000Y-87860000D02*
X276765000Y-91685000D01*
%TO.C,Cell_Diff1*%
X72545000Y-113835000D02*
X72045000Y-113835000D01*
X79325000Y-119285000D02*
X79635000Y-119285000D01*
X72045000Y-113835000D02*
X72045000Y-112415000D01*
X72045000Y-119285000D02*
X72045000Y-117865000D01*
X79635000Y-112415000D02*
X79325000Y-112415000D01*
X79635000Y-119285000D02*
X79635000Y-112415000D01*
X72545000Y-117865000D02*
X72545000Y-113835000D01*
X72045000Y-117865000D02*
X72545000Y-117865000D01*
X77805000Y-119285000D02*
X72045000Y-119285000D01*
X72045000Y-112415000D02*
X77805000Y-112415000D01*
%TO.C,F10*%
X226472936Y-107535000D02*
X227677064Y-107535000D01*
X226472936Y-105715000D02*
X227677064Y-105715000D01*
%TO.C,PAD(3+)1*%
X114950000Y-168900000D02*
X110550000Y-168900000D01*
X110550000Y-168900000D02*
X110550000Y-164500000D01*
X110550000Y-164500000D02*
X114950000Y-164500000D01*
X114950000Y-164500000D02*
X114950000Y-168900000D01*
%TO.C,PAD(16+)1*%
X341750000Y-105000000D02*
X337350000Y-105000000D01*
X341750000Y-100600000D02*
X341750000Y-105000000D01*
X337350000Y-100600000D02*
X341750000Y-100600000D01*
X337350000Y-105000000D02*
X337350000Y-100600000D01*
%TO.C,Cell(11+)1*%
X258275000Y-161650000D02*
X260675000Y-161650000D01*
X260675000Y-161650000D02*
X260675000Y-164050000D01*
X260675000Y-164050000D02*
X258275000Y-164050000D01*
X258275000Y-164050000D02*
X258275000Y-161650000D01*
%TO.C,F12*%
X264572936Y-107535000D02*
X265777064Y-107535000D01*
X264572936Y-105715000D02*
X265777064Y-105715000D01*
%TO.C,F0*%
X72322936Y-105715000D02*
X73527064Y-105715000D01*
X72322936Y-107535000D02*
X73527064Y-107535000D01*
%TO.C,PAD(2+)1*%
X83100000Y-100600000D02*
X83100000Y-105000000D01*
X83100000Y-105000000D02*
X78700000Y-105000000D01*
X78700000Y-105000000D02*
X78700000Y-100600000D01*
X78700000Y-100600000D02*
X83100000Y-100600000D01*
%TO.C,Cell(13+)1*%
X296375000Y-161700000D02*
X298775000Y-161700000D01*
X298775000Y-161700000D02*
X298775000Y-164100000D01*
X298775000Y-164100000D02*
X296375000Y-164100000D01*
X296375000Y-164100000D02*
X296375000Y-161700000D01*
%TO.C,F3*%
X112097936Y-163785000D02*
X113302064Y-163785000D01*
X112097936Y-161965000D02*
X113302064Y-161965000D01*
%TO.C,F8*%
X188347936Y-107535000D02*
X189552064Y-107535000D01*
X188347936Y-105715000D02*
X189552064Y-105715000D01*
%TO.C,F1*%
X75252064Y-163785000D02*
X74047936Y-163785000D01*
X75252064Y-161965000D02*
X74047936Y-161965000D01*
%TO.C,PAD(18+)1*%
X347625000Y-100600000D02*
X347625000Y-105000000D01*
X343225000Y-100600000D02*
X347625000Y-100600000D01*
X343225000Y-105000000D02*
X343225000Y-100600000D01*
X347625000Y-105000000D02*
X343225000Y-105000000D01*
%TO.C,Cell(6+)1*%
X155325000Y-107825000D02*
X155325000Y-105425000D01*
X157725000Y-107825000D02*
X155325000Y-107825000D01*
X155325000Y-105425000D02*
X157725000Y-105425000D01*
X157725000Y-105425000D02*
X157725000Y-107825000D01*
%TO.C,F11*%
X264522936Y-161940000D02*
X265727064Y-161940000D01*
X264522936Y-163760000D02*
X265727064Y-163760000D01*
%TO.C,PAD(5+)1*%
X153050000Y-168900000D02*
X148650000Y-168900000D01*
X153050000Y-164500000D02*
X153050000Y-168900000D01*
X148650000Y-168900000D02*
X148650000Y-164500000D01*
X148650000Y-164500000D02*
X153050000Y-164500000D01*
%TO.C,Cell(18+)1*%
X346650000Y-109175000D02*
X346650000Y-111575000D01*
X346650000Y-111575000D02*
X344250000Y-111575000D01*
X344250000Y-111575000D02*
X344250000Y-109175000D01*
X344250000Y-109175000D02*
X346650000Y-109175000D01*
%TO.C,F18*%
X344847936Y-105715000D02*
X346052064Y-105715000D01*
X344847936Y-107535000D02*
X346052064Y-107535000D01*
%TO.C,F15*%
X340102064Y-163760000D02*
X338897936Y-163760000D01*
X340102064Y-161940000D02*
X338897936Y-161940000D01*
%TO.C,Cell(10+)1*%
X231525000Y-105425000D02*
X233925000Y-105425000D01*
X233925000Y-107825000D02*
X231525000Y-107825000D01*
X233925000Y-105425000D02*
X233925000Y-107825000D01*
X231525000Y-107825000D02*
X231525000Y-105425000D01*
%TO.C,PAD(6+)1*%
X153050000Y-105000000D02*
X148650000Y-105000000D01*
X153050000Y-100600000D02*
X153050000Y-105000000D01*
X148650000Y-105000000D02*
X148650000Y-100600000D01*
X148650000Y-100600000D02*
X153050000Y-100600000D01*
%TO.C,Cell(1-)1*%
X71725000Y-109125000D02*
X74125000Y-109125000D01*
X71725000Y-111525000D02*
X71725000Y-109125000D01*
X74125000Y-111525000D02*
X71725000Y-111525000D01*
X74125000Y-109125000D02*
X74125000Y-111525000D01*
%TO.C,PAD(9+)1*%
X229250000Y-168900000D02*
X224850000Y-168900000D01*
X224850000Y-164500000D02*
X229250000Y-164500000D01*
X229250000Y-164500000D02*
X229250000Y-168900000D01*
X224850000Y-168900000D02*
X224850000Y-164500000D01*
%TO.C,PAD(15+)1*%
X341750000Y-168900000D02*
X337350000Y-168900000D01*
X341750000Y-164500000D02*
X341750000Y-168900000D01*
X337350000Y-168900000D02*
X337350000Y-164500000D01*
X337350000Y-164500000D02*
X341750000Y-164500000D01*
%TO.C,F13*%
X302622936Y-163785000D02*
X303827064Y-163785000D01*
X302622936Y-161965000D02*
X303827064Y-161965000D01*
%TO.C,Cell(7+)1*%
X184500000Y-161650000D02*
X184500000Y-164050000D01*
X182100000Y-161650000D02*
X184500000Y-161650000D01*
X184500000Y-164050000D02*
X182100000Y-164050000D01*
X182100000Y-164050000D02*
X182100000Y-161650000D01*
%TO.C,F5*%
X150222936Y-163785000D02*
X151427064Y-163785000D01*
X150222936Y-161965000D02*
X151427064Y-161965000D01*
%TO.C,Cell(17+)1*%
X346595000Y-160320000D02*
X344195000Y-160320000D01*
X344195000Y-160320000D02*
X344195000Y-157920000D01*
X344195000Y-157920000D02*
X346595000Y-157920000D01*
X346595000Y-157920000D02*
X346595000Y-160320000D01*
%TO.C,PAD(7+)1*%
X191150000Y-164500000D02*
X191150000Y-168900000D01*
X191150000Y-168900000D02*
X186750000Y-168900000D01*
X186750000Y-168900000D02*
X186750000Y-164500000D01*
X186750000Y-164500000D02*
X191150000Y-164500000D01*
%TO.C,PAD(1-)1*%
X75150000Y-100600000D02*
X75150000Y-105000000D01*
X70750000Y-100600000D02*
X75150000Y-100600000D01*
X70750000Y-105000000D02*
X70750000Y-100600000D01*
X75150000Y-105000000D02*
X70750000Y-105000000D01*
%TO.C,Cell(15+)1*%
X338250000Y-160375000D02*
X338250000Y-157975000D01*
X340650000Y-160375000D02*
X338250000Y-160375000D01*
X340650000Y-157975000D02*
X340650000Y-160375000D01*
X338250000Y-157975000D02*
X340650000Y-157975000D01*
%TO.C,PAD(11+)1*%
X262950000Y-164500000D02*
X267350000Y-164500000D01*
X267350000Y-168900000D02*
X262950000Y-168900000D01*
X267350000Y-164500000D02*
X267350000Y-168900000D01*
X262950000Y-168900000D02*
X262950000Y-164500000D01*
%TO.C,Cell(4+)1*%
X119575000Y-107825000D02*
X117175000Y-107825000D01*
X117175000Y-105425000D02*
X119575000Y-105425000D01*
X119575000Y-105425000D02*
X119575000Y-107825000D01*
X117175000Y-107825000D02*
X117175000Y-105425000D01*
%TO.C,PAD(13+)1*%
X301050000Y-168900000D02*
X301050000Y-164500000D01*
X305450000Y-164500000D02*
X305450000Y-168900000D01*
X305450000Y-168900000D02*
X301050000Y-168900000D01*
X301050000Y-164500000D02*
X305450000Y-164500000D01*
%TO.C,Cell(1+)1*%
X73350000Y-157975000D02*
X75750000Y-157975000D01*
X75750000Y-160375000D02*
X73350000Y-160375000D01*
X73350000Y-160375000D02*
X73350000Y-157975000D01*
X75750000Y-157975000D02*
X75750000Y-160375000D01*
%TO.C,F6*%
X150272936Y-107535000D02*
X151477064Y-107535000D01*
X150272936Y-105715000D02*
X151477064Y-105715000D01*
%TO.C,Cell(14+)1*%
X304475000Y-111475000D02*
X302075000Y-111475000D01*
X302075000Y-111475000D02*
X302075000Y-109075000D01*
X302075000Y-109075000D02*
X304475000Y-109075000D01*
X304475000Y-109075000D02*
X304475000Y-111475000D01*
%TO.C,F2*%
X80285436Y-107535000D02*
X81489564Y-107535000D01*
X80285436Y-105715000D02*
X81489564Y-105715000D01*
%TO.C,PAD(4+)1*%
X110550000Y-100600000D02*
X114950000Y-100600000D01*
X114950000Y-100600000D02*
X114950000Y-105000000D01*
X114950000Y-105000000D02*
X110550000Y-105000000D01*
X110550000Y-105000000D02*
X110550000Y-100600000D01*
%TD*%
M02*
